M48
;GenerationSoftware,Autodesk,EAGLE,9.6.2*%
;CreationDate,2023-12-27T04:07:17Z*%
FMAT,2
ICI,OFF
METRIC,TZ,000.000
T4C0.350
T3C0.600
T2C1.016
T1C2.750
%
G90
M71
T1
X16080Y7310
X16080Y65310
X65080Y7310
X65080Y65310
T2
X4026Y39827
X14808Y45187
X57925Y49517
X57925Y52057
X57925Y54597
X73508Y40996
X73508Y38456
X73508Y35916
X73508Y33376
X4026Y37287
X6350Y33020
X4026Y42367
X4026Y44907
X4026Y47447
X29985Y1524
X27445Y1524
X24397Y1575
X21857Y1575
X444Y2908
X444Y5448
X57925Y57137
X57925Y59677
X203Y57150
X203Y54610
X203Y52070
X3810Y33020
X6350Y30480
X3810Y30480
X6350Y27940
X3810Y27940
X6350Y25400
X3810Y25400
X6350Y22860
X3810Y22860
X6350Y20320
X3810Y20320
X6350Y17780
X3810Y17780
X6350Y15240
X3810Y15240
X6350Y12700
X3810Y12700
X6350Y10160
X3810Y10160
X73381Y25311
X73381Y27851
X73381Y30391
X12522Y1359
X15062Y1359
X17602Y1359
X17350Y12180
X14808Y12167
X17348Y14707
X14808Y14707
X17348Y17247
X14808Y17247
X17348Y19787
X14808Y19787
X17348Y22327
X14808Y22327
X17348Y24867
X14808Y24867
X17348Y27407
X14808Y27407
X17348Y29947
X14808Y29947
X17348Y32487
X14808Y32487
X17348Y35027
X14808Y35027
X17348Y37567
X14808Y37567
X17348Y40107
X14808Y40107
X17348Y42647
X14808Y42647
X17348Y45187
X17348Y47727
X14808Y47727
X17348Y50267
X14808Y50267
X17348Y52807
X14808Y52807
X17348Y55347
X14808Y55347
X17348Y57887
X14808Y57887
X17348Y60427
X14808Y60427
X40843Y19177
X40843Y21717
X40843Y24257
X40843Y26797
X40843Y29337
X40843Y31877
X58623Y21717
X58623Y24257
X58623Y26797
X58623Y29337
X40145Y46977
X40145Y49517
X40145Y52057
X40145Y54597
X40145Y57137
X40145Y59677
X57925Y46977
T3
X68682Y25659
X68682Y26909
X68682Y28159
X68605Y35082
X68605Y36332
X68605Y37582
X68605Y38832
X68682Y29409
T4
X68580Y62230
X72390Y66040
X68580Y66040
X68580Y69850
X72390Y69850
X57150Y66040
X53340Y66040
X49530Y66040
X45720Y66040
X41910Y66040
X49530Y60960
X53340Y60960
X53340Y55880
X49530Y55880
X45720Y55880
X41910Y55880
X64770Y58420
X64770Y62230
X35560Y59690
X31750Y59690
X35560Y56515
X31750Y56642
X38100Y66040
X34290Y66040
X30480Y66040
X26670Y66040
X22860Y66040
X12700Y66040
X8890Y66040
X5080Y66040
X66040Y33020
X1270Y62230
X4572Y59690
X13335Y33223
X30112Y24282
X63259Y38849
X63868Y52045
X19076Y15888
X24155Y18631
X29858Y20012
X65303Y50178
X65405Y37148
X44767Y28740
X44755Y27114
X19075Y18390
X66015Y26556
X65164Y51390
X27445Y22403
X29235Y22403
X30800Y22403
X36081Y22403
X23025Y5029
X21158Y5029
X28308Y24209
X29934Y12713
X27940Y14389
X9703Y-89
X27305Y19368
X33909Y20244
X34074Y13602
X31750Y52070
X35560Y52070
X35560Y48260
X31750Y48260
X24130Y44450
X31750Y36830
X35560Y36830
X1270Y66040
X24130Y36830
X24130Y31750
X31750Y31750
X35560Y31750
X43180Y48260
X46990Y48260
X50800Y48260
X54610Y48260
X54610Y44450
X50800Y44450
X46990Y44450
X43180Y44450
X43180Y40640
X46990Y40640
X50800Y40640
X54610Y40640
X54610Y36830
X50800Y36830
X46990Y36830
X43180Y36830
X50800Y33020
X54610Y33020
X58420Y44450
X62230Y44450
X62230Y40640
X58420Y40640
X58420Y36830
X62230Y36830
X62230Y33020
X58420Y33020
X69850Y33020
X62230Y29210
X66040Y29210
X62230Y25400
X62230Y21590
X58420Y19050
X54610Y29210
X50800Y29210
X46990Y29210
X50800Y25400
X54610Y25400
X46990Y25400
X46990Y20320
X50800Y20320
X46990Y16510
X50800Y16510
X46990Y12700
X50800Y12700
X54610Y12700
X54610Y16510
X58420Y12700
X62230Y12700
X66040Y12700
X76200Y12700
X76200Y16510
X76200Y20320
X76200Y46990
X76200Y50800
X76200Y54610
X76200Y58420
X76200Y62230
X76200Y66040
X76200Y69850
X76200Y8890
X76200Y5080
X76200Y1270
X72390Y1270
X68580Y1270
X68580Y5080
X68580Y8890
X72390Y8890
X72390Y5080
X68580Y43180
X64770Y1270
X54610Y5080
X54610Y1270
X43180Y5080
X43180Y1270
X43180Y12700
X43180Y16510
X39370Y16510
X39370Y12700
X35560Y25400
X31750Y25400
X26035Y26035
X24130Y22860
X23597Y16180
X29337Y17526
X24130Y6350
X10160Y1270
X6350Y1270
X6350Y5080
X2540Y8890
X1270Y25400
X1270Y29210
X1270Y33020
X7620Y53340
X7620Y57150
X30480Y7620
X34290Y7620
X33020Y1270
X36830Y1270
X62230Y19050
X72390Y43180
X68580Y40640
X72390Y50800
X68580Y50800
X72390Y58420
X68580Y58420
X72390Y62230
M30