G04 EAGLE Gerber RS-274X export*
G75*
%MOMM*%
%FSLAX34Y34*%
%LPD*%
%INBottom Copper*%
%IPPOS*%
%AMOC8*
5,1,8,0,0,1.08239X$1,22.5*%
G01*
%ADD10R,1.100000X1.000000*%
%ADD11R,1.108000X1.108000*%
%ADD12C,1.108000*%
%ADD13C,1.879600*%
%ADD14C,1.524000*%
%ADD15R,1.651000X1.651000*%
%ADD16C,1.651000*%
%ADD17R,2.200000X1.200000*%
%ADD18R,2.200000X3.500000*%
%ADD19C,0.756400*%
%ADD20C,0.254000*%
%ADD21C,0.508000*%
%ADD22C,0.304800*%

G36*
X90826Y-5072D02*
X90826Y-5072D01*
X90872Y-5074D01*
X90947Y-5052D01*
X91023Y-5040D01*
X91064Y-5018D01*
X91108Y-5005D01*
X91172Y-4961D01*
X91241Y-4924D01*
X91272Y-4891D01*
X91310Y-4865D01*
X91357Y-4802D01*
X91410Y-4746D01*
X91430Y-4704D01*
X91457Y-4668D01*
X91481Y-4594D01*
X91514Y-4523D01*
X91519Y-4477D01*
X91533Y-4434D01*
X91532Y-4356D01*
X91541Y-4279D01*
X91531Y-4234D01*
X91531Y-4188D01*
X91493Y-4056D01*
X91489Y-4038D01*
X91486Y-4034D01*
X91484Y-4027D01*
X90705Y-2147D01*
X90705Y369D01*
X91668Y2693D01*
X93446Y4471D01*
X95770Y5434D01*
X98286Y5434D01*
X100610Y4471D01*
X100666Y4415D01*
X100740Y4362D01*
X100809Y4302D01*
X100840Y4290D01*
X100866Y4271D01*
X100953Y4244D01*
X101038Y4210D01*
X101079Y4206D01*
X101101Y4199D01*
X101133Y4200D01*
X101204Y4192D01*
X115898Y4192D01*
X115968Y4203D01*
X116040Y4205D01*
X116089Y4223D01*
X116140Y4231D01*
X116204Y4265D01*
X116271Y4290D01*
X116312Y4322D01*
X116358Y4347D01*
X116407Y4398D01*
X116463Y4443D01*
X116491Y4487D01*
X116527Y4525D01*
X116557Y4590D01*
X116596Y4650D01*
X116609Y4701D01*
X116631Y4748D01*
X116639Y4819D01*
X116656Y4889D01*
X116652Y4941D01*
X116658Y4992D01*
X116643Y5063D01*
X116637Y5134D01*
X116617Y5182D01*
X116606Y5233D01*
X116569Y5294D01*
X116541Y5360D01*
X116496Y5416D01*
X116479Y5444D01*
X116462Y5459D01*
X116436Y5491D01*
X116116Y5811D01*
X115011Y7332D01*
X114158Y9006D01*
X113577Y10793D01*
X113376Y12066D01*
X124460Y12066D01*
X124480Y12069D01*
X124499Y12067D01*
X124601Y12089D01*
X124703Y12106D01*
X124720Y12115D01*
X124740Y12119D01*
X124829Y12172D01*
X124920Y12221D01*
X124934Y12235D01*
X124951Y12245D01*
X125018Y12324D01*
X125089Y12399D01*
X125098Y12417D01*
X125111Y12432D01*
X125149Y12528D01*
X125193Y12622D01*
X125195Y12642D01*
X125203Y12660D01*
X125221Y12827D01*
X125221Y13590D01*
X125223Y13590D01*
X125223Y12827D01*
X125226Y12807D01*
X125224Y12788D01*
X125246Y12686D01*
X125263Y12584D01*
X125272Y12567D01*
X125276Y12547D01*
X125329Y12458D01*
X125378Y12367D01*
X125392Y12353D01*
X125402Y12336D01*
X125481Y12269D01*
X125556Y12198D01*
X125574Y12189D01*
X125589Y12176D01*
X125685Y12137D01*
X125779Y12094D01*
X125799Y12092D01*
X125817Y12084D01*
X125984Y12066D01*
X137068Y12066D01*
X136867Y10793D01*
X136286Y9006D01*
X135433Y7332D01*
X134328Y5811D01*
X134008Y5491D01*
X133966Y5433D01*
X133917Y5381D01*
X133895Y5334D01*
X133865Y5292D01*
X133844Y5223D01*
X133813Y5158D01*
X133808Y5106D01*
X133792Y5056D01*
X133794Y4985D01*
X133786Y4914D01*
X133797Y4863D01*
X133799Y4811D01*
X133823Y4743D01*
X133838Y4673D01*
X133865Y4628D01*
X133883Y4580D01*
X133928Y4524D01*
X133965Y4462D01*
X134004Y4428D01*
X134037Y4388D01*
X134097Y4349D01*
X134152Y4302D01*
X134200Y4283D01*
X134244Y4255D01*
X134313Y4237D01*
X134380Y4210D01*
X134451Y4202D01*
X134482Y4194D01*
X134506Y4196D01*
X134546Y4192D01*
X141298Y4192D01*
X141368Y4203D01*
X141440Y4205D01*
X141489Y4223D01*
X141540Y4231D01*
X141604Y4265D01*
X141671Y4290D01*
X141712Y4322D01*
X141758Y4347D01*
X141807Y4399D01*
X141863Y4443D01*
X141891Y4487D01*
X141927Y4525D01*
X141957Y4590D01*
X141996Y4650D01*
X142009Y4701D01*
X142031Y4748D01*
X142039Y4819D01*
X142056Y4889D01*
X142052Y4941D01*
X142058Y4992D01*
X142043Y5063D01*
X142037Y5134D01*
X142017Y5182D01*
X142006Y5233D01*
X141969Y5294D01*
X141941Y5360D01*
X141896Y5416D01*
X141879Y5444D01*
X141862Y5459D01*
X141836Y5491D01*
X140501Y6826D01*
X138683Y11214D01*
X138683Y13443D01*
X138669Y13533D01*
X138661Y13624D01*
X138649Y13654D01*
X138644Y13686D01*
X138601Y13767D01*
X138565Y13851D01*
X138539Y13883D01*
X138528Y13903D01*
X138505Y13926D01*
X138460Y13982D01*
X137553Y14889D01*
X137479Y14942D01*
X137409Y15002D01*
X137379Y15014D01*
X137353Y15033D01*
X137266Y15060D01*
X137181Y15094D01*
X137140Y15098D01*
X137118Y15105D01*
X137086Y15104D01*
X137014Y15112D01*
X126745Y15112D01*
X126745Y25381D01*
X126743Y25397D01*
X126744Y25410D01*
X126730Y25474D01*
X126723Y25562D01*
X126711Y25592D01*
X126705Y25624D01*
X126692Y25649D01*
X126692Y25651D01*
X126688Y25657D01*
X126663Y25705D01*
X126627Y25789D01*
X126601Y25821D01*
X126590Y25842D01*
X126567Y25864D01*
X126522Y25920D01*
X110362Y42080D01*
X110362Y113872D01*
X110359Y113892D01*
X110361Y113911D01*
X110339Y114013D01*
X110323Y114115D01*
X110313Y114132D01*
X110309Y114152D01*
X110256Y114241D01*
X110207Y114332D01*
X110193Y114346D01*
X110183Y114363D01*
X110104Y114430D01*
X110029Y114502D01*
X110011Y114510D01*
X109996Y114523D01*
X109900Y114562D01*
X109806Y114605D01*
X109786Y114607D01*
X109768Y114615D01*
X109601Y114633D01*
X107323Y114633D01*
X107323Y121412D01*
X107320Y121432D01*
X107322Y121451D01*
X107300Y121553D01*
X107283Y121655D01*
X107274Y121672D01*
X107270Y121692D01*
X107217Y121781D01*
X107168Y121872D01*
X107154Y121886D01*
X107144Y121903D01*
X107065Y121970D01*
X106990Y122041D01*
X106972Y122050D01*
X106957Y122063D01*
X106861Y122102D01*
X106767Y122145D01*
X106747Y122147D01*
X106729Y122155D01*
X106562Y122173D01*
X105799Y122173D01*
X105799Y122175D01*
X106562Y122175D01*
X106582Y122178D01*
X106601Y122176D01*
X106703Y122198D01*
X106805Y122215D01*
X106822Y122224D01*
X106842Y122228D01*
X106931Y122281D01*
X107022Y122330D01*
X107036Y122344D01*
X107053Y122354D01*
X107120Y122433D01*
X107191Y122508D01*
X107200Y122526D01*
X107213Y122541D01*
X107252Y122637D01*
X107295Y122731D01*
X107297Y122751D01*
X107305Y122769D01*
X107323Y122936D01*
X107323Y129715D01*
X109601Y129715D01*
X109621Y129718D01*
X109640Y129716D01*
X109742Y129738D01*
X109844Y129754D01*
X109861Y129764D01*
X109881Y129768D01*
X109970Y129821D01*
X110061Y129870D01*
X110075Y129884D01*
X110092Y129894D01*
X110159Y129973D01*
X110231Y130048D01*
X110239Y130066D01*
X110252Y130081D01*
X110291Y130177D01*
X110334Y130271D01*
X110336Y130291D01*
X110344Y130309D01*
X110362Y130476D01*
X110362Y139145D01*
X110359Y139165D01*
X110361Y139184D01*
X110339Y139286D01*
X110323Y139388D01*
X110313Y139405D01*
X110309Y139425D01*
X110256Y139514D01*
X110207Y139605D01*
X110193Y139619D01*
X110183Y139636D01*
X110104Y139703D01*
X110029Y139775D01*
X110011Y139783D01*
X109996Y139796D01*
X109900Y139835D01*
X109806Y139878D01*
X109786Y139880D01*
X109768Y139888D01*
X109601Y139906D01*
X107323Y139906D01*
X107323Y146685D01*
X107320Y146705D01*
X107322Y146724D01*
X107300Y146826D01*
X107283Y146928D01*
X107274Y146945D01*
X107270Y146965D01*
X107217Y147054D01*
X107168Y147145D01*
X107154Y147159D01*
X107144Y147176D01*
X107065Y147243D01*
X106990Y147314D01*
X106972Y147323D01*
X106957Y147336D01*
X106861Y147375D01*
X106767Y147418D01*
X106747Y147420D01*
X106729Y147428D01*
X106562Y147446D01*
X105799Y147446D01*
X105799Y147448D01*
X106562Y147448D01*
X106582Y147451D01*
X106601Y147449D01*
X106703Y147471D01*
X106805Y147488D01*
X106822Y147497D01*
X106842Y147501D01*
X106931Y147554D01*
X107022Y147603D01*
X107036Y147617D01*
X107053Y147627D01*
X107120Y147706D01*
X107191Y147781D01*
X107200Y147799D01*
X107213Y147814D01*
X107252Y147910D01*
X107295Y148004D01*
X107297Y148024D01*
X107305Y148042D01*
X107323Y148209D01*
X107323Y154988D01*
X109601Y154988D01*
X109621Y154991D01*
X109640Y154989D01*
X109742Y155011D01*
X109844Y155027D01*
X109861Y155037D01*
X109881Y155041D01*
X109970Y155094D01*
X110061Y155143D01*
X110075Y155157D01*
X110092Y155167D01*
X110159Y155246D01*
X110231Y155321D01*
X110239Y155339D01*
X110252Y155354D01*
X110291Y155450D01*
X110334Y155544D01*
X110336Y155564D01*
X110344Y155582D01*
X110362Y155749D01*
X110362Y196650D01*
X137063Y223352D01*
X137116Y223425D01*
X137176Y223495D01*
X137188Y223525D01*
X137207Y223551D01*
X137234Y223638D01*
X137268Y223723D01*
X137272Y223764D01*
X137279Y223786D01*
X137278Y223819D01*
X137286Y223890D01*
X137286Y225413D01*
X138930Y229381D01*
X141967Y232418D01*
X145935Y234062D01*
X150229Y234062D01*
X154197Y232418D01*
X157234Y229381D01*
X158878Y225413D01*
X158878Y221119D01*
X157234Y217151D01*
X154197Y214114D01*
X150229Y212470D01*
X145935Y212470D01*
X141967Y214114D01*
X140824Y215257D01*
X140807Y215269D01*
X140795Y215284D01*
X140708Y215340D01*
X140624Y215400D01*
X140605Y215406D01*
X140588Y215417D01*
X140488Y215442D01*
X140389Y215473D01*
X140369Y215472D01*
X140350Y215477D01*
X140247Y215469D01*
X140143Y215466D01*
X140124Y215460D01*
X140104Y215458D01*
X140010Y215418D01*
X139912Y215382D01*
X139896Y215369D01*
X139878Y215362D01*
X139747Y215257D01*
X118207Y193716D01*
X118154Y193643D01*
X118094Y193573D01*
X118082Y193543D01*
X118063Y193517D01*
X118036Y193430D01*
X118002Y193345D01*
X117998Y193304D01*
X117991Y193282D01*
X117992Y193249D01*
X117984Y193178D01*
X117984Y155749D01*
X117987Y155729D01*
X117985Y155710D01*
X118007Y155608D01*
X118023Y155506D01*
X118033Y155489D01*
X118037Y155469D01*
X118090Y155380D01*
X118139Y155289D01*
X118153Y155275D01*
X118163Y155258D01*
X118242Y155191D01*
X118317Y155119D01*
X118335Y155111D01*
X118350Y155098D01*
X118446Y155059D01*
X118540Y155016D01*
X118560Y155014D01*
X118578Y155006D01*
X118745Y154988D01*
X129352Y154988D01*
X130841Y153499D01*
X130841Y152908D01*
X130844Y152888D01*
X130842Y152869D01*
X130864Y152767D01*
X130880Y152665D01*
X130890Y152648D01*
X130894Y152628D01*
X130947Y152539D01*
X130996Y152448D01*
X131010Y152434D01*
X131020Y152417D01*
X131099Y152350D01*
X131174Y152278D01*
X131192Y152270D01*
X131207Y152257D01*
X131303Y152218D01*
X131397Y152175D01*
X131417Y152173D01*
X131435Y152165D01*
X131602Y152147D01*
X137993Y152147D01*
X138107Y152166D01*
X138224Y152183D01*
X138229Y152185D01*
X138235Y152186D01*
X138338Y152241D01*
X138443Y152294D01*
X138447Y152299D01*
X138453Y152302D01*
X138533Y152386D01*
X138615Y152470D01*
X138619Y152476D01*
X138622Y152480D01*
X138630Y152497D01*
X138696Y152617D01*
X138930Y153181D01*
X141967Y156218D01*
X145935Y157862D01*
X150229Y157862D01*
X154197Y156218D01*
X155418Y154998D01*
X155476Y154956D01*
X155528Y154907D01*
X155549Y154897D01*
X155553Y154894D01*
X155575Y154885D01*
X155617Y154854D01*
X155686Y154833D01*
X155751Y154803D01*
X155803Y154797D01*
X155853Y154782D01*
X155924Y154784D01*
X155995Y154776D01*
X156046Y154787D01*
X156098Y154788D01*
X156166Y154813D01*
X156236Y154828D01*
X156281Y154855D01*
X156329Y154873D01*
X156385Y154918D01*
X156447Y154954D01*
X156481Y154994D01*
X156521Y155026D01*
X156560Y155087D01*
X156607Y155141D01*
X156626Y155189D01*
X156654Y155233D01*
X156672Y155302D01*
X156689Y155340D01*
X156690Y155348D01*
X156699Y155369D01*
X156707Y155441D01*
X156715Y155472D01*
X156713Y155495D01*
X156717Y155536D01*
X156717Y163996D01*
X156706Y164067D01*
X156704Y164138D01*
X156686Y164187D01*
X156678Y164239D01*
X156644Y164302D01*
X156619Y164369D01*
X156587Y164410D01*
X156562Y164456D01*
X156511Y164505D01*
X156466Y164561D01*
X156422Y164590D01*
X156384Y164625D01*
X156319Y164656D01*
X156259Y164694D01*
X156208Y164707D01*
X156161Y164729D01*
X156090Y164737D01*
X156020Y164755D01*
X155968Y164750D01*
X155917Y164756D01*
X155846Y164741D01*
X155775Y164735D01*
X155727Y164715D01*
X155676Y164704D01*
X155615Y164667D01*
X155549Y164639D01*
X155493Y164594D01*
X155465Y164578D01*
X155450Y164560D01*
X155418Y164534D01*
X155115Y164231D01*
X153740Y163233D01*
X152226Y162461D01*
X150610Y161936D01*
X149605Y161777D01*
X149605Y171704D01*
X149602Y171724D01*
X149604Y171743D01*
X149582Y171845D01*
X149565Y171947D01*
X149556Y171964D01*
X149552Y171984D01*
X149499Y172073D01*
X149450Y172164D01*
X149436Y172178D01*
X149426Y172195D01*
X149347Y172262D01*
X149272Y172333D01*
X149254Y172342D01*
X149239Y172355D01*
X149143Y172393D01*
X149049Y172437D01*
X149029Y172439D01*
X149011Y172447D01*
X148844Y172465D01*
X148081Y172465D01*
X148081Y172467D01*
X148844Y172467D01*
X148864Y172470D01*
X148883Y172468D01*
X148985Y172490D01*
X149087Y172507D01*
X149104Y172516D01*
X149124Y172520D01*
X149213Y172573D01*
X149304Y172622D01*
X149318Y172636D01*
X149335Y172646D01*
X149402Y172725D01*
X149473Y172800D01*
X149482Y172818D01*
X149495Y172833D01*
X149534Y172929D01*
X149577Y173023D01*
X149579Y173043D01*
X149587Y173061D01*
X149605Y173228D01*
X149605Y183155D01*
X150610Y182996D01*
X152226Y182471D01*
X153740Y181699D01*
X155115Y180701D01*
X155418Y180398D01*
X155476Y180356D01*
X155528Y180307D01*
X155575Y180285D01*
X155617Y180254D01*
X155686Y180233D01*
X155751Y180203D01*
X155803Y180197D01*
X155853Y180182D01*
X155924Y180184D01*
X155995Y180176D01*
X156046Y180187D01*
X156098Y180188D01*
X156166Y180213D01*
X156236Y180228D01*
X156281Y180255D01*
X156329Y180273D01*
X156385Y180317D01*
X156447Y180354D01*
X156481Y180394D01*
X156521Y180426D01*
X156560Y180487D01*
X156607Y180541D01*
X156626Y180590D01*
X156654Y180633D01*
X156672Y180703D01*
X156699Y180769D01*
X156707Y180841D01*
X156715Y180872D01*
X156713Y180895D01*
X156717Y180936D01*
X156717Y189396D01*
X156706Y189467D01*
X156704Y189538D01*
X156686Y189587D01*
X156678Y189639D01*
X156644Y189702D01*
X156619Y189769D01*
X156587Y189810D01*
X156562Y189856D01*
X156510Y189905D01*
X156466Y189961D01*
X156422Y189990D01*
X156384Y190025D01*
X156319Y190056D01*
X156259Y190094D01*
X156208Y190107D01*
X156161Y190129D01*
X156090Y190137D01*
X156020Y190155D01*
X155968Y190150D01*
X155917Y190156D01*
X155846Y190141D01*
X155775Y190135D01*
X155727Y190115D01*
X155676Y190104D01*
X155615Y190067D01*
X155549Y190039D01*
X155493Y189994D01*
X155465Y189978D01*
X155450Y189960D01*
X155418Y189934D01*
X154197Y188714D01*
X150229Y187070D01*
X145935Y187070D01*
X141967Y188714D01*
X138930Y191751D01*
X137286Y195719D01*
X137286Y200013D01*
X138930Y203981D01*
X141967Y207018D01*
X145935Y208662D01*
X150229Y208662D01*
X154197Y207018D01*
X157234Y203981D01*
X158878Y200013D01*
X158878Y198998D01*
X158892Y198908D01*
X158900Y198817D01*
X158912Y198787D01*
X158917Y198755D01*
X158960Y198675D01*
X158996Y198590D01*
X159022Y198558D01*
X159033Y198538D01*
X159056Y198516D01*
X159101Y198460D01*
X161387Y196173D01*
X161445Y196132D01*
X161497Y196082D01*
X161544Y196060D01*
X161586Y196030D01*
X161655Y196009D01*
X161720Y195979D01*
X161772Y195973D01*
X161822Y195958D01*
X161893Y195959D01*
X161964Y195952D01*
X162015Y195963D01*
X162067Y195964D01*
X162135Y195989D01*
X162205Y196004D01*
X162250Y196030D01*
X162298Y196048D01*
X162354Y196093D01*
X162416Y196130D01*
X162450Y196170D01*
X162490Y196202D01*
X162529Y196262D01*
X162576Y196317D01*
X162595Y196365D01*
X162623Y196409D01*
X162641Y196478D01*
X162668Y196545D01*
X162676Y196616D01*
X162684Y196648D01*
X162682Y196671D01*
X162686Y196712D01*
X162686Y200013D01*
X164330Y203981D01*
X167367Y207018D01*
X171335Y208662D01*
X175629Y208662D01*
X179597Y207018D01*
X182634Y203981D01*
X184278Y200013D01*
X184278Y195719D01*
X182634Y191751D01*
X179597Y188714D01*
X175629Y187070D01*
X171335Y187070D01*
X167367Y188714D01*
X165638Y190442D01*
X165580Y190484D01*
X165528Y190533D01*
X165481Y190555D01*
X165439Y190586D01*
X165370Y190607D01*
X165305Y190637D01*
X165253Y190643D01*
X165203Y190658D01*
X165132Y190656D01*
X165061Y190664D01*
X165010Y190653D01*
X164958Y190652D01*
X164890Y190627D01*
X164820Y190612D01*
X164775Y190585D01*
X164727Y190567D01*
X164671Y190522D01*
X164609Y190486D01*
X164575Y190446D01*
X164535Y190414D01*
X164496Y190353D01*
X164449Y190299D01*
X164430Y190251D01*
X164402Y190207D01*
X164384Y190137D01*
X164357Y190071D01*
X164349Y189999D01*
X164341Y189968D01*
X164343Y189945D01*
X164339Y189904D01*
X164339Y180428D01*
X164350Y180357D01*
X164352Y180286D01*
X164370Y180237D01*
X164378Y180185D01*
X164412Y180122D01*
X164437Y180055D01*
X164469Y180014D01*
X164494Y179968D01*
X164546Y179919D01*
X164590Y179863D01*
X164634Y179834D01*
X164672Y179799D01*
X164737Y179768D01*
X164797Y179730D01*
X164848Y179717D01*
X164895Y179695D01*
X164966Y179687D01*
X165036Y179669D01*
X165088Y179674D01*
X165139Y179668D01*
X165210Y179683D01*
X165281Y179689D01*
X165329Y179709D01*
X165380Y179720D01*
X165441Y179757D01*
X165507Y179785D01*
X165563Y179830D01*
X165591Y179846D01*
X165606Y179864D01*
X165638Y179890D01*
X167367Y181618D01*
X171335Y183262D01*
X175629Y183262D01*
X179597Y181618D01*
X182634Y178581D01*
X183394Y176747D01*
X183456Y176647D01*
X183516Y176547D01*
X183520Y176543D01*
X183524Y176538D01*
X183613Y176463D01*
X183703Y176387D01*
X183708Y176385D01*
X183713Y176381D01*
X183821Y176339D01*
X183931Y176295D01*
X183938Y176294D01*
X183943Y176293D01*
X183961Y176292D01*
X184097Y176277D01*
X184374Y176277D01*
X184394Y176280D01*
X184413Y176278D01*
X184515Y176300D01*
X184617Y176316D01*
X184634Y176326D01*
X184654Y176330D01*
X184743Y176383D01*
X184834Y176432D01*
X184848Y176446D01*
X184865Y176456D01*
X184932Y176535D01*
X185004Y176610D01*
X185012Y176628D01*
X185025Y176643D01*
X185064Y176739D01*
X185107Y176833D01*
X185109Y176853D01*
X185117Y176871D01*
X185135Y177038D01*
X185135Y178137D01*
X185815Y178817D01*
X185826Y178833D01*
X185842Y178846D01*
X185898Y178933D01*
X185958Y179017D01*
X185964Y179036D01*
X185975Y179053D01*
X186000Y179153D01*
X186031Y179252D01*
X186030Y179272D01*
X186035Y179291D01*
X186027Y179394D01*
X186024Y179498D01*
X186017Y179516D01*
X186016Y179536D01*
X185976Y179631D01*
X185940Y179729D01*
X185927Y179744D01*
X185920Y179763D01*
X185815Y179894D01*
X185394Y180314D01*
X184431Y182638D01*
X184431Y185154D01*
X185394Y187478D01*
X187172Y189256D01*
X189496Y190219D01*
X192012Y190219D01*
X194336Y189256D01*
X196114Y187478D01*
X197077Y185154D01*
X197077Y182638D01*
X196265Y180678D01*
X196254Y180634D01*
X196235Y180592D01*
X196226Y180515D01*
X196209Y180439D01*
X196213Y180393D01*
X196208Y180348D01*
X196224Y180271D01*
X196232Y180194D01*
X196250Y180152D01*
X196260Y180107D01*
X196300Y180040D01*
X196332Y179969D01*
X196363Y179935D01*
X196386Y179896D01*
X196445Y179845D01*
X196498Y179788D01*
X196538Y179766D01*
X196573Y179736D01*
X196645Y179707D01*
X196714Y179670D01*
X196759Y179661D01*
X196801Y179644D01*
X196937Y179629D01*
X196956Y179626D01*
X196961Y179627D01*
X196968Y179626D01*
X199728Y179626D01*
X200240Y179114D01*
X200298Y179073D01*
X200350Y179023D01*
X200397Y179001D01*
X200439Y178971D01*
X200508Y178950D01*
X200573Y178920D01*
X200625Y178914D01*
X200675Y178898D01*
X200746Y178900D01*
X200817Y178892D01*
X200868Y178904D01*
X200920Y178905D01*
X200988Y178929D01*
X201058Y178945D01*
X201103Y178971D01*
X201151Y178989D01*
X201207Y179034D01*
X201269Y179071D01*
X201303Y179110D01*
X201343Y179143D01*
X201382Y179203D01*
X201429Y179258D01*
X201448Y179306D01*
X201476Y179350D01*
X201494Y179419D01*
X201521Y179486D01*
X201529Y179557D01*
X201537Y179588D01*
X201535Y179612D01*
X201539Y179653D01*
X201539Y205107D01*
X201525Y205197D01*
X201517Y205288D01*
X201505Y205318D01*
X201500Y205350D01*
X201457Y205431D01*
X201421Y205514D01*
X201395Y205547D01*
X201384Y205567D01*
X201361Y205589D01*
X201316Y205645D01*
X185371Y221591D01*
X185361Y221598D01*
X185354Y221608D01*
X185261Y221670D01*
X185171Y221735D01*
X185160Y221738D01*
X185150Y221745D01*
X185043Y221774D01*
X184936Y221807D01*
X184924Y221807D01*
X184912Y221810D01*
X184802Y221803D01*
X184690Y221801D01*
X184679Y221796D01*
X184667Y221796D01*
X184564Y221754D01*
X184459Y221716D01*
X184450Y221709D01*
X184439Y221704D01*
X184354Y221632D01*
X184267Y221562D01*
X184261Y221552D01*
X184251Y221545D01*
X184194Y221449D01*
X184134Y221355D01*
X184131Y221344D01*
X184125Y221334D01*
X184093Y221218D01*
X184093Y221217D01*
X184093Y221216D01*
X184081Y221172D01*
X184012Y220738D01*
X183487Y219122D01*
X182715Y217608D01*
X181716Y216233D01*
X180515Y215032D01*
X179140Y214033D01*
X177626Y213261D01*
X176010Y212736D01*
X175005Y212577D01*
X175005Y222504D01*
X175002Y222524D01*
X175004Y222543D01*
X174982Y222645D01*
X174965Y222747D01*
X174956Y222764D01*
X174952Y222784D01*
X174899Y222873D01*
X174850Y222964D01*
X174836Y222978D01*
X174826Y222995D01*
X174747Y223062D01*
X174672Y223133D01*
X174654Y223142D01*
X174639Y223155D01*
X174543Y223193D01*
X174449Y223237D01*
X174429Y223239D01*
X174411Y223247D01*
X174244Y223265D01*
X173481Y223265D01*
X173481Y223267D01*
X174244Y223267D01*
X174264Y223270D01*
X174283Y223268D01*
X174385Y223290D01*
X174487Y223307D01*
X174504Y223316D01*
X174524Y223320D01*
X174613Y223373D01*
X174704Y223422D01*
X174718Y223436D01*
X174735Y223446D01*
X174802Y223525D01*
X174873Y223600D01*
X174882Y223618D01*
X174895Y223633D01*
X174934Y223729D01*
X174977Y223823D01*
X174979Y223843D01*
X174987Y223861D01*
X175005Y224028D01*
X175005Y233955D01*
X176010Y233796D01*
X177626Y233271D01*
X179140Y232499D01*
X180515Y231500D01*
X181716Y230299D01*
X182715Y228924D01*
X183091Y228187D01*
X183131Y228133D01*
X183163Y228073D01*
X183203Y228034D01*
X183236Y227989D01*
X183292Y227950D01*
X183341Y227903D01*
X183392Y227880D01*
X183438Y227848D01*
X183502Y227828D01*
X183564Y227800D01*
X183620Y227794D01*
X183673Y227778D01*
X183741Y227780D01*
X183808Y227773D01*
X183863Y227785D01*
X183919Y227787D01*
X183983Y227811D01*
X184049Y227825D01*
X184097Y227854D01*
X184149Y227874D01*
X184202Y227916D01*
X184260Y227951D01*
X184296Y227994D01*
X184340Y228029D01*
X184376Y228087D01*
X184420Y228138D01*
X184441Y228190D01*
X184471Y228237D01*
X184486Y228303D01*
X184512Y228366D01*
X184520Y228445D01*
X184528Y228477D01*
X184526Y228497D01*
X184530Y228533D01*
X184530Y243301D01*
X184515Y243397D01*
X184505Y243494D01*
X184495Y243518D01*
X184491Y243544D01*
X184445Y243630D01*
X184405Y243719D01*
X184388Y243738D01*
X184375Y243761D01*
X184305Y243828D01*
X184239Y243900D01*
X184216Y243913D01*
X184197Y243931D01*
X184109Y243972D01*
X184023Y244019D01*
X183998Y244023D01*
X183974Y244034D01*
X183877Y244045D01*
X183781Y244062D01*
X183755Y244059D01*
X183730Y244061D01*
X183634Y244041D01*
X183538Y244027D01*
X183515Y244015D01*
X183489Y244009D01*
X183406Y243959D01*
X183319Y243915D01*
X183300Y243896D01*
X183278Y243883D01*
X183215Y243809D01*
X183147Y243739D01*
X183131Y243711D01*
X183118Y243696D01*
X183106Y243665D01*
X183066Y243593D01*
X182634Y242551D01*
X179597Y239514D01*
X175629Y237870D01*
X171335Y237870D01*
X167367Y239514D01*
X164330Y242551D01*
X162686Y246519D01*
X162686Y250813D01*
X164330Y254781D01*
X167367Y257818D01*
X171335Y259462D01*
X175629Y259462D01*
X179597Y257818D01*
X182634Y254781D01*
X183066Y253739D01*
X183117Y253657D01*
X183163Y253571D01*
X183182Y253553D01*
X183195Y253530D01*
X183270Y253468D01*
X183341Y253401D01*
X183365Y253390D01*
X183385Y253374D01*
X183476Y253339D01*
X183564Y253298D01*
X183590Y253295D01*
X183614Y253285D01*
X183712Y253281D01*
X183808Y253271D01*
X183834Y253276D01*
X183860Y253275D01*
X183954Y253302D01*
X184049Y253323D01*
X184071Y253336D01*
X184096Y253344D01*
X184176Y253399D01*
X184260Y253449D01*
X184277Y253469D01*
X184298Y253484D01*
X184357Y253562D01*
X184420Y253636D01*
X184430Y253660D01*
X184445Y253681D01*
X184475Y253774D01*
X184512Y253864D01*
X184515Y253897D01*
X184521Y253915D01*
X184521Y253948D01*
X184530Y254031D01*
X184530Y268701D01*
X184515Y268797D01*
X184505Y268894D01*
X184495Y268918D01*
X184491Y268944D01*
X184445Y269030D01*
X184405Y269119D01*
X184388Y269138D01*
X184375Y269161D01*
X184305Y269228D01*
X184239Y269300D01*
X184216Y269313D01*
X184197Y269331D01*
X184109Y269372D01*
X184023Y269419D01*
X183998Y269423D01*
X183974Y269434D01*
X183877Y269445D01*
X183781Y269462D01*
X183755Y269459D01*
X183730Y269461D01*
X183634Y269441D01*
X183538Y269427D01*
X183515Y269415D01*
X183489Y269409D01*
X183406Y269359D01*
X183319Y269315D01*
X183300Y269296D01*
X183278Y269283D01*
X183215Y269209D01*
X183147Y269139D01*
X183131Y269111D01*
X183118Y269096D01*
X183106Y269065D01*
X183066Y268993D01*
X182634Y267951D01*
X179597Y264914D01*
X175629Y263270D01*
X171335Y263270D01*
X167367Y264914D01*
X164330Y267951D01*
X162686Y271919D01*
X162686Y276213D01*
X164330Y280181D01*
X167367Y283218D01*
X171335Y284862D01*
X175629Y284862D01*
X179597Y283218D01*
X182634Y280181D01*
X183066Y279139D01*
X183117Y279057D01*
X183163Y278971D01*
X183182Y278953D01*
X183195Y278930D01*
X183270Y278868D01*
X183341Y278801D01*
X183365Y278790D01*
X183385Y278774D01*
X183476Y278739D01*
X183564Y278698D01*
X183590Y278695D01*
X183614Y278685D01*
X183712Y278681D01*
X183808Y278671D01*
X183834Y278676D01*
X183860Y278675D01*
X183954Y278702D01*
X184049Y278723D01*
X184071Y278736D01*
X184096Y278744D01*
X184176Y278799D01*
X184260Y278849D01*
X184277Y278869D01*
X184298Y278884D01*
X184357Y278962D01*
X184420Y279036D01*
X184430Y279060D01*
X184445Y279081D01*
X184475Y279174D01*
X184512Y279264D01*
X184515Y279297D01*
X184521Y279315D01*
X184521Y279348D01*
X184530Y279431D01*
X184530Y294101D01*
X184528Y294117D01*
X184529Y294131D01*
X184514Y294200D01*
X184505Y294294D01*
X184495Y294318D01*
X184491Y294344D01*
X184478Y294368D01*
X184477Y294372D01*
X184466Y294389D01*
X184445Y294430D01*
X184405Y294519D01*
X184388Y294538D01*
X184375Y294561D01*
X184305Y294628D01*
X184239Y294700D01*
X184216Y294713D01*
X184197Y294731D01*
X184109Y294772D01*
X184023Y294819D01*
X183998Y294823D01*
X183974Y294834D01*
X183877Y294845D01*
X183781Y294862D01*
X183755Y294859D01*
X183730Y294861D01*
X183634Y294841D01*
X183538Y294827D01*
X183515Y294815D01*
X183489Y294809D01*
X183406Y294759D01*
X183319Y294715D01*
X183300Y294696D01*
X183278Y294683D01*
X183215Y294609D01*
X183147Y294539D01*
X183136Y294521D01*
X183136Y294520D01*
X183134Y294517D01*
X183131Y294511D01*
X183118Y294496D01*
X183106Y294465D01*
X183066Y294393D01*
X182634Y293351D01*
X179597Y290314D01*
X175629Y288670D01*
X171335Y288670D01*
X167367Y290314D01*
X164330Y293351D01*
X162686Y297319D01*
X162686Y301613D01*
X164330Y305581D01*
X167367Y308618D01*
X171335Y310262D01*
X175629Y310262D01*
X179597Y308618D01*
X182634Y305581D01*
X183066Y304539D01*
X183117Y304457D01*
X183163Y304371D01*
X183182Y304353D01*
X183195Y304330D01*
X183270Y304268D01*
X183341Y304201D01*
X183365Y304190D01*
X183385Y304174D01*
X183476Y304139D01*
X183564Y304098D01*
X183590Y304095D01*
X183614Y304085D01*
X183712Y304081D01*
X183808Y304071D01*
X183834Y304076D01*
X183860Y304075D01*
X183954Y304102D01*
X184049Y304123D01*
X184071Y304136D01*
X184096Y304144D01*
X184176Y304199D01*
X184260Y304249D01*
X184277Y304269D01*
X184298Y304284D01*
X184357Y304362D01*
X184420Y304436D01*
X184430Y304460D01*
X184445Y304481D01*
X184475Y304574D01*
X184512Y304664D01*
X184515Y304697D01*
X184521Y304715D01*
X184521Y304748D01*
X184530Y304831D01*
X184530Y317366D01*
X184516Y317456D01*
X184508Y317547D01*
X184496Y317577D01*
X184491Y317609D01*
X184448Y317690D01*
X184412Y317773D01*
X184386Y317806D01*
X184375Y317826D01*
X184352Y317848D01*
X184307Y317904D01*
X183586Y318626D01*
X183570Y318637D01*
X183557Y318653D01*
X183470Y318709D01*
X183386Y318769D01*
X183367Y318775D01*
X183350Y318786D01*
X183250Y318811D01*
X183151Y318842D01*
X183131Y318841D01*
X183112Y318846D01*
X183009Y318838D01*
X182905Y318835D01*
X182886Y318829D01*
X182867Y318827D01*
X182772Y318787D01*
X182674Y318751D01*
X182659Y318738D01*
X182640Y318731D01*
X182509Y318626D01*
X179597Y315714D01*
X175629Y314070D01*
X171335Y314070D01*
X169754Y314725D01*
X169640Y314752D01*
X169527Y314780D01*
X169521Y314780D01*
X169515Y314781D01*
X169398Y314770D01*
X169282Y314761D01*
X169276Y314759D01*
X169270Y314758D01*
X169162Y314710D01*
X169055Y314665D01*
X169049Y314660D01*
X169045Y314658D01*
X169031Y314646D01*
X168924Y314560D01*
X165070Y310705D01*
X162466Y308101D01*
X156552Y308101D01*
X156481Y308090D01*
X156410Y308088D01*
X156361Y308070D01*
X156309Y308062D01*
X156246Y308028D01*
X156179Y308003D01*
X156138Y307971D01*
X156092Y307946D01*
X156043Y307894D01*
X155987Y307850D01*
X155958Y307806D01*
X155923Y307768D01*
X155892Y307703D01*
X155854Y307643D01*
X155841Y307592D01*
X155819Y307545D01*
X155811Y307474D01*
X155793Y307404D01*
X155798Y307352D01*
X155792Y307301D01*
X155807Y307230D01*
X155813Y307159D01*
X155833Y307111D01*
X155844Y307060D01*
X155881Y306999D01*
X155909Y306933D01*
X155954Y306877D01*
X155970Y306849D01*
X155988Y306834D01*
X156014Y306802D01*
X157234Y305581D01*
X158878Y301613D01*
X158878Y297319D01*
X157234Y293351D01*
X154197Y290314D01*
X150229Y288670D01*
X145935Y288670D01*
X141967Y290314D01*
X138930Y293351D01*
X137286Y297319D01*
X137286Y301613D01*
X138930Y305581D01*
X140150Y306802D01*
X140192Y306860D01*
X140241Y306912D01*
X140263Y306959D01*
X140294Y307001D01*
X140315Y307070D01*
X140345Y307135D01*
X140351Y307187D01*
X140366Y307237D01*
X140364Y307308D01*
X140372Y307379D01*
X140361Y307430D01*
X140360Y307482D01*
X140335Y307550D01*
X140320Y307620D01*
X140293Y307665D01*
X140275Y307713D01*
X140230Y307769D01*
X140194Y307831D01*
X140154Y307865D01*
X140122Y307905D01*
X140061Y307944D01*
X140007Y307991D01*
X139959Y308010D01*
X139915Y308038D01*
X139845Y308056D01*
X139779Y308083D01*
X139707Y308091D01*
X139676Y308099D01*
X139653Y308097D01*
X139612Y308101D01*
X136991Y308101D01*
X136901Y308087D01*
X136810Y308079D01*
X136780Y308067D01*
X136748Y308062D01*
X136668Y308019D01*
X136584Y307983D01*
X136552Y307957D01*
X136531Y307946D01*
X136509Y307923D01*
X136453Y307878D01*
X129310Y300735D01*
X109504Y300735D01*
X109484Y300732D01*
X109465Y300734D01*
X109363Y300712D01*
X109261Y300696D01*
X109244Y300686D01*
X109224Y300682D01*
X109135Y300629D01*
X109044Y300580D01*
X109030Y300566D01*
X109013Y300556D01*
X108946Y300477D01*
X108874Y300402D01*
X108866Y300384D01*
X108853Y300369D01*
X108814Y300273D01*
X108771Y300179D01*
X108769Y300159D01*
X108761Y300141D01*
X108743Y299974D01*
X108743Y298748D01*
X107254Y297259D01*
X94150Y297259D01*
X92740Y298669D01*
X92724Y298680D01*
X92712Y298696D01*
X92624Y298752D01*
X92541Y298812D01*
X92522Y298818D01*
X92505Y298829D01*
X92404Y298854D01*
X92305Y298884D01*
X92286Y298884D01*
X92266Y298889D01*
X92163Y298881D01*
X92060Y298878D01*
X92041Y298871D01*
X92021Y298870D01*
X91926Y298829D01*
X91829Y298794D01*
X91813Y298781D01*
X91795Y298773D01*
X91664Y298669D01*
X90254Y297259D01*
X77150Y297259D01*
X75661Y298748D01*
X75661Y299974D01*
X75658Y299994D01*
X75660Y300013D01*
X75638Y300115D01*
X75622Y300217D01*
X75612Y300234D01*
X75608Y300254D01*
X75555Y300343D01*
X75506Y300434D01*
X75492Y300448D01*
X75482Y300465D01*
X75403Y300532D01*
X75328Y300604D01*
X75310Y300612D01*
X75295Y300625D01*
X75199Y300664D01*
X75105Y300707D01*
X75085Y300709D01*
X75067Y300717D01*
X74900Y300735D01*
X73323Y300735D01*
X73208Y300716D01*
X73092Y300699D01*
X73086Y300697D01*
X73080Y300696D01*
X72978Y300641D01*
X72873Y300588D01*
X72868Y300583D01*
X72863Y300580D01*
X72783Y300496D01*
X72700Y300412D01*
X72697Y300406D01*
X72693Y300402D01*
X72686Y300385D01*
X72620Y300265D01*
X72114Y299044D01*
X69256Y296186D01*
X65521Y294639D01*
X61479Y294639D01*
X57744Y296186D01*
X54886Y299044D01*
X53339Y302779D01*
X53339Y306821D01*
X54886Y310556D01*
X57744Y313414D01*
X61479Y314961D01*
X65521Y314961D01*
X69256Y313414D01*
X72114Y310556D01*
X72620Y309335D01*
X72681Y309235D01*
X72741Y309135D01*
X72746Y309131D01*
X72749Y309126D01*
X72840Y309051D01*
X72928Y308975D01*
X72934Y308973D01*
X72939Y308969D01*
X73047Y308927D01*
X73156Y308883D01*
X73164Y308882D01*
X73168Y308881D01*
X73187Y308880D01*
X73323Y308865D01*
X74900Y308865D01*
X74920Y308868D01*
X74939Y308866D01*
X75041Y308888D01*
X75143Y308904D01*
X75160Y308914D01*
X75180Y308918D01*
X75269Y308971D01*
X75360Y309020D01*
X75374Y309034D01*
X75391Y309044D01*
X75458Y309123D01*
X75530Y309198D01*
X75538Y309216D01*
X75551Y309231D01*
X75590Y309327D01*
X75633Y309421D01*
X75635Y309441D01*
X75643Y309459D01*
X75661Y309626D01*
X75661Y310852D01*
X77150Y312341D01*
X90254Y312341D01*
X91664Y310931D01*
X91680Y310920D01*
X91692Y310904D01*
X91780Y310848D01*
X91863Y310788D01*
X91882Y310782D01*
X91899Y310771D01*
X92000Y310746D01*
X92099Y310716D01*
X92118Y310716D01*
X92138Y310711D01*
X92241Y310719D01*
X92344Y310722D01*
X92363Y310729D01*
X92383Y310730D01*
X92478Y310771D01*
X92575Y310806D01*
X92591Y310819D01*
X92609Y310827D01*
X92740Y310931D01*
X94150Y312341D01*
X107254Y312341D01*
X108743Y310852D01*
X108743Y309626D01*
X108746Y309606D01*
X108744Y309587D01*
X108766Y309485D01*
X108782Y309383D01*
X108792Y309366D01*
X108796Y309346D01*
X108849Y309257D01*
X108898Y309166D01*
X108912Y309152D01*
X108922Y309135D01*
X109001Y309068D01*
X109076Y308996D01*
X109094Y308988D01*
X109109Y308975D01*
X109205Y308936D01*
X109299Y308893D01*
X109319Y308891D01*
X109337Y308883D01*
X109504Y308865D01*
X125627Y308865D01*
X125717Y308879D01*
X125808Y308887D01*
X125838Y308899D01*
X125870Y308904D01*
X125950Y308947D01*
X126034Y308983D01*
X126066Y309009D01*
X126087Y309020D01*
X126109Y309043D01*
X126165Y309088D01*
X133308Y316231D01*
X139612Y316231D01*
X139683Y316242D01*
X139754Y316244D01*
X139803Y316262D01*
X139855Y316270D01*
X139918Y316304D01*
X139985Y316329D01*
X140026Y316361D01*
X140072Y316386D01*
X140121Y316438D01*
X140177Y316482D01*
X140206Y316526D01*
X140241Y316564D01*
X140272Y316629D01*
X140310Y316689D01*
X140323Y316740D01*
X140345Y316787D01*
X140353Y316858D01*
X140371Y316928D01*
X140366Y316980D01*
X140372Y317031D01*
X140357Y317102D01*
X140351Y317173D01*
X140331Y317221D01*
X140320Y317272D01*
X140283Y317333D01*
X140255Y317399D01*
X140210Y317455D01*
X140194Y317483D01*
X140176Y317498D01*
X140150Y317530D01*
X138930Y318751D01*
X137286Y322719D01*
X137286Y325880D01*
X137279Y325925D01*
X137281Y325971D01*
X137259Y326046D01*
X137247Y326122D01*
X137225Y326163D01*
X137212Y326207D01*
X137168Y326271D01*
X137131Y326340D01*
X137098Y326371D01*
X137072Y326409D01*
X137010Y326455D01*
X136953Y326509D01*
X136911Y326528D01*
X136875Y326556D01*
X136801Y326580D01*
X136730Y326613D01*
X136684Y326618D01*
X136641Y326632D01*
X136563Y326631D01*
X136486Y326640D01*
X136441Y326630D01*
X136395Y326630D01*
X136263Y326591D01*
X136245Y326587D01*
X136241Y326585D01*
X136234Y326583D01*
X134608Y325909D01*
X132092Y325909D01*
X129768Y326872D01*
X127990Y328650D01*
X127027Y330974D01*
X127027Y333490D01*
X127990Y335814D01*
X129316Y337140D01*
X129369Y337214D01*
X129429Y337283D01*
X129441Y337314D01*
X129460Y337340D01*
X129487Y337427D01*
X129521Y337512D01*
X129525Y337553D01*
X129532Y337575D01*
X129531Y337607D01*
X129539Y337678D01*
X129539Y345578D01*
X129525Y345668D01*
X129517Y345759D01*
X129505Y345789D01*
X129500Y345821D01*
X129457Y345902D01*
X129421Y345986D01*
X129395Y346018D01*
X129384Y346038D01*
X129361Y346061D01*
X129316Y346116D01*
X115950Y359483D01*
X115950Y383413D01*
X115947Y383433D01*
X115949Y383452D01*
X115927Y383554D01*
X115911Y383656D01*
X115901Y383673D01*
X115897Y383693D01*
X115844Y383782D01*
X115795Y383873D01*
X115781Y383887D01*
X115771Y383904D01*
X115692Y383971D01*
X115617Y384043D01*
X115599Y384051D01*
X115584Y384064D01*
X115488Y384103D01*
X115394Y384146D01*
X115374Y384148D01*
X115356Y384156D01*
X115189Y384174D01*
X48968Y384174D01*
X46512Y386629D01*
X46512Y386630D01*
X45945Y387196D01*
X45851Y387264D01*
X45757Y387334D01*
X45751Y387336D01*
X45746Y387340D01*
X45635Y387374D01*
X45523Y387410D01*
X45517Y387410D01*
X45511Y387412D01*
X45394Y387409D01*
X45277Y387408D01*
X45270Y387406D01*
X45265Y387406D01*
X45247Y387399D01*
X45116Y387361D01*
X42634Y386333D01*
X37884Y386333D01*
X33496Y388151D01*
X30138Y391509D01*
X28320Y395897D01*
X28320Y400647D01*
X30138Y405035D01*
X33496Y408393D01*
X37884Y410211D01*
X42634Y410211D01*
X47022Y408393D01*
X50380Y405035D01*
X52198Y400647D01*
X52198Y395897D01*
X51170Y393415D01*
X51143Y393302D01*
X51114Y393188D01*
X51115Y393182D01*
X51113Y393176D01*
X51124Y393059D01*
X51134Y392943D01*
X51136Y392937D01*
X51137Y392931D01*
X51184Y392823D01*
X51230Y392717D01*
X51234Y392711D01*
X51237Y392706D01*
X51249Y392692D01*
X51335Y392586D01*
X51901Y392019D01*
X51975Y391966D01*
X52045Y391906D01*
X52075Y391894D01*
X52101Y391875D01*
X52188Y391848D01*
X52273Y391814D01*
X52314Y391810D01*
X52336Y391803D01*
X52368Y391804D01*
X52440Y391796D01*
X118756Y391796D01*
X118827Y391807D01*
X118899Y391809D01*
X118948Y391827D01*
X118999Y391835D01*
X119062Y391869D01*
X119130Y391894D01*
X119170Y391926D01*
X119216Y391951D01*
X119266Y392003D01*
X119322Y392047D01*
X119350Y392091D01*
X119386Y392129D01*
X119416Y392194D01*
X119455Y392254D01*
X119467Y392305D01*
X119489Y392352D01*
X119497Y392423D01*
X119515Y392493D01*
X119511Y392545D01*
X119516Y392596D01*
X119501Y392667D01*
X119496Y392738D01*
X119475Y392786D01*
X119464Y392837D01*
X119427Y392898D01*
X119399Y392964D01*
X119355Y393020D01*
X119338Y393048D01*
X119320Y393063D01*
X119295Y393095D01*
X118236Y394154D01*
X118236Y405257D01*
X118235Y405268D01*
X118235Y405274D01*
X118234Y405282D01*
X118235Y405296D01*
X118213Y405398D01*
X118197Y405500D01*
X118187Y405517D01*
X118183Y405537D01*
X118130Y405626D01*
X118081Y405717D01*
X118067Y405731D01*
X118057Y405748D01*
X117978Y405815D01*
X117903Y405887D01*
X117885Y405895D01*
X117870Y405908D01*
X117774Y405947D01*
X117680Y405990D01*
X117660Y405992D01*
X117642Y406000D01*
X117475Y406018D01*
X52524Y406018D01*
X45945Y412596D01*
X45851Y412664D01*
X45757Y412734D01*
X45751Y412736D01*
X45746Y412740D01*
X45635Y412774D01*
X45523Y412810D01*
X45517Y412810D01*
X45511Y412812D01*
X45394Y412809D01*
X45277Y412808D01*
X45270Y412806D01*
X45265Y412806D01*
X45247Y412799D01*
X45116Y412761D01*
X42634Y411733D01*
X37884Y411733D01*
X33496Y413551D01*
X30138Y416909D01*
X28320Y421297D01*
X28320Y426047D01*
X30138Y430435D01*
X33496Y433793D01*
X37884Y435611D01*
X42634Y435611D01*
X47022Y433793D01*
X50380Y430435D01*
X52198Y426047D01*
X52198Y421297D01*
X51170Y418815D01*
X51143Y418702D01*
X51114Y418588D01*
X51115Y418582D01*
X51113Y418576D01*
X51124Y418459D01*
X51134Y418343D01*
X51136Y418337D01*
X51137Y418331D01*
X51184Y418223D01*
X51230Y418117D01*
X51234Y418111D01*
X51237Y418106D01*
X51249Y418092D01*
X51335Y417986D01*
X55458Y413863D01*
X55531Y413810D01*
X55601Y413750D01*
X55631Y413738D01*
X55657Y413719D01*
X55744Y413692D01*
X55829Y413658D01*
X55870Y413654D01*
X55892Y413647D01*
X55925Y413648D01*
X55996Y413640D01*
X120958Y413640D01*
X125858Y408740D01*
X125858Y397626D01*
X125863Y397591D01*
X125863Y397583D01*
X125872Y397540D01*
X125872Y397536D01*
X125880Y397445D01*
X125892Y397415D01*
X125897Y397383D01*
X125912Y397356D01*
X125915Y397342D01*
X125944Y397293D01*
X125976Y397218D01*
X126002Y397186D01*
X126013Y397166D01*
X126030Y397149D01*
X126041Y397131D01*
X126056Y397118D01*
X126081Y397088D01*
X131150Y392019D01*
X131223Y391966D01*
X131293Y391906D01*
X131323Y391894D01*
X131349Y391875D01*
X131436Y391848D01*
X131521Y391814D01*
X131562Y391810D01*
X131584Y391803D01*
X131617Y391804D01*
X131688Y391796D01*
X140247Y391796D01*
X140318Y391807D01*
X140389Y391809D01*
X140438Y391827D01*
X140490Y391835D01*
X140553Y391869D01*
X140620Y391894D01*
X140661Y391926D01*
X140707Y391951D01*
X140756Y392003D01*
X140812Y392047D01*
X140841Y392091D01*
X140876Y392129D01*
X140907Y392194D01*
X140945Y392254D01*
X140958Y392305D01*
X140980Y392352D01*
X140988Y392423D01*
X141006Y392493D01*
X141001Y392545D01*
X141007Y392596D01*
X140992Y392667D01*
X140986Y392738D01*
X140966Y392786D01*
X140955Y392837D01*
X140918Y392898D01*
X140890Y392964D01*
X140845Y393020D01*
X140829Y393048D01*
X140811Y393063D01*
X140785Y393095D01*
X138930Y394951D01*
X137286Y398919D01*
X137286Y403233D01*
X137305Y403274D01*
X137314Y403351D01*
X137332Y403427D01*
X137327Y403473D01*
X137333Y403518D01*
X137316Y403594D01*
X137309Y403672D01*
X137290Y403714D01*
X137280Y403759D01*
X137240Y403826D01*
X137209Y403897D01*
X137178Y403931D01*
X137154Y403970D01*
X137095Y404020D01*
X137042Y404078D01*
X137002Y404100D01*
X136967Y404130D01*
X136895Y404159D01*
X136827Y404196D01*
X136782Y404205D01*
X136739Y404222D01*
X136603Y404237D01*
X136585Y404240D01*
X136580Y404239D01*
X136572Y404240D01*
X133771Y404240D01*
X129158Y408853D01*
X129158Y444257D01*
X129144Y444347D01*
X129136Y444438D01*
X129124Y444468D01*
X129119Y444500D01*
X129076Y444581D01*
X129040Y444665D01*
X129014Y444697D01*
X129003Y444717D01*
X128980Y444740D01*
X128935Y444795D01*
X128692Y445038D01*
X128619Y445091D01*
X128549Y445151D01*
X128519Y445163D01*
X128493Y445182D01*
X128406Y445209D01*
X128321Y445243D01*
X128280Y445247D01*
X128258Y445254D01*
X128225Y445253D01*
X128154Y445261D01*
X52112Y445261D01*
X51997Y445242D01*
X51881Y445225D01*
X51875Y445223D01*
X51869Y445222D01*
X51766Y445167D01*
X51661Y445114D01*
X51657Y445109D01*
X51651Y445106D01*
X51572Y445022D01*
X51489Y444938D01*
X51486Y444932D01*
X51482Y444928D01*
X51474Y444911D01*
X51408Y444791D01*
X50380Y442309D01*
X47022Y438951D01*
X42634Y437133D01*
X37884Y437133D01*
X33496Y438951D01*
X30138Y442309D01*
X28320Y446697D01*
X28320Y451447D01*
X30138Y455835D01*
X33496Y459193D01*
X37884Y461011D01*
X42634Y461011D01*
X47022Y459193D01*
X50380Y455835D01*
X51408Y453353D01*
X51470Y453253D01*
X51530Y453153D01*
X51535Y453149D01*
X51538Y453144D01*
X51628Y453069D01*
X51717Y452993D01*
X51723Y452991D01*
X51727Y452987D01*
X51835Y452945D01*
X51945Y452901D01*
X51952Y452900D01*
X51957Y452899D01*
X51975Y452898D01*
X52112Y452883D01*
X131626Y452883D01*
X131923Y452586D01*
X131981Y452545D01*
X132033Y452495D01*
X132080Y452473D01*
X132122Y452443D01*
X132191Y452422D01*
X132256Y452392D01*
X132308Y452386D01*
X132358Y452371D01*
X132429Y452372D01*
X132500Y452365D01*
X132551Y452376D01*
X132603Y452377D01*
X132671Y452402D01*
X132741Y452417D01*
X132786Y452443D01*
X132834Y452461D01*
X132890Y452506D01*
X132952Y452543D01*
X132986Y452583D01*
X133026Y452615D01*
X133065Y452675D01*
X133112Y452730D01*
X133131Y452778D01*
X133159Y452822D01*
X133177Y452891D01*
X133204Y452958D01*
X133212Y453029D01*
X133220Y453060D01*
X133218Y453084D01*
X133222Y453125D01*
X133222Y469784D01*
X133208Y469874D01*
X133200Y469965D01*
X133188Y469995D01*
X133183Y470027D01*
X133140Y470108D01*
X133104Y470192D01*
X133078Y470224D01*
X133067Y470244D01*
X133044Y470267D01*
X132999Y470322D01*
X132883Y470438D01*
X132810Y470491D01*
X132740Y470551D01*
X132710Y470563D01*
X132684Y470582D01*
X132597Y470609D01*
X132512Y470643D01*
X132471Y470647D01*
X132449Y470654D01*
X132416Y470653D01*
X132345Y470661D01*
X52112Y470661D01*
X51997Y470642D01*
X51881Y470625D01*
X51875Y470623D01*
X51869Y470622D01*
X51766Y470567D01*
X51661Y470514D01*
X51657Y470509D01*
X51651Y470506D01*
X51571Y470422D01*
X51489Y470338D01*
X51486Y470332D01*
X51482Y470328D01*
X51474Y470311D01*
X51408Y470191D01*
X50380Y467709D01*
X47022Y464351D01*
X42634Y462533D01*
X37884Y462533D01*
X33496Y464351D01*
X30138Y467709D01*
X28320Y472097D01*
X28320Y476847D01*
X30138Y481235D01*
X33496Y484593D01*
X37884Y486411D01*
X42634Y486411D01*
X47022Y484593D01*
X50380Y481235D01*
X51408Y478753D01*
X51470Y478653D01*
X51530Y478553D01*
X51535Y478549D01*
X51538Y478544D01*
X51628Y478469D01*
X51717Y478393D01*
X51723Y478391D01*
X51727Y478387D01*
X51835Y478345D01*
X51945Y478301D01*
X51952Y478300D01*
X51957Y478299D01*
X51975Y478298D01*
X52112Y478283D01*
X135817Y478283D01*
X136052Y478048D01*
X136062Y478041D01*
X136069Y478032D01*
X136162Y477969D01*
X136252Y477905D01*
X136263Y477901D01*
X136273Y477895D01*
X136380Y477865D01*
X136487Y477832D01*
X136499Y477833D01*
X136510Y477830D01*
X136621Y477836D01*
X136733Y477839D01*
X136744Y477843D01*
X136756Y477844D01*
X136858Y477885D01*
X136964Y477923D01*
X136973Y477931D01*
X136984Y477935D01*
X137069Y478007D01*
X137156Y478077D01*
X137162Y478087D01*
X137171Y478095D01*
X137228Y478190D01*
X137289Y478284D01*
X137292Y478296D01*
X137298Y478306D01*
X137342Y478468D01*
X137552Y479794D01*
X138077Y481410D01*
X138849Y482924D01*
X139848Y484299D01*
X141049Y485500D01*
X142424Y486499D01*
X143938Y487271D01*
X145554Y487796D01*
X146559Y487955D01*
X146559Y478028D01*
X146562Y478008D01*
X146560Y477989D01*
X146582Y477887D01*
X146599Y477785D01*
X146608Y477768D01*
X146612Y477748D01*
X146665Y477659D01*
X146714Y477568D01*
X146728Y477554D01*
X146738Y477537D01*
X146817Y477470D01*
X146892Y477399D01*
X146910Y477390D01*
X146925Y477377D01*
X147021Y477339D01*
X147115Y477295D01*
X147135Y477293D01*
X147153Y477285D01*
X147320Y477267D01*
X148083Y477267D01*
X148083Y477265D01*
X147320Y477265D01*
X147300Y477262D01*
X147281Y477264D01*
X147179Y477242D01*
X147077Y477225D01*
X147060Y477216D01*
X147040Y477212D01*
X146951Y477159D01*
X146860Y477110D01*
X146846Y477096D01*
X146829Y477086D01*
X146762Y477007D01*
X146691Y476932D01*
X146682Y476914D01*
X146669Y476899D01*
X146630Y476803D01*
X146587Y476709D01*
X146585Y476689D01*
X146577Y476671D01*
X146559Y476504D01*
X146559Y466577D01*
X145554Y466736D01*
X143938Y467261D01*
X142424Y468033D01*
X142052Y468302D01*
X142042Y468308D01*
X142033Y468316D01*
X141932Y468363D01*
X141833Y468413D01*
X141821Y468415D01*
X141810Y468420D01*
X141700Y468432D01*
X141589Y468448D01*
X141577Y468446D01*
X141566Y468447D01*
X141457Y468423D01*
X141347Y468403D01*
X141337Y468397D01*
X141325Y468395D01*
X141230Y468338D01*
X141132Y468283D01*
X141124Y468275D01*
X141114Y468268D01*
X141042Y468184D01*
X140967Y468102D01*
X140962Y468091D01*
X140954Y468082D01*
X140912Y467978D01*
X140868Y467876D01*
X140867Y467865D01*
X140862Y467853D01*
X140844Y467687D01*
X140844Y461692D01*
X140851Y461647D01*
X140849Y461601D01*
X140871Y461526D01*
X140883Y461450D01*
X140905Y461409D01*
X140918Y461365D01*
X140962Y461301D01*
X140999Y461232D01*
X141032Y461201D01*
X141058Y461163D01*
X141121Y461116D01*
X141177Y461063D01*
X141219Y461043D01*
X141255Y461016D01*
X141329Y460992D01*
X141400Y460959D01*
X141446Y460954D01*
X141489Y460940D01*
X141567Y460941D01*
X141644Y460932D01*
X141689Y460942D01*
X141735Y460942D01*
X141867Y460980D01*
X141885Y460984D01*
X141889Y460987D01*
X141896Y460989D01*
X145935Y462662D01*
X150229Y462662D01*
X154197Y461018D01*
X157234Y457981D01*
X158878Y454013D01*
X158878Y449719D01*
X157234Y445751D01*
X154197Y442714D01*
X150229Y441070D01*
X145935Y441070D01*
X141896Y442743D01*
X141852Y442753D01*
X141810Y442773D01*
X141733Y442781D01*
X141657Y442799D01*
X141611Y442795D01*
X141566Y442800D01*
X141489Y442783D01*
X141412Y442776D01*
X141370Y442757D01*
X141325Y442748D01*
X141258Y442708D01*
X141187Y442676D01*
X141153Y442645D01*
X141114Y442621D01*
X141063Y442562D01*
X141006Y442510D01*
X140984Y442469D01*
X140954Y442435D01*
X140925Y442362D01*
X140888Y442294D01*
X140879Y442249D01*
X140862Y442206D01*
X140847Y442070D01*
X140844Y442052D01*
X140845Y442047D01*
X140844Y442040D01*
X140844Y436292D01*
X140851Y436247D01*
X140849Y436201D01*
X140871Y436126D01*
X140883Y436050D01*
X140905Y436009D01*
X140918Y435965D01*
X140962Y435901D01*
X140999Y435832D01*
X141032Y435801D01*
X141058Y435763D01*
X141121Y435716D01*
X141177Y435663D01*
X141219Y435643D01*
X141255Y435616D01*
X141329Y435592D01*
X141400Y435559D01*
X141446Y435554D01*
X141489Y435540D01*
X141567Y435541D01*
X141644Y435532D01*
X141689Y435542D01*
X141735Y435542D01*
X141867Y435580D01*
X141885Y435584D01*
X141889Y435587D01*
X141896Y435589D01*
X145935Y437262D01*
X150229Y437262D01*
X154197Y435618D01*
X157234Y432581D01*
X158878Y428613D01*
X158878Y424319D01*
X157234Y420351D01*
X154156Y417273D01*
X154132Y417260D01*
X154116Y417243D01*
X154088Y417225D01*
X154058Y417190D01*
X154022Y417161D01*
X153989Y417110D01*
X153962Y417081D01*
X153955Y417065D01*
X153931Y417036D01*
X153914Y416993D01*
X153889Y416954D01*
X153873Y416889D01*
X153859Y416858D01*
X153857Y416845D01*
X153842Y416806D01*
X153841Y416760D01*
X153829Y416716D01*
X153835Y416644D01*
X153832Y416614D01*
X153834Y416603D01*
X153832Y416561D01*
X153845Y416516D01*
X153848Y416471D01*
X153878Y416402D01*
X153884Y416373D01*
X153889Y416366D01*
X153901Y416324D01*
X153927Y416287D01*
X153945Y416244D01*
X154009Y416164D01*
X154010Y416162D01*
X154011Y416162D01*
X154030Y416138D01*
X154041Y416122D01*
X154045Y416119D01*
X154050Y416113D01*
X156692Y413471D01*
X163129Y407034D01*
X163167Y407007D01*
X163198Y406973D01*
X163266Y406935D01*
X163329Y406890D01*
X163373Y406876D01*
X163413Y406854D01*
X163490Y406841D01*
X163564Y406818D01*
X163610Y406819D01*
X163655Y406811D01*
X163732Y406822D01*
X163810Y406824D01*
X163853Y406840D01*
X163899Y406847D01*
X163968Y406882D01*
X164041Y406908D01*
X164077Y406937D01*
X164118Y406958D01*
X164172Y407014D01*
X164233Y407062D01*
X164258Y407101D01*
X164290Y407134D01*
X164300Y407151D01*
X167367Y410218D01*
X171335Y411862D01*
X175629Y411862D01*
X179597Y410218D01*
X182634Y407181D01*
X184278Y403213D01*
X184278Y398919D01*
X182634Y394951D01*
X179597Y391914D01*
X175629Y390270D01*
X171566Y390270D01*
X171495Y390259D01*
X171423Y390257D01*
X171374Y390239D01*
X171323Y390231D01*
X171260Y390197D01*
X171192Y390172D01*
X171152Y390140D01*
X171106Y390115D01*
X171056Y390063D01*
X171000Y390019D01*
X170972Y389975D01*
X170936Y389937D01*
X170906Y389872D01*
X170867Y389812D01*
X170855Y389761D01*
X170833Y389714D01*
X170825Y389643D01*
X170807Y389573D01*
X170811Y389521D01*
X170806Y389470D01*
X170821Y389399D01*
X170826Y389328D01*
X170847Y389280D01*
X170858Y389229D01*
X170895Y389168D01*
X170923Y389102D01*
X170967Y389046D01*
X170984Y389018D01*
X171002Y389003D01*
X171027Y388971D01*
X173314Y386685D01*
X173388Y386632D01*
X173457Y386572D01*
X173487Y386560D01*
X173513Y386541D01*
X173600Y386514D01*
X173685Y386480D01*
X173726Y386476D01*
X173748Y386469D01*
X173781Y386470D01*
X173852Y386462D01*
X175629Y386462D01*
X179597Y384818D01*
X182634Y381781D01*
X184278Y377813D01*
X184278Y373519D01*
X182634Y369551D01*
X179597Y366514D01*
X175629Y364870D01*
X171335Y364870D01*
X167367Y366514D01*
X164330Y369551D01*
X162686Y373519D01*
X162686Y377813D01*
X164330Y381781D01*
X165346Y382797D01*
X165358Y382814D01*
X165373Y382826D01*
X165429Y382913D01*
X165489Y382997D01*
X165495Y383016D01*
X165506Y383033D01*
X165531Y383134D01*
X165562Y383232D01*
X165561Y383252D01*
X165566Y383272D01*
X165558Y383375D01*
X165555Y383478D01*
X165549Y383497D01*
X165547Y383517D01*
X165507Y383612D01*
X165471Y383709D01*
X165458Y383725D01*
X165451Y383743D01*
X165346Y383874D01*
X165268Y383951D01*
X165194Y384005D01*
X165125Y384064D01*
X165095Y384076D01*
X165069Y384095D01*
X164981Y384122D01*
X164897Y384156D01*
X164856Y384160D01*
X164834Y384167D01*
X164801Y384166D01*
X164730Y384174D01*
X156679Y384174D01*
X156608Y384163D01*
X156537Y384161D01*
X156488Y384143D01*
X156436Y384135D01*
X156373Y384101D01*
X156306Y384076D01*
X156265Y384044D01*
X156219Y384019D01*
X156170Y383967D01*
X156114Y383923D01*
X156085Y383879D01*
X156050Y383841D01*
X156019Y383776D01*
X155981Y383716D01*
X155968Y383665D01*
X155946Y383618D01*
X155938Y383547D01*
X155920Y383477D01*
X155925Y383425D01*
X155919Y383374D01*
X155934Y383303D01*
X155940Y383232D01*
X155960Y383184D01*
X155971Y383133D01*
X156008Y383072D01*
X156036Y383006D01*
X156081Y382950D01*
X156097Y382922D01*
X156115Y382907D01*
X156141Y382875D01*
X157234Y381781D01*
X158878Y377813D01*
X158878Y373519D01*
X157234Y369551D01*
X154197Y366514D01*
X150229Y364870D01*
X145935Y364870D01*
X141967Y366514D01*
X138930Y369551D01*
X137286Y373519D01*
X137286Y377813D01*
X138930Y381781D01*
X140023Y382875D01*
X140065Y382933D01*
X140114Y382985D01*
X140136Y383032D01*
X140167Y383074D01*
X140188Y383143D01*
X140218Y383208D01*
X140224Y383260D01*
X140239Y383310D01*
X140237Y383381D01*
X140245Y383452D01*
X140234Y383503D01*
X140233Y383555D01*
X140208Y383623D01*
X140193Y383693D01*
X140166Y383738D01*
X140148Y383786D01*
X140103Y383842D01*
X140067Y383904D01*
X140027Y383938D01*
X139995Y383978D01*
X139934Y384017D01*
X139880Y384064D01*
X139832Y384083D01*
X139788Y384111D01*
X139718Y384129D01*
X139652Y384156D01*
X139580Y384164D01*
X139549Y384172D01*
X139526Y384170D01*
X139485Y384174D01*
X128216Y384174D01*
X124871Y387519D01*
X124813Y387560D01*
X124761Y387610D01*
X124714Y387632D01*
X124672Y387662D01*
X124603Y387683D01*
X124538Y387713D01*
X124486Y387719D01*
X124436Y387734D01*
X124365Y387733D01*
X124294Y387740D01*
X124243Y387729D01*
X124191Y387728D01*
X124123Y387703D01*
X124053Y387688D01*
X124008Y387662D01*
X123960Y387644D01*
X123904Y387599D01*
X123842Y387562D01*
X123808Y387522D01*
X123768Y387490D01*
X123729Y387430D01*
X123682Y387375D01*
X123663Y387327D01*
X123635Y387283D01*
X123617Y387214D01*
X123590Y387147D01*
X123582Y387076D01*
X123574Y387044D01*
X123576Y387021D01*
X123572Y386980D01*
X123572Y362955D01*
X123586Y362865D01*
X123594Y362774D01*
X123606Y362744D01*
X123611Y362712D01*
X123654Y362631D01*
X123690Y362547D01*
X123716Y362515D01*
X123727Y362495D01*
X123750Y362472D01*
X123795Y362417D01*
X137245Y348966D01*
X137319Y348913D01*
X137389Y348853D01*
X137419Y348841D01*
X137445Y348822D01*
X137532Y348795D01*
X137617Y348761D01*
X137658Y348757D01*
X137680Y348750D01*
X137712Y348751D01*
X137784Y348743D01*
X147320Y348743D01*
X147340Y348746D01*
X147359Y348744D01*
X147461Y348766D01*
X147563Y348783D01*
X147580Y348792D01*
X147600Y348796D01*
X147689Y348849D01*
X147780Y348898D01*
X147794Y348912D01*
X147811Y348922D01*
X147878Y349001D01*
X147949Y349076D01*
X147958Y349094D01*
X147971Y349109D01*
X148009Y349205D01*
X148053Y349299D01*
X148055Y349319D01*
X148063Y349337D01*
X148081Y349504D01*
X148081Y350267D01*
X148083Y350267D01*
X148083Y349504D01*
X148086Y349484D01*
X148084Y349465D01*
X148106Y349363D01*
X148123Y349261D01*
X148132Y349244D01*
X148136Y349224D01*
X148189Y349135D01*
X148238Y349044D01*
X148252Y349030D01*
X148262Y349013D01*
X148341Y348946D01*
X148416Y348875D01*
X148434Y348866D01*
X148449Y348853D01*
X148545Y348814D01*
X148639Y348771D01*
X148659Y348769D01*
X148677Y348761D01*
X148844Y348743D01*
X158771Y348743D01*
X158612Y347738D01*
X158087Y346122D01*
X157315Y344608D01*
X156316Y343233D01*
X155115Y342032D01*
X154012Y341230D01*
X154006Y341224D01*
X153999Y341220D01*
X153920Y341137D01*
X153839Y341055D01*
X153835Y341048D01*
X153830Y341042D01*
X153781Y340938D01*
X153730Y340834D01*
X153729Y340826D01*
X153726Y340819D01*
X153713Y340705D01*
X153698Y340590D01*
X153700Y340582D01*
X153699Y340575D01*
X153723Y340462D01*
X153745Y340349D01*
X153749Y340342D01*
X153751Y340334D01*
X153810Y340235D01*
X153867Y340135D01*
X153873Y340130D01*
X153877Y340123D01*
X153965Y340048D01*
X154051Y339971D01*
X154058Y339968D01*
X154064Y339963D01*
X154171Y339920D01*
X154277Y339875D01*
X154285Y339874D01*
X154292Y339871D01*
X154459Y339853D01*
X157364Y339853D01*
X157454Y339867D01*
X157545Y339875D01*
X157575Y339887D01*
X157607Y339892D01*
X157688Y339935D01*
X157772Y339971D01*
X157804Y339997D01*
X157824Y340008D01*
X157847Y340031D01*
X157902Y340076D01*
X163281Y345454D01*
X163349Y345549D01*
X163419Y345643D01*
X163421Y345649D01*
X163425Y345654D01*
X163459Y345765D01*
X163495Y345877D01*
X163495Y345883D01*
X163497Y345889D01*
X163494Y346006D01*
X163493Y346123D01*
X163491Y346130D01*
X163491Y346135D01*
X163484Y346152D01*
X163446Y346284D01*
X162686Y348119D01*
X162686Y352413D01*
X164330Y356381D01*
X167367Y359418D01*
X171335Y361062D01*
X175629Y361062D01*
X179597Y359418D01*
X182634Y356381D01*
X184278Y352413D01*
X184278Y348119D01*
X182634Y344151D01*
X179597Y341114D01*
X175629Y339470D01*
X171335Y339470D01*
X169500Y340230D01*
X169386Y340257D01*
X169273Y340285D01*
X169267Y340285D01*
X169260Y340286D01*
X169144Y340275D01*
X169028Y340266D01*
X169022Y340264D01*
X169016Y340263D01*
X168908Y340215D01*
X168801Y340170D01*
X168795Y340165D01*
X168791Y340163D01*
X168777Y340151D01*
X168670Y340065D01*
X163292Y334686D01*
X160836Y332231D01*
X157822Y332231D01*
X157751Y332220D01*
X157679Y332218D01*
X157630Y332200D01*
X157579Y332192D01*
X157516Y332158D01*
X157448Y332133D01*
X157408Y332101D01*
X157362Y332076D01*
X157312Y332024D01*
X157256Y331980D01*
X157228Y331936D01*
X157193Y331898D01*
X157162Y331833D01*
X157123Y331773D01*
X157111Y331722D01*
X157089Y331675D01*
X157081Y331604D01*
X157063Y331534D01*
X157068Y331482D01*
X157062Y331431D01*
X157077Y331360D01*
X157083Y331289D01*
X157103Y331241D01*
X157114Y331190D01*
X157151Y331129D01*
X157179Y331063D01*
X157224Y331007D01*
X158878Y327013D01*
X158878Y322719D01*
X157234Y318751D01*
X156014Y317530D01*
X155972Y317472D01*
X155923Y317420D01*
X155901Y317373D01*
X155870Y317331D01*
X155849Y317262D01*
X155819Y317197D01*
X155813Y317145D01*
X155798Y317095D01*
X155800Y317024D01*
X155792Y316953D01*
X155803Y316902D01*
X155804Y316850D01*
X155829Y316782D01*
X155844Y316712D01*
X155871Y316667D01*
X155889Y316619D01*
X155934Y316563D01*
X155970Y316501D01*
X156010Y316467D01*
X156042Y316427D01*
X156103Y316388D01*
X156157Y316341D01*
X156205Y316322D01*
X156249Y316294D01*
X156319Y316276D01*
X156385Y316249D01*
X156457Y316241D01*
X156488Y316233D01*
X156511Y316235D01*
X156552Y316231D01*
X158783Y316231D01*
X158873Y316245D01*
X158964Y316253D01*
X158994Y316265D01*
X159026Y316270D01*
X159106Y316313D01*
X159190Y316349D01*
X159222Y316375D01*
X159243Y316386D01*
X159265Y316409D01*
X159321Y316454D01*
X163176Y320308D01*
X163244Y320404D01*
X163314Y320497D01*
X163316Y320503D01*
X163320Y320508D01*
X163354Y320619D01*
X163390Y320731D01*
X163390Y320737D01*
X163392Y320743D01*
X163389Y320860D01*
X163388Y320977D01*
X163386Y320984D01*
X163386Y320989D01*
X163379Y321006D01*
X163341Y321138D01*
X162686Y322719D01*
X162686Y327013D01*
X164330Y330981D01*
X167367Y334018D01*
X171335Y335662D01*
X175629Y335662D01*
X179597Y334018D01*
X182634Y330981D01*
X182868Y330417D01*
X182930Y330317D01*
X182990Y330217D01*
X182994Y330213D01*
X182998Y330208D01*
X183088Y330133D01*
X183176Y330057D01*
X183182Y330055D01*
X183187Y330051D01*
X183296Y330009D01*
X183405Y329965D01*
X183412Y329964D01*
X183417Y329963D01*
X183435Y329962D01*
X183571Y329947D01*
X186636Y329947D01*
X194692Y321891D01*
X194692Y226956D01*
X194706Y226866D01*
X194714Y226775D01*
X194726Y226745D01*
X194731Y226713D01*
X194774Y226632D01*
X194810Y226549D01*
X194836Y226516D01*
X194847Y226496D01*
X194870Y226474D01*
X194915Y226418D01*
X211701Y209632D01*
X211701Y180387D01*
X211704Y180367D01*
X211702Y180348D01*
X211724Y180246D01*
X211740Y180144D01*
X211750Y180127D01*
X211754Y180107D01*
X211807Y180018D01*
X211856Y179927D01*
X211870Y179913D01*
X211880Y179896D01*
X211959Y179829D01*
X212034Y179757D01*
X212052Y179749D01*
X212067Y179736D01*
X212163Y179697D01*
X212257Y179654D01*
X212277Y179652D01*
X212295Y179644D01*
X212462Y179626D01*
X216728Y179626D01*
X218217Y178137D01*
X218217Y166033D01*
X216728Y164544D01*
X216018Y164544D01*
X215998Y164541D01*
X215979Y164543D01*
X215877Y164521D01*
X215775Y164505D01*
X215758Y164495D01*
X215738Y164491D01*
X215649Y164438D01*
X215558Y164389D01*
X215544Y164375D01*
X215527Y164365D01*
X215460Y164286D01*
X215388Y164211D01*
X215380Y164193D01*
X215367Y164178D01*
X215328Y164081D01*
X215285Y163988D01*
X215283Y163968D01*
X215275Y163950D01*
X215257Y163783D01*
X215257Y155368D01*
X215260Y155348D01*
X215258Y155329D01*
X215280Y155227D01*
X215296Y155125D01*
X215306Y155108D01*
X215310Y155088D01*
X215363Y154999D01*
X215412Y154908D01*
X215426Y154894D01*
X215436Y154877D01*
X215515Y154810D01*
X215590Y154738D01*
X215608Y154730D01*
X215623Y154717D01*
X215719Y154678D01*
X215813Y154635D01*
X215833Y154633D01*
X215851Y154625D01*
X216018Y154607D01*
X216982Y154607D01*
X218471Y153118D01*
X218471Y141014D01*
X216982Y139525D01*
X216272Y139525D01*
X216252Y139522D01*
X216233Y139524D01*
X216131Y139502D01*
X216029Y139486D01*
X216012Y139476D01*
X215992Y139472D01*
X215903Y139419D01*
X215812Y139370D01*
X215798Y139356D01*
X215781Y139346D01*
X215714Y139267D01*
X215642Y139192D01*
X215634Y139174D01*
X215621Y139159D01*
X215582Y139063D01*
X215539Y138969D01*
X215537Y138949D01*
X215529Y138931D01*
X215511Y138764D01*
X215511Y123870D01*
X213082Y121442D01*
X213041Y121384D01*
X212991Y121332D01*
X212969Y121285D01*
X212939Y121243D01*
X212918Y121174D01*
X212888Y121109D01*
X212882Y121057D01*
X212867Y121007D01*
X212868Y120936D01*
X212861Y120865D01*
X212872Y120814D01*
X212873Y120762D01*
X212898Y120694D01*
X212913Y120624D01*
X212940Y120579D01*
X212957Y120531D01*
X213002Y120475D01*
X213039Y120413D01*
X213079Y120379D01*
X213111Y120339D01*
X213171Y120300D01*
X213226Y120253D01*
X213274Y120234D01*
X213318Y120206D01*
X213387Y120188D01*
X213454Y120161D01*
X213525Y120153D01*
X213557Y120145D01*
X213580Y120147D01*
X213621Y120143D01*
X222304Y120143D01*
X222421Y120162D01*
X222539Y120180D01*
X222543Y120182D01*
X222547Y120182D01*
X222651Y120238D01*
X222758Y120293D01*
X222761Y120296D01*
X222764Y120298D01*
X222846Y120383D01*
X222929Y120469D01*
X222931Y120473D01*
X222934Y120476D01*
X222984Y120583D01*
X223035Y120691D01*
X223036Y120695D01*
X223037Y120699D01*
X223050Y120817D01*
X223065Y120935D01*
X223064Y120940D01*
X223064Y120943D01*
X223062Y120957D01*
X223040Y121101D01*
X222854Y121793D01*
X222854Y125604D01*
X230133Y125604D01*
X230153Y125607D01*
X230172Y125605D01*
X230274Y125627D01*
X230376Y125644D01*
X230393Y125653D01*
X230413Y125657D01*
X230502Y125710D01*
X230593Y125759D01*
X230607Y125773D01*
X230624Y125783D01*
X230691Y125862D01*
X230762Y125937D01*
X230771Y125955D01*
X230784Y125970D01*
X230823Y126066D01*
X230866Y126160D01*
X230868Y126180D01*
X230876Y126198D01*
X230894Y126365D01*
X230894Y127128D01*
X231657Y127128D01*
X231677Y127131D01*
X231696Y127129D01*
X231798Y127151D01*
X231900Y127168D01*
X231917Y127177D01*
X231937Y127181D01*
X232026Y127234D01*
X232117Y127283D01*
X232131Y127297D01*
X232148Y127307D01*
X232215Y127386D01*
X232286Y127461D01*
X232295Y127479D01*
X232308Y127494D01*
X232347Y127590D01*
X232390Y127684D01*
X232392Y127704D01*
X232400Y127722D01*
X232418Y127889D01*
X232418Y134668D01*
X236729Y134668D01*
X237376Y134495D01*
X237955Y134160D01*
X238428Y133687D01*
X238640Y133320D01*
X238716Y133227D01*
X238789Y133135D01*
X238793Y133133D01*
X238796Y133130D01*
X238897Y133066D01*
X238996Y133002D01*
X239000Y133001D01*
X239004Y132999D01*
X239120Y132971D01*
X239235Y132942D01*
X239239Y132943D01*
X239243Y132942D01*
X239362Y132952D01*
X239480Y132961D01*
X239484Y132963D01*
X239488Y132963D01*
X239598Y133011D01*
X239706Y133058D01*
X239710Y133061D01*
X239713Y133062D01*
X239724Y133072D01*
X239837Y133163D01*
X241343Y134668D01*
X254447Y134668D01*
X255936Y133179D01*
X255936Y132969D01*
X255939Y132949D01*
X255937Y132930D01*
X255959Y132828D01*
X255975Y132726D01*
X255985Y132709D01*
X255989Y132689D01*
X256042Y132600D01*
X256091Y132509D01*
X256105Y132495D01*
X256115Y132478D01*
X256194Y132411D01*
X256269Y132339D01*
X256287Y132331D01*
X256302Y132318D01*
X256398Y132279D01*
X256492Y132236D01*
X256512Y132234D01*
X256530Y132226D01*
X256697Y132208D01*
X264324Y132208D01*
X264344Y132211D01*
X264363Y132209D01*
X264465Y132231D01*
X264567Y132247D01*
X264584Y132257D01*
X264604Y132261D01*
X264693Y132314D01*
X264784Y132363D01*
X264798Y132377D01*
X264815Y132387D01*
X264882Y132466D01*
X264954Y132541D01*
X264962Y132559D01*
X264975Y132574D01*
X265014Y132670D01*
X265057Y132764D01*
X265059Y132784D01*
X265067Y132802D01*
X265085Y132969D01*
X265085Y134446D01*
X266574Y135935D01*
X273558Y135935D01*
X273578Y135938D01*
X273597Y135936D01*
X273699Y135958D01*
X273801Y135974D01*
X273818Y135984D01*
X273838Y135988D01*
X273927Y136041D01*
X274018Y136090D01*
X274032Y136104D01*
X274049Y136114D01*
X274116Y136193D01*
X274188Y136268D01*
X274196Y136286D01*
X274209Y136301D01*
X274248Y136397D01*
X274291Y136491D01*
X274293Y136511D01*
X274301Y136529D01*
X274319Y136696D01*
X274319Y139715D01*
X274305Y139805D01*
X274297Y139896D01*
X274285Y139925D01*
X274280Y139957D01*
X274237Y140038D01*
X274201Y140122D01*
X274175Y140154D01*
X274164Y140175D01*
X274141Y140197D01*
X274096Y140253D01*
X274040Y140309D01*
X273077Y142633D01*
X273077Y145149D01*
X274040Y147473D01*
X275818Y149251D01*
X278142Y150214D01*
X280658Y150214D01*
X282982Y149251D01*
X284760Y147473D01*
X285723Y145149D01*
X285723Y142633D01*
X284760Y140309D01*
X284704Y140253D01*
X284651Y140179D01*
X284591Y140110D01*
X284579Y140079D01*
X284560Y140053D01*
X284533Y139966D01*
X284499Y139881D01*
X284495Y139840D01*
X284488Y139818D01*
X284489Y139786D01*
X284481Y139715D01*
X284481Y136696D01*
X284484Y136676D01*
X284482Y136657D01*
X284504Y136555D01*
X284520Y136453D01*
X284530Y136436D01*
X284534Y136416D01*
X284587Y136327D01*
X284636Y136236D01*
X284650Y136222D01*
X284660Y136205D01*
X284739Y136138D01*
X284814Y136066D01*
X284832Y136058D01*
X284847Y136045D01*
X284943Y136006D01*
X285037Y135963D01*
X285057Y135961D01*
X285075Y135953D01*
X285242Y135935D01*
X290678Y135935D01*
X292167Y134446D01*
X292167Y132969D01*
X292170Y132949D01*
X292168Y132930D01*
X292190Y132828D01*
X292206Y132726D01*
X292216Y132709D01*
X292220Y132689D01*
X292273Y132600D01*
X292322Y132509D01*
X292336Y132495D01*
X292346Y132478D01*
X292425Y132411D01*
X292500Y132339D01*
X292518Y132331D01*
X292533Y132318D01*
X292629Y132279D01*
X292723Y132236D01*
X292743Y132234D01*
X292761Y132226D01*
X292928Y132208D01*
X295163Y132208D01*
X295253Y132222D01*
X295344Y132230D01*
X295373Y132242D01*
X295405Y132247D01*
X295486Y132290D01*
X295570Y132326D01*
X295602Y132352D01*
X295623Y132363D01*
X295645Y132386D01*
X295701Y132431D01*
X295757Y132487D01*
X298081Y133450D01*
X300597Y133450D01*
X302921Y132487D01*
X304699Y130709D01*
X305662Y128385D01*
X305662Y125869D01*
X304699Y123545D01*
X302921Y121767D01*
X300597Y120804D01*
X298081Y120804D01*
X295757Y121767D01*
X295701Y121823D01*
X295627Y121876D01*
X295558Y121936D01*
X295527Y121948D01*
X295501Y121967D01*
X295414Y121994D01*
X295329Y122028D01*
X295288Y122032D01*
X295266Y122039D01*
X295234Y122038D01*
X295163Y122046D01*
X292928Y122046D01*
X292908Y122043D01*
X292889Y122045D01*
X292787Y122023D01*
X292685Y122007D01*
X292668Y121997D01*
X292648Y121993D01*
X292559Y121940D01*
X292468Y121891D01*
X292454Y121877D01*
X292437Y121867D01*
X292370Y121788D01*
X292298Y121713D01*
X292290Y121695D01*
X292277Y121680D01*
X292238Y121584D01*
X292195Y121490D01*
X292193Y121470D01*
X292185Y121452D01*
X292167Y121285D01*
X292167Y120342D01*
X290678Y118853D01*
X266574Y118853D01*
X265085Y120342D01*
X265085Y121285D01*
X265082Y121305D01*
X265084Y121324D01*
X265062Y121426D01*
X265046Y121528D01*
X265036Y121545D01*
X265032Y121565D01*
X264979Y121654D01*
X264930Y121745D01*
X264916Y121759D01*
X264906Y121776D01*
X264827Y121843D01*
X264752Y121915D01*
X264734Y121923D01*
X264719Y121936D01*
X264623Y121975D01*
X264529Y122018D01*
X264509Y122020D01*
X264491Y122028D01*
X264324Y122046D01*
X256697Y122046D01*
X256677Y122043D01*
X256658Y122045D01*
X256556Y122023D01*
X256454Y122007D01*
X256437Y121997D01*
X256417Y121993D01*
X256328Y121940D01*
X256237Y121891D01*
X256223Y121877D01*
X256206Y121867D01*
X256139Y121788D01*
X256067Y121713D01*
X256059Y121695D01*
X256046Y121680D01*
X256007Y121584D01*
X255964Y121490D01*
X255962Y121470D01*
X255954Y121452D01*
X255936Y121285D01*
X255936Y121075D01*
X254447Y119586D01*
X253737Y119586D01*
X253717Y119583D01*
X253698Y119585D01*
X253596Y119563D01*
X253494Y119547D01*
X253477Y119537D01*
X253457Y119533D01*
X253368Y119480D01*
X253277Y119431D01*
X253263Y119417D01*
X253246Y119407D01*
X253179Y119328D01*
X253107Y119253D01*
X253099Y119235D01*
X253086Y119220D01*
X253047Y119124D01*
X253004Y119030D01*
X253002Y119010D01*
X252994Y118992D01*
X252976Y118825D01*
X252976Y117647D01*
X249777Y114448D01*
X248689Y113361D01*
X248648Y113303D01*
X248598Y113251D01*
X248576Y113204D01*
X248546Y113162D01*
X248525Y113093D01*
X248495Y113028D01*
X248489Y112976D01*
X248474Y112926D01*
X248475Y112855D01*
X248468Y112784D01*
X248479Y112733D01*
X248480Y112681D01*
X248505Y112613D01*
X248520Y112543D01*
X248547Y112498D01*
X248564Y112450D01*
X248609Y112394D01*
X248646Y112332D01*
X248686Y112298D01*
X248718Y112258D01*
X248778Y112219D01*
X248833Y112172D01*
X248881Y112153D01*
X248925Y112125D01*
X248995Y112107D01*
X249061Y112080D01*
X249132Y112072D01*
X249164Y112064D01*
X249187Y112066D01*
X249228Y112062D01*
X253177Y112062D01*
X254666Y110573D01*
X254666Y110363D01*
X254669Y110343D01*
X254667Y110324D01*
X254689Y110222D01*
X254705Y110120D01*
X254715Y110103D01*
X254719Y110083D01*
X254772Y109994D01*
X254821Y109903D01*
X254835Y109889D01*
X254845Y109872D01*
X254924Y109805D01*
X254999Y109733D01*
X255017Y109725D01*
X255032Y109712D01*
X255128Y109673D01*
X255222Y109630D01*
X255242Y109628D01*
X255260Y109620D01*
X255427Y109602D01*
X264324Y109602D01*
X264344Y109605D01*
X264363Y109603D01*
X264465Y109625D01*
X264567Y109641D01*
X264584Y109651D01*
X264604Y109655D01*
X264693Y109708D01*
X264784Y109757D01*
X264798Y109771D01*
X264815Y109781D01*
X264882Y109860D01*
X264954Y109935D01*
X264962Y109953D01*
X264975Y109968D01*
X265014Y110064D01*
X265057Y110158D01*
X265059Y110178D01*
X265067Y110196D01*
X265085Y110363D01*
X265085Y111446D01*
X266574Y112935D01*
X290678Y112935D01*
X292167Y111446D01*
X292167Y110236D01*
X292170Y110216D01*
X292168Y110197D01*
X292190Y110095D01*
X292206Y109993D01*
X292216Y109976D01*
X292220Y109956D01*
X292273Y109867D01*
X292322Y109776D01*
X292336Y109762D01*
X292346Y109745D01*
X292425Y109678D01*
X292500Y109606D01*
X292518Y109598D01*
X292533Y109585D01*
X292629Y109546D01*
X292723Y109503D01*
X292743Y109501D01*
X292761Y109493D01*
X292928Y109475D01*
X326324Y109475D01*
X326344Y109478D01*
X326363Y109476D01*
X326465Y109498D01*
X326567Y109514D01*
X326584Y109524D01*
X326604Y109528D01*
X326693Y109581D01*
X326784Y109630D01*
X326798Y109644D01*
X326815Y109654D01*
X326882Y109733D01*
X326954Y109808D01*
X326962Y109826D01*
X326975Y109841D01*
X327014Y109937D01*
X327057Y110031D01*
X327059Y110051D01*
X327067Y110069D01*
X327085Y110236D01*
X327085Y122946D01*
X328574Y124435D01*
X334899Y124435D01*
X334919Y124438D01*
X334938Y124436D01*
X335040Y124458D01*
X335142Y124474D01*
X335159Y124484D01*
X335179Y124488D01*
X335268Y124541D01*
X335359Y124590D01*
X335373Y124604D01*
X335390Y124614D01*
X335457Y124693D01*
X335529Y124768D01*
X335537Y124786D01*
X335550Y124801D01*
X335589Y124897D01*
X335632Y124991D01*
X335634Y125011D01*
X335642Y125029D01*
X335660Y125196D01*
X335660Y131841D01*
X335646Y131931D01*
X335638Y132022D01*
X335626Y132051D01*
X335621Y132083D01*
X335578Y132164D01*
X335542Y132248D01*
X335516Y132280D01*
X335505Y132301D01*
X335482Y132323D01*
X335437Y132379D01*
X335381Y132435D01*
X334418Y134759D01*
X334418Y137275D01*
X335381Y139599D01*
X337159Y141377D01*
X339483Y142340D01*
X341999Y142340D01*
X344323Y141377D01*
X346101Y139599D01*
X347064Y137275D01*
X347064Y134759D01*
X346101Y132435D01*
X346045Y132379D01*
X345992Y132305D01*
X345932Y132236D01*
X345920Y132205D01*
X345901Y132179D01*
X345874Y132092D01*
X345840Y132007D01*
X345836Y131966D01*
X345829Y131944D01*
X345830Y131912D01*
X345822Y131841D01*
X345822Y125196D01*
X345825Y125176D01*
X345823Y125157D01*
X345845Y125055D01*
X345861Y124953D01*
X345871Y124936D01*
X345875Y124916D01*
X345928Y124827D01*
X345977Y124736D01*
X345991Y124722D01*
X346001Y124705D01*
X346080Y124638D01*
X346155Y124566D01*
X346173Y124558D01*
X346188Y124545D01*
X346284Y124506D01*
X346378Y124463D01*
X346398Y124461D01*
X346416Y124453D01*
X346583Y124435D01*
X352678Y124435D01*
X354167Y122946D01*
X354167Y85842D01*
X352678Y84353D01*
X328574Y84353D01*
X327085Y85842D01*
X327085Y98552D01*
X327082Y98572D01*
X327084Y98591D01*
X327062Y98693D01*
X327046Y98795D01*
X327036Y98812D01*
X327032Y98832D01*
X326979Y98921D01*
X326930Y99012D01*
X326916Y99026D01*
X326906Y99043D01*
X326827Y99110D01*
X326752Y99182D01*
X326734Y99190D01*
X326719Y99203D01*
X326623Y99242D01*
X326529Y99285D01*
X326509Y99287D01*
X326491Y99295D01*
X326324Y99313D01*
X292928Y99313D01*
X292908Y99310D01*
X292889Y99312D01*
X292787Y99290D01*
X292685Y99274D01*
X292668Y99264D01*
X292648Y99260D01*
X292559Y99207D01*
X292468Y99158D01*
X292454Y99144D01*
X292437Y99134D01*
X292370Y99055D01*
X292298Y98980D01*
X292290Y98962D01*
X292277Y98947D01*
X292238Y98851D01*
X292195Y98757D01*
X292193Y98737D01*
X292185Y98719D01*
X292167Y98552D01*
X292167Y97342D01*
X290678Y95853D01*
X266574Y95853D01*
X265085Y97342D01*
X265085Y98679D01*
X265082Y98699D01*
X265084Y98718D01*
X265062Y98820D01*
X265046Y98922D01*
X265036Y98939D01*
X265032Y98959D01*
X264979Y99048D01*
X264930Y99139D01*
X264916Y99153D01*
X264906Y99170D01*
X264827Y99237D01*
X264752Y99309D01*
X264734Y99317D01*
X264719Y99330D01*
X264623Y99369D01*
X264529Y99412D01*
X264509Y99414D01*
X264491Y99422D01*
X264324Y99440D01*
X255427Y99440D01*
X255407Y99437D01*
X255388Y99439D01*
X255286Y99417D01*
X255184Y99401D01*
X255167Y99391D01*
X255147Y99387D01*
X255058Y99334D01*
X254967Y99285D01*
X254953Y99271D01*
X254936Y99261D01*
X254869Y99182D01*
X254797Y99107D01*
X254789Y99089D01*
X254776Y99074D01*
X254737Y98978D01*
X254694Y98884D01*
X254692Y98864D01*
X254684Y98846D01*
X254666Y98679D01*
X254666Y98469D01*
X253177Y96980D01*
X240073Y96980D01*
X238567Y98485D01*
X238472Y98554D01*
X238375Y98625D01*
X238371Y98627D01*
X238368Y98629D01*
X238255Y98664D01*
X238141Y98700D01*
X238137Y98700D01*
X238133Y98701D01*
X238014Y98698D01*
X237895Y98696D01*
X237891Y98695D01*
X237887Y98695D01*
X237775Y98654D01*
X237663Y98615D01*
X237660Y98612D01*
X237656Y98611D01*
X237562Y98536D01*
X237469Y98463D01*
X237466Y98459D01*
X237464Y98457D01*
X237456Y98445D01*
X237370Y98328D01*
X237158Y97961D01*
X236685Y97488D01*
X236106Y97153D01*
X235459Y96980D01*
X231148Y96980D01*
X231148Y103759D01*
X231145Y103779D01*
X231147Y103798D01*
X231125Y103900D01*
X231108Y104002D01*
X231099Y104019D01*
X231095Y104039D01*
X231042Y104128D01*
X230993Y104219D01*
X230979Y104233D01*
X230969Y104250D01*
X230890Y104317D01*
X230815Y104388D01*
X230797Y104397D01*
X230782Y104410D01*
X230686Y104449D01*
X230592Y104492D01*
X230572Y104494D01*
X230554Y104502D01*
X230387Y104520D01*
X229624Y104520D01*
X229624Y105283D01*
X229621Y105303D01*
X229623Y105322D01*
X229601Y105424D01*
X229584Y105526D01*
X229575Y105543D01*
X229571Y105563D01*
X229518Y105652D01*
X229469Y105743D01*
X229455Y105757D01*
X229445Y105774D01*
X229366Y105841D01*
X229291Y105912D01*
X229273Y105921D01*
X229258Y105934D01*
X229162Y105973D01*
X229068Y106016D01*
X229048Y106018D01*
X229030Y106026D01*
X228863Y106044D01*
X221584Y106044D01*
X221584Y109220D01*
X221581Y109240D01*
X221583Y109259D01*
X221561Y109361D01*
X221545Y109463D01*
X221535Y109480D01*
X221531Y109500D01*
X221478Y109589D01*
X221429Y109680D01*
X221415Y109694D01*
X221405Y109711D01*
X221326Y109778D01*
X221251Y109850D01*
X221233Y109858D01*
X221218Y109871D01*
X221122Y109910D01*
X221028Y109953D01*
X221008Y109955D01*
X220990Y109963D01*
X220823Y109981D01*
X201683Y109981D01*
X201593Y109967D01*
X201502Y109959D01*
X201472Y109947D01*
X201440Y109942D01*
X201359Y109899D01*
X201276Y109863D01*
X201243Y109837D01*
X201223Y109826D01*
X201201Y109803D01*
X201145Y109758D01*
X199868Y108481D01*
X199815Y108408D01*
X199755Y108338D01*
X199743Y108308D01*
X199724Y108282D01*
X199697Y108195D01*
X199663Y108110D01*
X199659Y108069D01*
X199652Y108047D01*
X199653Y108014D01*
X199645Y107943D01*
X199645Y-962D01*
X197836Y-2771D01*
X196826Y-3780D01*
X196785Y-3838D01*
X196735Y-3890D01*
X196713Y-3937D01*
X196683Y-3979D01*
X196662Y-4048D01*
X196632Y-4113D01*
X196626Y-4165D01*
X196611Y-4215D01*
X196612Y-4286D01*
X196605Y-4357D01*
X196616Y-4408D01*
X196617Y-4460D01*
X196642Y-4528D01*
X196657Y-4598D01*
X196684Y-4643D01*
X196701Y-4691D01*
X196746Y-4747D01*
X196783Y-4809D01*
X196823Y-4843D01*
X196855Y-4883D01*
X196915Y-4922D01*
X196970Y-4969D01*
X197018Y-4988D01*
X197062Y-5016D01*
X197132Y-5034D01*
X197198Y-5061D01*
X197269Y-5069D01*
X197301Y-5077D01*
X197324Y-5075D01*
X197365Y-5079D01*
X764286Y-5079D01*
X764308Y-5076D01*
X764346Y-5077D01*
X765498Y-4986D01*
X765504Y-4985D01*
X765509Y-4985D01*
X765674Y-4951D01*
X767865Y-4239D01*
X767897Y-4223D01*
X767932Y-4214D01*
X768078Y-4131D01*
X769942Y-2776D01*
X769967Y-2751D01*
X769997Y-2732D01*
X770110Y-2608D01*
X771465Y-744D01*
X771481Y-712D01*
X771504Y-684D01*
X771573Y-531D01*
X772285Y1660D01*
X772286Y1666D01*
X772289Y1671D01*
X772320Y1836D01*
X772411Y2988D01*
X772409Y3010D01*
X772413Y3048D01*
X772413Y707898D01*
X772410Y707920D01*
X772411Y707958D01*
X772320Y709110D01*
X772319Y709116D01*
X772319Y709121D01*
X772285Y709286D01*
X771573Y711477D01*
X771557Y711509D01*
X771548Y711544D01*
X771465Y711690D01*
X770110Y713554D01*
X770085Y713579D01*
X770066Y713609D01*
X769942Y713722D01*
X768078Y715077D01*
X768046Y715093D01*
X768018Y715116D01*
X767865Y715185D01*
X765674Y715897D01*
X765668Y715898D01*
X765663Y715901D01*
X765498Y715932D01*
X764346Y716023D01*
X764324Y716021D01*
X764286Y716025D01*
X406400Y716025D01*
X406380Y716022D01*
X406361Y716024D01*
X406259Y716002D01*
X406157Y715986D01*
X406140Y715976D01*
X406120Y715972D01*
X406031Y715919D01*
X405940Y715870D01*
X405926Y715856D01*
X405909Y715846D01*
X405842Y715767D01*
X405770Y715692D01*
X405762Y715674D01*
X405749Y715659D01*
X405710Y715563D01*
X405667Y715469D01*
X405665Y715449D01*
X405657Y715431D01*
X405639Y715264D01*
X405639Y693797D01*
X402622Y686515D01*
X397049Y680942D01*
X389767Y677925D01*
X167175Y677925D01*
X167079Y677910D01*
X166982Y677900D01*
X166958Y677890D01*
X166933Y677886D01*
X166847Y677840D01*
X166758Y677800D01*
X166738Y677783D01*
X166715Y677770D01*
X166648Y677700D01*
X166576Y677634D01*
X166564Y677611D01*
X166546Y677592D01*
X166505Y677504D01*
X166458Y677418D01*
X166453Y677393D01*
X166442Y677369D01*
X166431Y677272D01*
X166414Y677176D01*
X166418Y677150D01*
X166415Y677125D01*
X166436Y677029D01*
X166450Y676933D01*
X166462Y676910D01*
X166467Y676884D01*
X166517Y676801D01*
X166561Y676714D01*
X166580Y676695D01*
X166594Y676673D01*
X166667Y676610D01*
X166737Y676542D01*
X166766Y676526D01*
X166780Y676513D01*
X166811Y676501D01*
X166884Y676461D01*
X174344Y673371D01*
X181071Y666644D01*
X184711Y657856D01*
X184711Y648344D01*
X181071Y639556D01*
X174344Y632829D01*
X165556Y629189D01*
X156044Y629189D01*
X147256Y632829D01*
X140529Y639556D01*
X136889Y648344D01*
X136889Y657856D01*
X140529Y666644D01*
X147256Y673371D01*
X154716Y676461D01*
X154799Y676512D01*
X154885Y676558D01*
X154903Y676577D01*
X154925Y676590D01*
X154987Y676665D01*
X155054Y676736D01*
X155065Y676760D01*
X155082Y676780D01*
X155117Y676871D01*
X155158Y676959D01*
X155161Y676985D01*
X155170Y677009D01*
X155174Y677107D01*
X155185Y677203D01*
X155179Y677229D01*
X155180Y677255D01*
X155153Y677349D01*
X155133Y677444D01*
X155119Y677466D01*
X155112Y677491D01*
X155056Y677571D01*
X155006Y677655D01*
X154987Y677672D01*
X154972Y677693D01*
X154894Y677752D01*
X154820Y677815D01*
X154795Y677825D01*
X154774Y677840D01*
X154682Y677870D01*
X154591Y677907D01*
X154559Y677910D01*
X154540Y677916D01*
X154507Y677916D01*
X154425Y677925D01*
X-5080Y677925D01*
X-5100Y677922D01*
X-5119Y677924D01*
X-5221Y677902D01*
X-5323Y677886D01*
X-5340Y677876D01*
X-5360Y677872D01*
X-5449Y677819D01*
X-5540Y677770D01*
X-5554Y677756D01*
X-5571Y677746D01*
X-5638Y677667D01*
X-5710Y677592D01*
X-5718Y677574D01*
X-5731Y677559D01*
X-5770Y677463D01*
X-5813Y677369D01*
X-5815Y677349D01*
X-5823Y677331D01*
X-5841Y677164D01*
X-5841Y579834D01*
X-5830Y579763D01*
X-5828Y579692D01*
X-5810Y579643D01*
X-5802Y579591D01*
X-5768Y579528D01*
X-5743Y579461D01*
X-5711Y579420D01*
X-5686Y579374D01*
X-5634Y579325D01*
X-5590Y579269D01*
X-5546Y579240D01*
X-5508Y579204D01*
X-5443Y579174D01*
X-5383Y579136D01*
X-5332Y579123D01*
X-5285Y579101D01*
X-5214Y579093D01*
X-5144Y579075D01*
X-5092Y579080D01*
X-5041Y579074D01*
X-4970Y579089D01*
X-4899Y579095D01*
X-4851Y579115D01*
X-4800Y579126D01*
X-4739Y579163D01*
X-4673Y579191D01*
X-4617Y579236D01*
X-4589Y579252D01*
X-4574Y579270D01*
X-4542Y579296D01*
X-3724Y580114D01*
X11Y581661D01*
X4053Y581661D01*
X7788Y580114D01*
X10646Y577256D01*
X11257Y575781D01*
X11319Y575681D01*
X11378Y575581D01*
X11383Y575577D01*
X11386Y575572D01*
X11477Y575497D01*
X11565Y575421D01*
X11571Y575419D01*
X11576Y575415D01*
X11684Y575373D01*
X11793Y575329D01*
X11801Y575328D01*
X11805Y575327D01*
X11824Y575326D01*
X11960Y575311D01*
X39932Y575311D01*
X44832Y570411D01*
X44832Y512561D01*
X44834Y512545D01*
X44833Y512531D01*
X44847Y512467D01*
X44854Y512380D01*
X44866Y512350D01*
X44871Y512318D01*
X44884Y512294D01*
X44885Y512291D01*
X44892Y512279D01*
X44914Y512237D01*
X44950Y512153D01*
X44976Y512121D01*
X44987Y512101D01*
X45010Y512078D01*
X45055Y512023D01*
X50378Y506700D01*
X50451Y506647D01*
X50521Y506587D01*
X50551Y506575D01*
X50577Y506556D01*
X50664Y506529D01*
X50749Y506495D01*
X50790Y506491D01*
X50812Y506484D01*
X50845Y506485D01*
X50916Y506477D01*
X137467Y506477D01*
X137581Y506496D01*
X137698Y506513D01*
X137703Y506515D01*
X137709Y506516D01*
X137812Y506571D01*
X137917Y506624D01*
X137921Y506629D01*
X137927Y506632D01*
X138007Y506716D01*
X138089Y506800D01*
X138093Y506806D01*
X138096Y506810D01*
X138104Y506827D01*
X138170Y506947D01*
X138930Y508781D01*
X141967Y511818D01*
X145935Y513462D01*
X150229Y513462D01*
X154197Y511818D01*
X157234Y508781D01*
X158878Y504813D01*
X158878Y500519D01*
X157234Y496551D01*
X154197Y493514D01*
X150229Y491870D01*
X145935Y491870D01*
X141967Y493514D01*
X138930Y496551D01*
X138170Y498385D01*
X138108Y498485D01*
X138048Y498585D01*
X138044Y498589D01*
X138040Y498594D01*
X137950Y498669D01*
X137861Y498745D01*
X137856Y498747D01*
X137851Y498751D01*
X137742Y498793D01*
X137633Y498837D01*
X137626Y498838D01*
X137621Y498839D01*
X137603Y498840D01*
X137467Y498855D01*
X47444Y498855D01*
X37210Y509089D01*
X37210Y566928D01*
X37207Y566948D01*
X37209Y566967D01*
X37187Y567069D01*
X37171Y567171D01*
X37161Y567188D01*
X37157Y567208D01*
X37104Y567297D01*
X37055Y567388D01*
X37041Y567402D01*
X37031Y567419D01*
X36952Y567486D01*
X36877Y567558D01*
X36859Y567566D01*
X36844Y567579D01*
X36748Y567618D01*
X36654Y567661D01*
X36634Y567663D01*
X36616Y567671D01*
X36449Y567689D01*
X11960Y567689D01*
X11845Y567670D01*
X11729Y567653D01*
X11724Y567651D01*
X11717Y567650D01*
X11615Y567595D01*
X11510Y567542D01*
X11505Y567537D01*
X11500Y567534D01*
X11420Y567450D01*
X11338Y567366D01*
X11334Y567360D01*
X11331Y567356D01*
X11323Y567339D01*
X11257Y567219D01*
X10646Y565744D01*
X7788Y562886D01*
X4053Y561339D01*
X11Y561339D01*
X-3724Y562886D01*
X-4542Y563704D01*
X-4600Y563746D01*
X-4652Y563796D01*
X-4699Y563817D01*
X-4741Y563848D01*
X-4810Y563869D01*
X-4875Y563899D01*
X-4927Y563905D01*
X-4977Y563920D01*
X-5048Y563918D01*
X-5119Y563926D01*
X-5170Y563915D01*
X-5222Y563914D01*
X-5290Y563889D01*
X-5360Y563874D01*
X-5405Y563847D01*
X-5453Y563829D01*
X-5509Y563785D01*
X-5571Y563748D01*
X-5605Y563708D01*
X-5645Y563676D01*
X-5684Y563615D01*
X-5731Y563561D01*
X-5750Y563513D01*
X-5778Y563469D01*
X-5796Y563399D01*
X-5823Y563333D01*
X-5831Y563261D01*
X-5839Y563230D01*
X-5837Y563207D01*
X-5841Y563166D01*
X-5841Y554434D01*
X-5838Y554417D01*
X-5840Y554400D01*
X-5829Y554350D01*
X-5828Y554292D01*
X-5810Y554243D01*
X-5802Y554191D01*
X-5790Y554170D01*
X-5788Y554160D01*
X-5766Y554124D01*
X-5743Y554061D01*
X-5711Y554020D01*
X-5686Y553974D01*
X-5664Y553953D01*
X-5662Y553949D01*
X-5642Y553932D01*
X-5634Y553925D01*
X-5590Y553869D01*
X-5546Y553840D01*
X-5508Y553804D01*
X-5476Y553790D01*
X-5475Y553789D01*
X-5468Y553786D01*
X-5443Y553774D01*
X-5383Y553736D01*
X-5332Y553723D01*
X-5285Y553701D01*
X-5214Y553693D01*
X-5144Y553675D01*
X-5092Y553680D01*
X-5041Y553674D01*
X-4970Y553689D01*
X-4899Y553695D01*
X-4852Y553715D01*
X-4832Y553718D01*
X-4828Y553720D01*
X-4800Y553726D01*
X-4739Y553763D01*
X-4673Y553791D01*
X-4631Y553824D01*
X-4614Y553833D01*
X-4606Y553842D01*
X-4589Y553852D01*
X-4574Y553870D01*
X-4542Y553896D01*
X-3724Y554714D01*
X11Y556261D01*
X4053Y556261D01*
X7788Y554714D01*
X10646Y551856D01*
X12193Y548121D01*
X12193Y544079D01*
X10646Y540344D01*
X7788Y537486D01*
X4053Y535939D01*
X11Y535939D01*
X-3724Y537486D01*
X-4542Y538304D01*
X-4600Y538346D01*
X-4652Y538396D01*
X-4699Y538417D01*
X-4741Y538448D01*
X-4810Y538469D01*
X-4875Y538499D01*
X-4927Y538505D01*
X-4977Y538520D01*
X-5048Y538518D01*
X-5119Y538526D01*
X-5170Y538515D01*
X-5222Y538514D01*
X-5290Y538489D01*
X-5360Y538474D01*
X-5405Y538447D01*
X-5453Y538429D01*
X-5509Y538385D01*
X-5571Y538348D01*
X-5605Y538308D01*
X-5645Y538276D01*
X-5684Y538215D01*
X-5731Y538161D01*
X-5750Y538113D01*
X-5778Y538069D01*
X-5796Y537999D01*
X-5823Y537933D01*
X-5831Y537861D01*
X-5839Y537830D01*
X-5837Y537807D01*
X-5841Y537766D01*
X-5841Y529033D01*
X-5839Y529021D01*
X-5841Y529009D01*
X-5820Y528900D01*
X-5802Y528790D01*
X-5796Y528780D01*
X-5794Y528768D01*
X-5738Y528671D01*
X-5686Y528573D01*
X-5678Y528565D01*
X-5672Y528554D01*
X-5589Y528480D01*
X-5508Y528404D01*
X-5497Y528399D01*
X-5488Y528391D01*
X-5386Y528347D01*
X-5285Y528300D01*
X-5273Y528299D01*
X-5262Y528294D01*
X-5151Y528285D01*
X-5041Y528273D01*
X-5029Y528275D01*
X-5017Y528274D01*
X-4909Y528301D01*
X-4800Y528325D01*
X-4790Y528331D01*
X-4778Y528334D01*
X-4633Y528417D01*
X-3293Y529390D01*
X-1868Y530116D01*
X-347Y530611D01*
X509Y530746D01*
X509Y521462D01*
X512Y521442D01*
X510Y521423D01*
X532Y521321D01*
X549Y521219D01*
X558Y521202D01*
X562Y521182D01*
X615Y521093D01*
X664Y521002D01*
X678Y520988D01*
X688Y520971D01*
X767Y520904D01*
X842Y520833D01*
X860Y520824D01*
X875Y520811D01*
X971Y520773D01*
X1065Y520729D01*
X1085Y520727D01*
X1103Y520719D01*
X1270Y520701D01*
X2033Y520701D01*
X2033Y520699D01*
X1270Y520699D01*
X1250Y520696D01*
X1231Y520698D01*
X1129Y520676D01*
X1027Y520659D01*
X1010Y520650D01*
X990Y520646D01*
X901Y520593D01*
X810Y520544D01*
X796Y520530D01*
X779Y520520D01*
X712Y520441D01*
X641Y520366D01*
X632Y520348D01*
X619Y520333D01*
X580Y520237D01*
X537Y520143D01*
X535Y520123D01*
X527Y520105D01*
X509Y519938D01*
X509Y510654D01*
X-347Y510789D01*
X-1868Y511284D01*
X-3293Y512010D01*
X-4633Y512983D01*
X-4643Y512988D01*
X-4652Y512996D01*
X-4753Y513043D01*
X-4852Y513093D01*
X-4864Y513095D01*
X-4875Y513100D01*
X-4986Y513112D01*
X-5096Y513128D01*
X-5108Y513126D01*
X-5119Y513127D01*
X-5228Y513103D01*
X-5338Y513083D01*
X-5348Y513077D01*
X-5360Y513075D01*
X-5456Y513018D01*
X-5553Y512964D01*
X-5561Y512955D01*
X-5571Y512949D01*
X-5643Y512864D01*
X-5718Y512782D01*
X-5723Y512771D01*
X-5731Y512762D01*
X-5773Y512658D01*
X-5817Y512557D01*
X-5818Y512545D01*
X-5823Y512534D01*
X-5841Y512367D01*
X-5841Y62918D01*
X-5830Y62848D01*
X-5828Y62776D01*
X-5810Y62727D01*
X-5802Y62676D01*
X-5768Y62612D01*
X-5743Y62545D01*
X-5711Y62504D01*
X-5686Y62458D01*
X-5634Y62409D01*
X-5590Y62353D01*
X-5546Y62325D01*
X-5508Y62289D01*
X-5443Y62259D01*
X-5383Y62220D01*
X-5332Y62207D01*
X-5285Y62185D01*
X-5214Y62177D01*
X-5144Y62160D01*
X-5092Y62164D01*
X-5041Y62158D01*
X-4970Y62173D01*
X-4899Y62179D01*
X-4851Y62199D01*
X-4800Y62210D01*
X-4739Y62247D01*
X-4673Y62275D01*
X-4617Y62320D01*
X-4589Y62337D01*
X-4574Y62354D01*
X-4542Y62380D01*
X-2318Y64604D01*
X2070Y66422D01*
X6820Y66422D01*
X11208Y64604D01*
X14566Y61246D01*
X16384Y56858D01*
X16384Y52108D01*
X14566Y47720D01*
X11208Y44362D01*
X6820Y42544D01*
X2070Y42544D01*
X-2318Y44362D01*
X-4542Y46586D01*
X-4600Y46628D01*
X-4652Y46677D01*
X-4699Y46699D01*
X-4741Y46729D01*
X-4810Y46750D01*
X-4875Y46781D01*
X-4927Y46786D01*
X-4977Y46802D01*
X-5048Y46800D01*
X-5119Y46808D01*
X-5170Y46797D01*
X-5222Y46795D01*
X-5290Y46771D01*
X-5360Y46756D01*
X-5405Y46729D01*
X-5453Y46711D01*
X-5509Y46666D01*
X-5571Y46629D01*
X-5605Y46590D01*
X-5645Y46557D01*
X-5684Y46497D01*
X-5731Y46442D01*
X-5750Y46394D01*
X-5778Y46350D01*
X-5796Y46281D01*
X-5823Y46214D01*
X-5831Y46143D01*
X-5839Y46112D01*
X-5837Y46088D01*
X-5841Y46048D01*
X-5841Y37518D01*
X-5840Y37512D01*
X-5840Y37511D01*
X-5840Y37509D01*
X-5830Y37448D01*
X-5828Y37376D01*
X-5810Y37327D01*
X-5802Y37276D01*
X-5768Y37212D01*
X-5743Y37145D01*
X-5711Y37104D01*
X-5686Y37058D01*
X-5634Y37009D01*
X-5590Y36953D01*
X-5546Y36925D01*
X-5508Y36889D01*
X-5443Y36859D01*
X-5383Y36820D01*
X-5332Y36807D01*
X-5285Y36785D01*
X-5214Y36777D01*
X-5144Y36760D01*
X-5092Y36764D01*
X-5041Y36758D01*
X-4970Y36773D01*
X-4899Y36779D01*
X-4851Y36799D01*
X-4800Y36810D01*
X-4739Y36847D01*
X-4673Y36875D01*
X-4617Y36920D01*
X-4589Y36937D01*
X-4574Y36954D01*
X-4542Y36980D01*
X-3333Y38189D01*
X-1812Y39294D01*
X-138Y40147D01*
X1649Y40728D01*
X2922Y40929D01*
X2922Y29845D01*
X2925Y29825D01*
X2923Y29806D01*
X2945Y29704D01*
X2962Y29602D01*
X2971Y29585D01*
X2975Y29565D01*
X3028Y29476D01*
X3077Y29385D01*
X3091Y29371D01*
X3101Y29354D01*
X3180Y29287D01*
X3255Y29216D01*
X3273Y29207D01*
X3288Y29194D01*
X3384Y29156D01*
X3478Y29112D01*
X3498Y29110D01*
X3516Y29102D01*
X3683Y29084D01*
X4446Y29084D01*
X4446Y29082D01*
X3683Y29082D01*
X3663Y29079D01*
X3644Y29081D01*
X3542Y29059D01*
X3440Y29042D01*
X3423Y29033D01*
X3403Y29029D01*
X3314Y28976D01*
X3223Y28927D01*
X3209Y28913D01*
X3192Y28903D01*
X3125Y28824D01*
X3054Y28749D01*
X3045Y28731D01*
X3032Y28716D01*
X2993Y28620D01*
X2950Y28526D01*
X2948Y28506D01*
X2940Y28488D01*
X2922Y28321D01*
X2922Y17237D01*
X1649Y17438D01*
X-138Y18019D01*
X-1812Y18872D01*
X-3333Y19977D01*
X-4542Y21186D01*
X-4600Y21228D01*
X-4652Y21277D01*
X-4699Y21299D01*
X-4741Y21329D01*
X-4810Y21350D01*
X-4875Y21381D01*
X-4927Y21386D01*
X-4977Y21402D01*
X-5048Y21400D01*
X-5119Y21408D01*
X-5170Y21397D01*
X-5222Y21395D01*
X-5290Y21371D01*
X-5360Y21356D01*
X-5405Y21329D01*
X-5453Y21311D01*
X-5509Y21266D01*
X-5571Y21229D01*
X-5605Y21190D01*
X-5645Y21157D01*
X-5684Y21097D01*
X-5731Y21042D01*
X-5750Y20994D01*
X-5778Y20950D01*
X-5796Y20881D01*
X-5823Y20814D01*
X-5831Y20743D01*
X-5839Y20712D01*
X-5837Y20688D01*
X-5841Y20648D01*
X-5841Y3048D01*
X-5838Y3026D01*
X-5839Y2988D01*
X-5748Y1836D01*
X-5747Y1830D01*
X-5747Y1825D01*
X-5713Y1660D01*
X-5001Y-531D01*
X-4985Y-563D01*
X-4976Y-598D01*
X-4893Y-744D01*
X-3538Y-2608D01*
X-3513Y-2633D01*
X-3494Y-2663D01*
X-3370Y-2776D01*
X-1506Y-4131D01*
X-1474Y-4147D01*
X-1446Y-4170D01*
X-1293Y-4239D01*
X898Y-4951D01*
X904Y-4952D01*
X909Y-4955D01*
X1074Y-4986D01*
X2226Y-5077D01*
X2248Y-5075D01*
X2286Y-5079D01*
X90781Y-5079D01*
X90826Y-5072D01*
G37*
%LPC*%
G36*
X406057Y179831D02*
X406057Y179831D01*
X401669Y181649D01*
X398311Y185007D01*
X397283Y187489D01*
X397221Y187589D01*
X397161Y187689D01*
X397156Y187693D01*
X397153Y187698D01*
X397063Y187773D01*
X396974Y187849D01*
X396968Y187851D01*
X396964Y187855D01*
X396856Y187897D01*
X396746Y187941D01*
X396739Y187942D01*
X396734Y187943D01*
X396716Y187944D01*
X396579Y187959D01*
X388312Y187959D01*
X363388Y212882D01*
X363315Y212935D01*
X363245Y212995D01*
X363215Y213007D01*
X363189Y213026D01*
X363102Y213053D01*
X363017Y213087D01*
X362976Y213091D01*
X362954Y213098D01*
X362921Y213097D01*
X362850Y213105D01*
X342399Y213105D01*
X342328Y213094D01*
X342256Y213092D01*
X342207Y213074D01*
X342156Y213066D01*
X342093Y213032D01*
X342025Y213007D01*
X341985Y212975D01*
X341939Y212950D01*
X341889Y212898D01*
X341833Y212854D01*
X341805Y212810D01*
X341769Y212772D01*
X341739Y212707D01*
X341700Y212647D01*
X341688Y212596D01*
X341666Y212549D01*
X341658Y212478D01*
X341640Y212408D01*
X341644Y212356D01*
X341639Y212305D01*
X341654Y212234D01*
X341659Y212163D01*
X341680Y212115D01*
X341691Y212064D01*
X341728Y212003D01*
X341756Y211937D01*
X341800Y211881D01*
X341817Y211853D01*
X341835Y211838D01*
X341860Y211806D01*
X344044Y209623D01*
X344044Y206741D01*
X344058Y206651D01*
X344066Y206560D01*
X344078Y206531D01*
X344083Y206499D01*
X344126Y206418D01*
X344162Y206334D01*
X344188Y206302D01*
X344199Y206281D01*
X344222Y206259D01*
X344267Y206203D01*
X344450Y206020D01*
X345413Y203696D01*
X345413Y201180D01*
X344450Y198856D01*
X342672Y197078D01*
X340348Y196115D01*
X337832Y196115D01*
X335508Y197078D01*
X333730Y198856D01*
X332767Y201180D01*
X332767Y203696D01*
X333125Y204560D01*
X333136Y204604D01*
X333155Y204646D01*
X333164Y204723D01*
X333181Y204799D01*
X333177Y204845D01*
X333182Y204890D01*
X333166Y204967D01*
X333158Y205044D01*
X333140Y205086D01*
X333130Y205131D01*
X333090Y205198D01*
X333058Y205269D01*
X333027Y205303D01*
X333004Y205342D01*
X332945Y205393D01*
X332892Y205450D01*
X332852Y205472D01*
X332817Y205502D01*
X332745Y205531D01*
X332676Y205568D01*
X332631Y205577D01*
X332589Y205594D01*
X332453Y205609D01*
X332434Y205612D01*
X332429Y205611D01*
X332422Y205612D01*
X303862Y205612D01*
X303792Y205601D01*
X303720Y205599D01*
X303671Y205581D01*
X303619Y205573D01*
X303556Y205539D01*
X303489Y205514D01*
X303448Y205482D01*
X303402Y205457D01*
X303353Y205405D01*
X303297Y205361D01*
X303269Y205317D01*
X303233Y205279D01*
X303203Y205214D01*
X303164Y205154D01*
X303151Y205103D01*
X303129Y205056D01*
X303121Y204985D01*
X303104Y204915D01*
X303108Y204863D01*
X303102Y204812D01*
X303117Y204741D01*
X303123Y204670D01*
X303143Y204622D01*
X303154Y204571D01*
X303191Y204509D01*
X303219Y204444D01*
X303264Y204388D01*
X303280Y204360D01*
X303298Y204345D01*
X303324Y204313D01*
X303937Y203700D01*
X304900Y201376D01*
X304900Y198860D01*
X303937Y196536D01*
X302484Y195083D01*
X302431Y195009D01*
X302371Y194940D01*
X302359Y194909D01*
X302340Y194883D01*
X302313Y194796D01*
X302279Y194711D01*
X302275Y194670D01*
X302268Y194648D01*
X302269Y194616D01*
X302261Y194545D01*
X302261Y187398D01*
X296726Y181863D01*
X246365Y181863D01*
X246275Y181849D01*
X246184Y181841D01*
X246154Y181829D01*
X246123Y181824D01*
X246042Y181781D01*
X245958Y181745D01*
X245926Y181719D01*
X245905Y181708D01*
X245883Y181685D01*
X245827Y181640D01*
X245136Y180949D01*
X242812Y179986D01*
X240296Y179986D01*
X237972Y180949D01*
X236194Y182727D01*
X235231Y185051D01*
X235231Y187567D01*
X236194Y189891D01*
X237972Y191669D01*
X240296Y192632D01*
X242812Y192632D01*
X245136Y191669D01*
X246949Y189856D01*
X247009Y189755D01*
X247014Y189751D01*
X247017Y189746D01*
X247107Y189671D01*
X247196Y189595D01*
X247202Y189593D01*
X247207Y189589D01*
X247316Y189547D01*
X247424Y189503D01*
X247432Y189502D01*
X247436Y189501D01*
X247455Y189500D01*
X247591Y189485D01*
X266803Y189485D01*
X266848Y189492D01*
X266894Y189490D01*
X266969Y189512D01*
X267045Y189524D01*
X267086Y189546D01*
X267130Y189559D01*
X267194Y189603D01*
X267263Y189640D01*
X267294Y189673D01*
X267332Y189699D01*
X267379Y189762D01*
X267432Y189818D01*
X267452Y189860D01*
X267479Y189896D01*
X267503Y189970D01*
X267536Y190041D01*
X267541Y190087D01*
X267555Y190130D01*
X267554Y190208D01*
X267563Y190285D01*
X267553Y190330D01*
X267553Y190376D01*
X267515Y190508D01*
X267511Y190526D01*
X267508Y190530D01*
X267506Y190537D01*
X266727Y192417D01*
X266727Y194933D01*
X267690Y197257D01*
X267746Y197313D01*
X267799Y197387D01*
X267859Y197456D01*
X267871Y197486D01*
X267890Y197513D01*
X267917Y197600D01*
X267951Y197685D01*
X267955Y197725D01*
X267962Y197748D01*
X267961Y197780D01*
X267969Y197851D01*
X267969Y207210D01*
X276533Y215774D01*
X297445Y215774D01*
X297516Y215785D01*
X297588Y215787D01*
X297637Y215805D01*
X297688Y215813D01*
X297751Y215847D01*
X297819Y215872D01*
X297859Y215904D01*
X297905Y215929D01*
X297955Y215981D01*
X298011Y216025D01*
X298039Y216069D01*
X298075Y216107D01*
X298105Y216172D01*
X298144Y216232D01*
X298156Y216283D01*
X298178Y216330D01*
X298186Y216401D01*
X298204Y216471D01*
X298200Y216523D01*
X298205Y216574D01*
X298190Y216645D01*
X298185Y216716D01*
X298164Y216764D01*
X298153Y216815D01*
X298116Y216876D01*
X298088Y216942D01*
X298044Y216998D01*
X298027Y217026D01*
X298009Y217041D01*
X297984Y217073D01*
X297306Y217751D01*
X297306Y218201D01*
X297295Y218272D01*
X297293Y218343D01*
X297275Y218392D01*
X297267Y218444D01*
X297233Y218507D01*
X297208Y218574D01*
X297176Y218615D01*
X297151Y218661D01*
X297099Y218710D01*
X297055Y218766D01*
X297011Y218794D01*
X296973Y218830D01*
X296908Y218860D01*
X296848Y218899D01*
X296797Y218912D01*
X296750Y218934D01*
X296679Y218942D01*
X296609Y218959D01*
X296557Y218955D01*
X296506Y218961D01*
X296435Y218946D01*
X296364Y218940D01*
X296316Y218920D01*
X296265Y218909D01*
X296204Y218872D01*
X296138Y218844D01*
X296082Y218799D01*
X296054Y218783D01*
X296039Y218765D01*
X296007Y218739D01*
X295935Y218668D01*
X293612Y217705D01*
X291096Y217705D01*
X288772Y218668D01*
X287446Y219994D01*
X287372Y220047D01*
X287303Y220107D01*
X287272Y220119D01*
X287246Y220138D01*
X287159Y220165D01*
X287074Y220199D01*
X287033Y220203D01*
X287011Y220210D01*
X286979Y220209D01*
X286908Y220217D01*
X279893Y220217D01*
X279803Y220203D01*
X279712Y220195D01*
X279683Y220183D01*
X279651Y220178D01*
X279570Y220135D01*
X279486Y220099D01*
X279454Y220073D01*
X279433Y220062D01*
X279411Y220039D01*
X279355Y219994D01*
X278029Y218668D01*
X275705Y217705D01*
X273189Y217705D01*
X270865Y218668D01*
X269087Y220446D01*
X268124Y222770D01*
X268124Y225286D01*
X269087Y227610D01*
X270865Y229388D01*
X273189Y230351D01*
X275705Y230351D01*
X278029Y229388D01*
X279355Y228062D01*
X279429Y228009D01*
X279498Y227949D01*
X279529Y227937D01*
X279555Y227918D01*
X279642Y227891D01*
X279727Y227857D01*
X279768Y227853D01*
X279790Y227846D01*
X279822Y227847D01*
X279893Y227839D01*
X286908Y227839D01*
X286998Y227853D01*
X287089Y227861D01*
X287118Y227873D01*
X287150Y227878D01*
X287231Y227921D01*
X287315Y227957D01*
X287347Y227983D01*
X287368Y227994D01*
X287390Y228017D01*
X287392Y228018D01*
X287395Y228021D01*
X287446Y228062D01*
X288772Y229388D01*
X291096Y230351D01*
X293612Y230351D01*
X295935Y229388D01*
X296007Y229317D01*
X296065Y229275D01*
X296117Y229226D01*
X296164Y229204D01*
X296206Y229173D01*
X296275Y229152D01*
X296340Y229122D01*
X296392Y229116D01*
X296441Y229101D01*
X296513Y229103D01*
X296584Y229095D01*
X296635Y229106D01*
X296687Y229107D01*
X296755Y229132D01*
X296825Y229147D01*
X296870Y229174D01*
X296918Y229192D01*
X296974Y229237D01*
X297036Y229273D01*
X297070Y229313D01*
X297110Y229346D01*
X297149Y229406D01*
X297196Y229460D01*
X297215Y229509D01*
X297243Y229552D01*
X297261Y229622D01*
X297288Y229689D01*
X297296Y229760D01*
X297304Y229791D01*
X297302Y229814D01*
X297306Y229855D01*
X297306Y237378D01*
X297292Y237468D01*
X297284Y237559D01*
X297272Y237588D01*
X297267Y237620D01*
X297224Y237701D01*
X297188Y237785D01*
X297162Y237817D01*
X297151Y237838D01*
X297128Y237860D01*
X297083Y237916D01*
X295757Y239242D01*
X294794Y241566D01*
X294794Y244082D01*
X295757Y246406D01*
X297535Y248184D01*
X299859Y249147D01*
X302375Y249147D01*
X304699Y248184D01*
X306477Y246406D01*
X307440Y244082D01*
X307440Y241566D01*
X306477Y239242D01*
X305151Y237916D01*
X305098Y237842D01*
X305038Y237773D01*
X305026Y237742D01*
X305007Y237716D01*
X304980Y237629D01*
X304946Y237544D01*
X304942Y237503D01*
X304935Y237481D01*
X304936Y237449D01*
X304928Y237378D01*
X304928Y230738D01*
X304935Y230693D01*
X304933Y230647D01*
X304955Y230572D01*
X304967Y230495D01*
X304989Y230455D01*
X305002Y230411D01*
X305046Y230347D01*
X305083Y230278D01*
X305116Y230246D01*
X305142Y230209D01*
X305205Y230162D01*
X305261Y230108D01*
X305303Y230089D01*
X305339Y230062D01*
X305413Y230038D01*
X305484Y230005D01*
X305530Y230000D01*
X305573Y229986D01*
X305651Y229986D01*
X305728Y229978D01*
X305773Y229988D01*
X305819Y229988D01*
X305951Y230026D01*
X305969Y230030D01*
X305973Y230033D01*
X305980Y230035D01*
X306743Y230351D01*
X309259Y230351D01*
X311583Y229388D01*
X312909Y228062D01*
X312983Y228009D01*
X313052Y227949D01*
X313083Y227937D01*
X313109Y227918D01*
X313196Y227891D01*
X313281Y227857D01*
X313322Y227853D01*
X313344Y227846D01*
X313376Y227847D01*
X313447Y227839D01*
X355361Y227839D01*
X355451Y227853D01*
X355542Y227861D01*
X355571Y227873D01*
X355603Y227878D01*
X355684Y227921D01*
X355768Y227957D01*
X355800Y227983D01*
X355821Y227994D01*
X355843Y228017D01*
X355845Y228018D01*
X355848Y228021D01*
X355899Y228062D01*
X357225Y229388D01*
X359549Y230351D01*
X362065Y230351D01*
X364389Y229388D01*
X364714Y229063D01*
X364772Y229021D01*
X364824Y228972D01*
X364871Y228950D01*
X364913Y228919D01*
X364982Y228898D01*
X365047Y228868D01*
X365099Y228862D01*
X365149Y228847D01*
X365220Y228849D01*
X365291Y228841D01*
X365342Y228852D01*
X365394Y228853D01*
X365462Y228878D01*
X365532Y228893D01*
X365577Y228920D01*
X365625Y228938D01*
X365681Y228983D01*
X365743Y229019D01*
X365777Y229059D01*
X365817Y229092D01*
X365856Y229152D01*
X365903Y229206D01*
X365922Y229255D01*
X365950Y229298D01*
X365968Y229368D01*
X365995Y229435D01*
X366003Y229506D01*
X366011Y229537D01*
X366009Y229560D01*
X366013Y229601D01*
X366013Y512245D01*
X377771Y524003D01*
X389437Y524003D01*
X389551Y524022D01*
X389668Y524039D01*
X389673Y524041D01*
X389679Y524042D01*
X389782Y524097D01*
X389887Y524150D01*
X389891Y524155D01*
X389897Y524158D01*
X389977Y524242D01*
X390059Y524326D01*
X390063Y524332D01*
X390066Y524336D01*
X390074Y524353D01*
X390140Y524473D01*
X391326Y527336D01*
X394684Y530694D01*
X399072Y532512D01*
X403822Y532512D01*
X408210Y530694D01*
X411568Y527336D01*
X412754Y524473D01*
X412816Y524373D01*
X412876Y524273D01*
X412880Y524269D01*
X412884Y524264D01*
X412974Y524189D01*
X413063Y524113D01*
X413068Y524111D01*
X413073Y524107D01*
X413182Y524065D01*
X413291Y524021D01*
X413298Y524020D01*
X413303Y524019D01*
X413321Y524018D01*
X413457Y524003D01*
X559446Y524003D01*
X559536Y524017D01*
X559627Y524025D01*
X559657Y524037D01*
X559689Y524042D01*
X559770Y524085D01*
X559854Y524121D01*
X559886Y524147D01*
X559906Y524158D01*
X559929Y524181D01*
X559984Y524226D01*
X571509Y535750D01*
X571521Y535767D01*
X571536Y535779D01*
X571592Y535866D01*
X571653Y535950D01*
X571659Y535969D01*
X571669Y535986D01*
X571695Y536086D01*
X571725Y536185D01*
X571725Y536205D01*
X571729Y536224D01*
X571721Y536327D01*
X571719Y536431D01*
X571712Y536450D01*
X571710Y536470D01*
X571670Y536565D01*
X571634Y536662D01*
X571622Y536678D01*
X571614Y536696D01*
X571509Y536827D01*
X569126Y539210D01*
X567308Y543598D01*
X567308Y548348D01*
X569126Y552736D01*
X572484Y556094D01*
X576872Y557912D01*
X581622Y557912D01*
X586010Y556094D01*
X589368Y552736D01*
X591186Y548348D01*
X591186Y543598D01*
X589368Y539210D01*
X588414Y538256D01*
X588372Y538198D01*
X588323Y538146D01*
X588301Y538099D01*
X588271Y538057D01*
X588250Y537988D01*
X588219Y537923D01*
X588214Y537871D01*
X588198Y537821D01*
X588200Y537750D01*
X588192Y537679D01*
X588203Y537628D01*
X588205Y537576D01*
X588229Y537508D01*
X588244Y537438D01*
X588271Y537393D01*
X588289Y537345D01*
X588334Y537289D01*
X588371Y537227D01*
X588410Y537193D01*
X588443Y537153D01*
X588503Y537114D01*
X588558Y537067D01*
X588606Y537048D01*
X588650Y537020D01*
X588719Y537002D01*
X588786Y536975D01*
X588857Y536967D01*
X588888Y536959D01*
X588912Y536961D01*
X588952Y536957D01*
X650421Y536957D01*
X655448Y531930D01*
X655448Y519343D01*
X655462Y519253D01*
X655470Y519162D01*
X655482Y519132D01*
X655487Y519101D01*
X655530Y519020D01*
X655566Y518936D01*
X655592Y518904D01*
X655603Y518883D01*
X655626Y518861D01*
X655671Y518805D01*
X656997Y517479D01*
X657960Y515155D01*
X657960Y512639D01*
X656997Y510315D01*
X655444Y508762D01*
X655417Y508725D01*
X655383Y508694D01*
X655345Y508625D01*
X655300Y508562D01*
X655287Y508518D01*
X655264Y508478D01*
X655251Y508401D01*
X655228Y508327D01*
X655229Y508281D01*
X655221Y508236D01*
X655232Y508159D01*
X655234Y508081D01*
X655250Y508038D01*
X655256Y507993D01*
X655292Y507923D01*
X655318Y507850D01*
X655347Y507814D01*
X655368Y507773D01*
X655424Y507719D01*
X655472Y507658D01*
X655511Y507633D01*
X655544Y507601D01*
X655663Y507535D01*
X655679Y507525D01*
X655684Y507524D01*
X655691Y507520D01*
X656616Y507137D01*
X658394Y505359D01*
X659357Y503035D01*
X659357Y500519D01*
X658935Y499500D01*
X658920Y499437D01*
X658895Y499376D01*
X658886Y499293D01*
X658879Y499261D01*
X658880Y499242D01*
X658877Y499209D01*
X658877Y375905D01*
X658891Y375815D01*
X658899Y375724D01*
X658911Y375695D01*
X658916Y375663D01*
X658959Y375582D01*
X658995Y375498D01*
X659021Y375466D01*
X659032Y375445D01*
X659055Y375423D01*
X659100Y375367D01*
X659410Y375057D01*
X660373Y372733D01*
X660373Y370217D01*
X659530Y368183D01*
X659522Y368148D01*
X659517Y368138D01*
X659517Y368132D01*
X659500Y368097D01*
X659492Y368020D01*
X659474Y367944D01*
X659478Y367898D01*
X659473Y367853D01*
X659490Y367776D01*
X659497Y367699D01*
X659516Y367657D01*
X659526Y367612D01*
X659566Y367545D01*
X659597Y367474D01*
X659628Y367440D01*
X659652Y367401D01*
X659711Y367350D01*
X659764Y367293D01*
X659804Y367271D01*
X659839Y367241D01*
X659911Y367212D01*
X659979Y367175D01*
X660024Y367166D01*
X660067Y367149D01*
X660203Y367134D01*
X660221Y367131D01*
X660226Y367132D01*
X660234Y367131D01*
X678377Y367131D01*
X678492Y367150D01*
X678608Y367167D01*
X678614Y367169D01*
X678620Y367170D01*
X678723Y367225D01*
X678827Y367278D01*
X678832Y367283D01*
X678837Y367286D01*
X678917Y367370D01*
X679000Y367454D01*
X679003Y367460D01*
X679007Y367464D01*
X679015Y367481D01*
X679081Y367601D01*
X679204Y367897D01*
X680338Y369032D01*
X680349Y369048D01*
X680365Y369060D01*
X680421Y369148D01*
X680481Y369231D01*
X680487Y369250D01*
X680498Y369267D01*
X680523Y369368D01*
X680554Y369467D01*
X680553Y369486D01*
X680558Y369506D01*
X680550Y369609D01*
X680547Y369712D01*
X680541Y369731D01*
X680539Y369751D01*
X680499Y369846D01*
X680463Y369943D01*
X680450Y369959D01*
X680443Y369977D01*
X680338Y370108D01*
X679204Y371243D01*
X677973Y374213D01*
X677973Y377427D01*
X679204Y380397D01*
X680338Y381532D01*
X680349Y381548D01*
X680365Y381560D01*
X680421Y381647D01*
X680481Y381731D01*
X680487Y381750D01*
X680498Y381767D01*
X680523Y381868D01*
X680554Y381967D01*
X680553Y381986D01*
X680558Y382006D01*
X680550Y382109D01*
X680547Y382212D01*
X680541Y382231D01*
X680539Y382251D01*
X680499Y382346D01*
X680463Y382443D01*
X680450Y382459D01*
X680443Y382477D01*
X680338Y382608D01*
X679777Y383169D01*
X678893Y384492D01*
X678284Y385963D01*
X678113Y386821D01*
X685316Y386821D01*
X685335Y386824D01*
X685355Y386822D01*
X685457Y386844D01*
X685559Y386860D01*
X685576Y386870D01*
X685596Y386874D01*
X685685Y386927D01*
X685776Y386976D01*
X685790Y386990D01*
X685807Y387000D01*
X685874Y387079D01*
X685945Y387154D01*
X685954Y387172D01*
X685967Y387187D01*
X686005Y387283D01*
X686049Y387377D01*
X686051Y387397D01*
X686058Y387415D01*
X686071Y387339D01*
X686080Y387322D01*
X686084Y387302D01*
X686137Y387213D01*
X686186Y387122D01*
X686200Y387108D01*
X686210Y387091D01*
X686289Y387024D01*
X686364Y386952D01*
X686382Y386944D01*
X686397Y386931D01*
X686494Y386892D01*
X686587Y386849D01*
X686607Y386847D01*
X686625Y386839D01*
X686792Y386821D01*
X693995Y386821D01*
X693824Y385963D01*
X693215Y384492D01*
X692331Y383169D01*
X691770Y382608D01*
X691758Y382592D01*
X691743Y382580D01*
X691687Y382493D01*
X691627Y382409D01*
X691621Y382390D01*
X691610Y382373D01*
X691585Y382272D01*
X691554Y382173D01*
X691555Y382154D01*
X691550Y382134D01*
X691558Y382031D01*
X691561Y381928D01*
X691567Y381909D01*
X691569Y381889D01*
X691609Y381794D01*
X691645Y381697D01*
X691658Y381681D01*
X691665Y381663D01*
X691770Y381532D01*
X692904Y380397D01*
X694135Y377427D01*
X694135Y374213D01*
X692904Y371243D01*
X691770Y370108D01*
X691759Y370092D01*
X691743Y370080D01*
X691687Y369992D01*
X691627Y369909D01*
X691621Y369890D01*
X691610Y369873D01*
X691585Y369772D01*
X691554Y369673D01*
X691555Y369654D01*
X691550Y369634D01*
X691558Y369531D01*
X691561Y369428D01*
X691567Y369409D01*
X691569Y369389D01*
X691609Y369294D01*
X691645Y369197D01*
X691658Y369181D01*
X691665Y369163D01*
X691770Y369032D01*
X692904Y367897D01*
X694135Y364927D01*
X694135Y361713D01*
X693070Y359142D01*
X693043Y359028D01*
X693015Y358915D01*
X693015Y358909D01*
X693014Y358902D01*
X693025Y358786D01*
X693034Y358670D01*
X693036Y358664D01*
X693037Y358658D01*
X693084Y358551D01*
X693130Y358443D01*
X693135Y358437D01*
X693137Y358433D01*
X693149Y358419D01*
X693235Y358312D01*
X694135Y357412D01*
X694135Y344228D01*
X692646Y342739D01*
X679462Y342739D01*
X677973Y344228D01*
X677973Y357412D01*
X678771Y358210D01*
X678812Y358268D01*
X678862Y358320D01*
X678884Y358367D01*
X678914Y358409D01*
X678935Y358478D01*
X678965Y358543D01*
X678971Y358595D01*
X678987Y358645D01*
X678985Y358716D01*
X678993Y358787D01*
X678981Y358838D01*
X678980Y358890D01*
X678956Y358958D01*
X678940Y359028D01*
X678914Y359073D01*
X678896Y359121D01*
X678851Y359177D01*
X678814Y359239D01*
X678775Y359273D01*
X678742Y359313D01*
X678682Y359352D01*
X678627Y359399D01*
X678579Y359418D01*
X678535Y359446D01*
X678466Y359464D01*
X678399Y359491D01*
X678328Y359499D01*
X678297Y359507D01*
X678273Y359505D01*
X678232Y359509D01*
X647292Y359509D01*
X639190Y367611D01*
X639190Y384317D01*
X639179Y384387D01*
X639177Y384459D01*
X639159Y384508D01*
X639151Y384560D01*
X639117Y384623D01*
X639092Y384690D01*
X639060Y384731D01*
X639035Y384777D01*
X638983Y384826D01*
X638939Y384882D01*
X638895Y384910D01*
X638857Y384946D01*
X638792Y384976D01*
X638732Y385015D01*
X638681Y385028D01*
X638634Y385050D01*
X638563Y385058D01*
X638493Y385075D01*
X638441Y385071D01*
X638390Y385077D01*
X638319Y385062D01*
X638248Y385056D01*
X638200Y385036D01*
X638149Y385025D01*
X638088Y384988D01*
X638022Y384960D01*
X637966Y384915D01*
X637938Y384899D01*
X637923Y384881D01*
X637891Y384855D01*
X636169Y383133D01*
X633845Y382170D01*
X631329Y382170D01*
X629005Y383133D01*
X627227Y384911D01*
X626264Y387235D01*
X626264Y389751D01*
X627227Y392075D01*
X628553Y393401D01*
X628606Y393475D01*
X628666Y393544D01*
X628678Y393575D01*
X628697Y393601D01*
X628724Y393688D01*
X628758Y393773D01*
X628762Y393814D01*
X628769Y393836D01*
X628768Y393868D01*
X628776Y393939D01*
X628776Y515874D01*
X628773Y515894D01*
X628775Y515913D01*
X628753Y516015D01*
X628737Y516117D01*
X628727Y516134D01*
X628723Y516154D01*
X628670Y516243D01*
X628621Y516334D01*
X628607Y516348D01*
X628597Y516365D01*
X628518Y516432D01*
X628443Y516504D01*
X628425Y516512D01*
X628410Y516525D01*
X628314Y516564D01*
X628220Y516607D01*
X628200Y516609D01*
X628182Y516617D01*
X628015Y516635D01*
X599810Y516635D01*
X599720Y516621D01*
X599629Y516613D01*
X599599Y516601D01*
X599567Y516596D01*
X599486Y516553D01*
X599402Y516517D01*
X599370Y516491D01*
X599350Y516480D01*
X599327Y516457D01*
X599272Y516412D01*
X587620Y504761D01*
X587608Y504744D01*
X587593Y504732D01*
X587537Y504645D01*
X587476Y504561D01*
X587470Y504542D01*
X587460Y504525D01*
X587434Y504425D01*
X587404Y504326D01*
X587404Y504306D01*
X587400Y504287D01*
X587408Y504184D01*
X587410Y504080D01*
X587417Y504061D01*
X587419Y504041D01*
X587459Y503946D01*
X587495Y503849D01*
X587507Y503833D01*
X587515Y503815D01*
X587600Y503709D01*
X587602Y503706D01*
X587603Y503705D01*
X587620Y503684D01*
X589368Y501936D01*
X591186Y497548D01*
X591186Y492798D01*
X589368Y488410D01*
X586010Y485052D01*
X581622Y483234D01*
X576872Y483234D01*
X572484Y485052D01*
X569126Y488410D01*
X567308Y492798D01*
X567308Y495789D01*
X567297Y495860D01*
X567295Y495932D01*
X567277Y495981D01*
X567269Y496032D01*
X567235Y496095D01*
X567210Y496163D01*
X567178Y496203D01*
X567153Y496250D01*
X567101Y496299D01*
X567057Y496355D01*
X567013Y496383D01*
X566975Y496419D01*
X566910Y496449D01*
X566850Y496488D01*
X566799Y496501D01*
X566752Y496523D01*
X566681Y496530D01*
X566611Y496548D01*
X566559Y496544D01*
X566508Y496550D01*
X566437Y496534D01*
X566366Y496529D01*
X566318Y496508D01*
X566267Y496497D01*
X566206Y496461D01*
X566140Y496432D01*
X566084Y496388D01*
X566056Y496371D01*
X566041Y496353D01*
X566009Y496328D01*
X561043Y491362D01*
X413300Y491362D01*
X413185Y491343D01*
X413069Y491326D01*
X413063Y491324D01*
X413057Y491323D01*
X412954Y491268D01*
X412849Y491215D01*
X412845Y491210D01*
X412839Y491207D01*
X412760Y491123D01*
X412677Y491039D01*
X412674Y491033D01*
X412670Y491029D01*
X412662Y491012D01*
X412596Y490892D01*
X411568Y488410D01*
X408210Y485052D01*
X403822Y483234D01*
X399072Y483234D01*
X394684Y485052D01*
X391326Y488410D01*
X390298Y490892D01*
X390236Y490992D01*
X390176Y491092D01*
X390171Y491096D01*
X390168Y491101D01*
X390078Y491176D01*
X389989Y491252D01*
X389983Y491254D01*
X389979Y491258D01*
X389871Y491300D01*
X389761Y491344D01*
X389754Y491345D01*
X389749Y491346D01*
X389731Y491347D01*
X389594Y491362D01*
X382767Y491362D01*
X382677Y491348D01*
X382586Y491340D01*
X382556Y491328D01*
X382524Y491323D01*
X382443Y491280D01*
X382359Y491244D01*
X382327Y491218D01*
X382307Y491207D01*
X382284Y491184D01*
X382229Y491139D01*
X380081Y488991D01*
X380028Y488918D01*
X379968Y488848D01*
X379956Y488818D01*
X379937Y488792D01*
X379910Y488705D01*
X379876Y488620D01*
X379872Y488579D01*
X379865Y488557D01*
X379866Y488524D01*
X379858Y488453D01*
X379858Y253735D01*
X379860Y253720D01*
X379859Y253706D01*
X379873Y253642D01*
X379880Y253554D01*
X379892Y253524D01*
X379897Y253492D01*
X379911Y253467D01*
X379911Y253466D01*
X379913Y253462D01*
X379940Y253411D01*
X379976Y253327D01*
X380002Y253295D01*
X380013Y253275D01*
X380036Y253252D01*
X380081Y253197D01*
X386674Y246604D01*
X386747Y246551D01*
X386817Y246491D01*
X386847Y246479D01*
X386873Y246460D01*
X386960Y246433D01*
X387045Y246399D01*
X387086Y246395D01*
X387108Y246388D01*
X387141Y246389D01*
X387212Y246381D01*
X396579Y246381D01*
X396694Y246400D01*
X396810Y246417D01*
X396816Y246419D01*
X396822Y246420D01*
X396925Y246475D01*
X397030Y246528D01*
X397034Y246533D01*
X397040Y246536D01*
X397119Y246619D01*
X397202Y246704D01*
X397205Y246710D01*
X397209Y246714D01*
X397217Y246731D01*
X397283Y246851D01*
X398311Y249333D01*
X401669Y252691D01*
X406057Y254509D01*
X410807Y254509D01*
X415195Y252691D01*
X418553Y249333D01*
X420371Y244945D01*
X420371Y240195D01*
X418553Y235807D01*
X415195Y232449D01*
X410807Y230631D01*
X406057Y230631D01*
X401669Y232449D01*
X398311Y235807D01*
X397283Y238289D01*
X397221Y238389D01*
X397161Y238489D01*
X397156Y238493D01*
X397153Y238498D01*
X397063Y238573D01*
X396974Y238649D01*
X396968Y238651D01*
X396964Y238655D01*
X396856Y238697D01*
X396746Y238741D01*
X396739Y238742D01*
X396734Y238743D01*
X396716Y238744D01*
X396579Y238759D01*
X383740Y238759D01*
X374934Y247565D01*
X374876Y247606D01*
X374824Y247656D01*
X374777Y247678D01*
X374735Y247708D01*
X374666Y247729D01*
X374601Y247759D01*
X374549Y247765D01*
X374499Y247780D01*
X374428Y247779D01*
X374357Y247786D01*
X374306Y247775D01*
X374254Y247774D01*
X374186Y247749D01*
X374116Y247734D01*
X374071Y247708D01*
X374023Y247690D01*
X373967Y247645D01*
X373905Y247608D01*
X373871Y247568D01*
X373831Y247536D01*
X373792Y247476D01*
X373745Y247421D01*
X373726Y247373D01*
X373698Y247329D01*
X373680Y247260D01*
X373653Y247193D01*
X373645Y247122D01*
X373637Y247090D01*
X373639Y247067D01*
X373635Y247026D01*
X373635Y221985D01*
X373649Y221895D01*
X373657Y221804D01*
X373669Y221774D01*
X373674Y221742D01*
X373717Y221661D01*
X373753Y221577D01*
X373779Y221545D01*
X373790Y221525D01*
X373813Y221502D01*
X373858Y221447D01*
X374101Y221204D01*
X374174Y221151D01*
X374244Y221091D01*
X374274Y221079D01*
X374300Y221060D01*
X374387Y221033D01*
X374472Y220999D01*
X374513Y220995D01*
X374535Y220988D01*
X374568Y220989D01*
X374639Y220981D01*
X396579Y220981D01*
X396694Y221000D01*
X396810Y221017D01*
X396816Y221019D01*
X396822Y221020D01*
X396925Y221075D01*
X397030Y221128D01*
X397034Y221133D01*
X397040Y221136D01*
X397119Y221220D01*
X397202Y221304D01*
X397205Y221310D01*
X397209Y221314D01*
X397217Y221331D01*
X397283Y221451D01*
X398311Y223933D01*
X401669Y227291D01*
X406057Y229109D01*
X410807Y229109D01*
X415195Y227291D01*
X418553Y223933D01*
X420371Y219545D01*
X420371Y214795D01*
X418553Y210407D01*
X415195Y207049D01*
X410807Y205231D01*
X406057Y205231D01*
X401669Y207049D01*
X398311Y210407D01*
X397283Y212889D01*
X397221Y212989D01*
X397161Y213089D01*
X397156Y213093D01*
X397153Y213098D01*
X397063Y213173D01*
X396974Y213249D01*
X396968Y213251D01*
X396964Y213255D01*
X396856Y213297D01*
X396746Y213341D01*
X396739Y213342D01*
X396734Y213343D01*
X396716Y213344D01*
X396579Y213359D01*
X375528Y213359D01*
X375457Y213348D01*
X375385Y213346D01*
X375336Y213328D01*
X375285Y213320D01*
X375222Y213286D01*
X375154Y213261D01*
X375114Y213229D01*
X375068Y213204D01*
X375018Y213152D01*
X374962Y213108D01*
X374934Y213064D01*
X374898Y213026D01*
X374868Y212961D01*
X374829Y212901D01*
X374817Y212850D01*
X374795Y212803D01*
X374787Y212732D01*
X374769Y212662D01*
X374773Y212610D01*
X374768Y212559D01*
X374783Y212488D01*
X374788Y212417D01*
X374809Y212369D01*
X374820Y212318D01*
X374857Y212257D01*
X374885Y212191D01*
X374929Y212135D01*
X374946Y212107D01*
X374964Y212092D01*
X374989Y212060D01*
X391246Y195804D01*
X391319Y195751D01*
X391389Y195691D01*
X391419Y195679D01*
X391445Y195660D01*
X391532Y195633D01*
X391617Y195599D01*
X391658Y195595D01*
X391680Y195588D01*
X391713Y195589D01*
X391784Y195581D01*
X396579Y195581D01*
X396694Y195600D01*
X396810Y195617D01*
X396816Y195619D01*
X396822Y195620D01*
X396925Y195675D01*
X397030Y195728D01*
X397034Y195733D01*
X397040Y195736D01*
X397119Y195820D01*
X397202Y195904D01*
X397205Y195910D01*
X397209Y195914D01*
X397217Y195931D01*
X397283Y196051D01*
X398311Y198533D01*
X401669Y201891D01*
X406057Y203709D01*
X410807Y203709D01*
X415195Y201891D01*
X418553Y198533D01*
X420371Y194145D01*
X420371Y189395D01*
X418553Y185007D01*
X415195Y181649D01*
X410807Y179831D01*
X406057Y179831D01*
G37*
%LPD*%
%LPC*%
G36*
X281825Y235767D02*
X281825Y235767D01*
X279501Y236730D01*
X277723Y238508D01*
X276760Y240832D01*
X276760Y242708D01*
X276746Y242798D01*
X276738Y242889D01*
X276726Y242919D01*
X276721Y242951D01*
X276678Y243032D01*
X276642Y243116D01*
X276616Y243148D01*
X276605Y243168D01*
X276582Y243191D01*
X276537Y243246D01*
X273303Y246481D01*
X273303Y372756D01*
X273289Y372846D01*
X273281Y372937D01*
X273269Y372967D01*
X273264Y372999D01*
X273221Y373080D01*
X273185Y373164D01*
X273159Y373196D01*
X273148Y373216D01*
X273125Y373239D01*
X273080Y373294D01*
X187197Y459178D01*
X187197Y559700D01*
X187183Y559790D01*
X187175Y559881D01*
X187163Y559911D01*
X187158Y559943D01*
X187115Y560024D01*
X187079Y560108D01*
X187053Y560140D01*
X187042Y560160D01*
X187019Y560183D01*
X186974Y560238D01*
X183937Y563275D01*
X183864Y563328D01*
X183794Y563388D01*
X183764Y563400D01*
X183738Y563419D01*
X183651Y563446D01*
X183566Y563480D01*
X183525Y563484D01*
X183503Y563491D01*
X183470Y563490D01*
X183399Y563498D01*
X180555Y563498D01*
X180484Y563487D01*
X180413Y563485D01*
X180364Y563467D01*
X180312Y563459D01*
X180249Y563425D01*
X180182Y563400D01*
X180141Y563368D01*
X180095Y563343D01*
X180046Y563291D01*
X179990Y563247D01*
X179961Y563203D01*
X179926Y563165D01*
X179895Y563100D01*
X179857Y563040D01*
X179844Y562989D01*
X179822Y562942D01*
X179814Y562871D01*
X179796Y562801D01*
X179801Y562749D01*
X179795Y562698D01*
X179810Y562627D01*
X179816Y562556D01*
X179836Y562508D01*
X179847Y562457D01*
X179884Y562396D01*
X179912Y562330D01*
X179957Y562274D01*
X179973Y562246D01*
X179991Y562231D01*
X180017Y562199D01*
X182634Y559581D01*
X184278Y555613D01*
X184278Y551319D01*
X182634Y547351D01*
X179597Y544314D01*
X175629Y542670D01*
X171335Y542670D01*
X167367Y544314D01*
X164330Y547351D01*
X162686Y551319D01*
X162686Y555613D01*
X164330Y559581D01*
X166947Y562199D01*
X166989Y562257D01*
X167038Y562309D01*
X167060Y562356D01*
X167091Y562398D01*
X167112Y562467D01*
X167142Y562532D01*
X167148Y562584D01*
X167163Y562634D01*
X167161Y562705D01*
X167169Y562776D01*
X167158Y562827D01*
X167157Y562879D01*
X167132Y562947D01*
X167117Y563017D01*
X167090Y563062D01*
X167072Y563110D01*
X167027Y563166D01*
X166991Y563228D01*
X166951Y563262D01*
X166919Y563302D01*
X166858Y563341D01*
X166804Y563388D01*
X166756Y563407D01*
X166712Y563435D01*
X166642Y563453D01*
X166576Y563480D01*
X166504Y563488D01*
X166473Y563496D01*
X166450Y563494D01*
X166409Y563498D01*
X157294Y563498D01*
X152351Y568441D01*
X152258Y568508D01*
X152163Y568579D01*
X152157Y568581D01*
X152152Y568584D01*
X152041Y568618D01*
X151929Y568655D01*
X151923Y568655D01*
X151917Y568657D01*
X151800Y568653D01*
X151683Y568652D01*
X151676Y568650D01*
X151671Y568650D01*
X151653Y568644D01*
X151522Y568606D01*
X150229Y568070D01*
X145935Y568070D01*
X141967Y569714D01*
X138930Y572751D01*
X137286Y576719D01*
X137286Y581013D01*
X138930Y584981D01*
X141967Y588018D01*
X145935Y589662D01*
X150229Y589662D01*
X154197Y588018D01*
X157234Y584981D01*
X158878Y581013D01*
X158878Y576719D01*
X157893Y574342D01*
X157867Y574228D01*
X157838Y574115D01*
X157839Y574108D01*
X157837Y574102D01*
X157848Y573986D01*
X157857Y573870D01*
X157860Y573864D01*
X157860Y573857D01*
X157908Y573750D01*
X157953Y573643D01*
X157958Y573637D01*
X157960Y573633D01*
X157973Y573619D01*
X158058Y573512D01*
X160228Y571343D01*
X160302Y571290D01*
X160371Y571230D01*
X160401Y571218D01*
X160428Y571199D01*
X160515Y571172D01*
X160599Y571138D01*
X160640Y571134D01*
X160663Y571127D01*
X160695Y571128D01*
X160766Y571120D01*
X164123Y571120D01*
X164194Y571131D01*
X164265Y571133D01*
X164314Y571151D01*
X164366Y571159D01*
X164429Y571193D01*
X164496Y571218D01*
X164537Y571250D01*
X164583Y571275D01*
X164632Y571326D01*
X164688Y571371D01*
X164717Y571415D01*
X164752Y571453D01*
X164783Y571518D01*
X164821Y571578D01*
X164834Y571629D01*
X164856Y571676D01*
X164864Y571747D01*
X164882Y571817D01*
X164877Y571869D01*
X164883Y571920D01*
X164868Y571991D01*
X164862Y572062D01*
X164842Y572110D01*
X164831Y572161D01*
X164794Y572222D01*
X164766Y572288D01*
X164721Y572344D01*
X164705Y572372D01*
X164687Y572387D01*
X164661Y572419D01*
X164330Y572751D01*
X162686Y576719D01*
X162686Y581013D01*
X164330Y584981D01*
X167367Y588018D01*
X171335Y589662D01*
X175629Y589662D01*
X179597Y588018D01*
X182634Y584981D01*
X184278Y581013D01*
X184278Y576719D01*
X182634Y572751D01*
X182303Y572419D01*
X182261Y572361D01*
X182212Y572309D01*
X182190Y572262D01*
X182159Y572220D01*
X182138Y572151D01*
X182108Y572086D01*
X182102Y572034D01*
X182087Y571984D01*
X182089Y571913D01*
X182081Y571842D01*
X182092Y571791D01*
X182093Y571739D01*
X182118Y571671D01*
X182133Y571601D01*
X182160Y571556D01*
X182178Y571508D01*
X182222Y571452D01*
X182259Y571390D01*
X182299Y571356D01*
X182331Y571316D01*
X182392Y571277D01*
X182446Y571230D01*
X182495Y571211D01*
X182538Y571183D01*
X182608Y571165D01*
X182674Y571138D01*
X182746Y571130D01*
X182777Y571122D01*
X182800Y571124D01*
X182841Y571120D01*
X186871Y571120D01*
X194819Y563172D01*
X194819Y462650D01*
X194833Y462560D01*
X194841Y462469D01*
X194853Y462439D01*
X194858Y462407D01*
X194901Y462326D01*
X194937Y462242D01*
X194963Y462210D01*
X194974Y462190D01*
X194997Y462167D01*
X195042Y462112D01*
X280925Y376228D01*
X280925Y249953D01*
X280939Y249863D01*
X280947Y249772D01*
X280959Y249742D01*
X280964Y249710D01*
X281007Y249629D01*
X281043Y249545D01*
X281069Y249513D01*
X281080Y249493D01*
X281103Y249470D01*
X281109Y249463D01*
X281117Y249449D01*
X281127Y249441D01*
X281148Y249415D01*
X281927Y248636D01*
X282000Y248583D01*
X282070Y248523D01*
X282100Y248511D01*
X282126Y248492D01*
X282213Y248465D01*
X282298Y248431D01*
X282339Y248427D01*
X282361Y248420D01*
X282394Y248421D01*
X282465Y248413D01*
X284341Y248413D01*
X286665Y247450D01*
X288443Y245672D01*
X289406Y243348D01*
X289406Y240832D01*
X288443Y238508D01*
X286665Y236730D01*
X284341Y235767D01*
X281825Y235767D01*
G37*
%LPD*%
%LPC*%
G36*
X680224Y248505D02*
X680224Y248505D01*
X678735Y249994D01*
X678735Y263178D01*
X679533Y263976D01*
X679574Y264034D01*
X679624Y264086D01*
X679646Y264133D01*
X679676Y264175D01*
X679697Y264244D01*
X679727Y264309D01*
X679733Y264361D01*
X679749Y264411D01*
X679747Y264482D01*
X679755Y264553D01*
X679743Y264604D01*
X679742Y264656D01*
X679718Y264724D01*
X679702Y264794D01*
X679676Y264839D01*
X679658Y264887D01*
X679613Y264943D01*
X679576Y265005D01*
X679537Y265039D01*
X679504Y265079D01*
X679444Y265118D01*
X679389Y265165D01*
X679341Y265184D01*
X679297Y265212D01*
X679228Y265230D01*
X679161Y265257D01*
X679090Y265265D01*
X679059Y265273D01*
X679035Y265271D01*
X678994Y265275D01*
X667230Y265275D01*
X667210Y265272D01*
X667191Y265274D01*
X667089Y265252D01*
X666987Y265236D01*
X666970Y265226D01*
X666950Y265222D01*
X666861Y265169D01*
X666770Y265120D01*
X666756Y265106D01*
X666739Y265096D01*
X666672Y265017D01*
X666600Y264942D01*
X666592Y264924D01*
X666579Y264909D01*
X666540Y264813D01*
X666497Y264719D01*
X666495Y264699D01*
X666487Y264681D01*
X666469Y264514D01*
X666469Y264299D01*
X665506Y261975D01*
X663728Y260197D01*
X661404Y259234D01*
X658888Y259234D01*
X656564Y260197D01*
X654786Y261975D01*
X653823Y264299D01*
X653823Y266815D01*
X654786Y269139D01*
X656564Y270917D01*
X658888Y271880D01*
X660764Y271880D01*
X660854Y271894D01*
X660945Y271902D01*
X660975Y271914D01*
X661007Y271919D01*
X661088Y271962D01*
X661172Y271998D01*
X661204Y272024D01*
X661224Y272035D01*
X661247Y272058D01*
X661302Y272103D01*
X662097Y272897D01*
X679139Y272897D01*
X679254Y272916D01*
X679370Y272933D01*
X679376Y272935D01*
X679382Y272936D01*
X679485Y272991D01*
X679589Y273044D01*
X679594Y273049D01*
X679599Y273052D01*
X679679Y273136D01*
X679762Y273220D01*
X679765Y273226D01*
X679769Y273230D01*
X679777Y273247D01*
X679843Y273367D01*
X679966Y273663D01*
X681100Y274798D01*
X681111Y274814D01*
X681127Y274826D01*
X681183Y274914D01*
X681243Y274997D01*
X681249Y275016D01*
X681260Y275033D01*
X681285Y275134D01*
X681316Y275233D01*
X681315Y275252D01*
X681320Y275272D01*
X681312Y275375D01*
X681309Y275478D01*
X681303Y275497D01*
X681301Y275517D01*
X681261Y275612D01*
X681225Y275709D01*
X681212Y275725D01*
X681205Y275743D01*
X681100Y275874D01*
X679966Y277009D01*
X678735Y279979D01*
X678735Y283193D01*
X679966Y286163D01*
X681100Y287298D01*
X681111Y287314D01*
X681127Y287326D01*
X681183Y287413D01*
X681243Y287497D01*
X681249Y287516D01*
X681260Y287533D01*
X681285Y287634D01*
X681316Y287733D01*
X681315Y287752D01*
X681320Y287772D01*
X681312Y287875D01*
X681309Y287978D01*
X681303Y287997D01*
X681301Y288017D01*
X681261Y288112D01*
X681225Y288209D01*
X681212Y288225D01*
X681205Y288243D01*
X681100Y288374D01*
X680539Y288935D01*
X679655Y290258D01*
X679046Y291729D01*
X678875Y292587D01*
X686078Y292587D01*
X686097Y292590D01*
X686117Y292588D01*
X686219Y292610D01*
X686321Y292626D01*
X686338Y292636D01*
X686358Y292640D01*
X686447Y292693D01*
X686538Y292742D01*
X686552Y292756D01*
X686569Y292766D01*
X686636Y292845D01*
X686707Y292920D01*
X686716Y292938D01*
X686729Y292953D01*
X686767Y293049D01*
X686811Y293143D01*
X686813Y293163D01*
X686820Y293181D01*
X686833Y293105D01*
X686842Y293088D01*
X686846Y293068D01*
X686899Y292979D01*
X686948Y292888D01*
X686962Y292874D01*
X686972Y292857D01*
X687051Y292790D01*
X687126Y292718D01*
X687144Y292710D01*
X687159Y292697D01*
X687256Y292658D01*
X687349Y292615D01*
X687369Y292613D01*
X687387Y292605D01*
X687554Y292587D01*
X694757Y292587D01*
X694586Y291729D01*
X693977Y290258D01*
X693093Y288935D01*
X692532Y288374D01*
X692520Y288358D01*
X692505Y288346D01*
X692449Y288259D01*
X692389Y288175D01*
X692383Y288156D01*
X692372Y288139D01*
X692347Y288038D01*
X692316Y287939D01*
X692317Y287920D01*
X692312Y287900D01*
X692320Y287797D01*
X692323Y287694D01*
X692329Y287675D01*
X692331Y287655D01*
X692371Y287560D01*
X692407Y287463D01*
X692420Y287447D01*
X692427Y287429D01*
X692532Y287298D01*
X692599Y287231D01*
X692615Y287219D01*
X692628Y287204D01*
X692715Y287147D01*
X692799Y287087D01*
X692818Y287081D01*
X692835Y287071D01*
X692935Y287045D01*
X693034Y287015D01*
X693054Y287015D01*
X693073Y287011D01*
X693176Y287019D01*
X693280Y287021D01*
X693299Y287028D01*
X693318Y287030D01*
X693413Y287070D01*
X693511Y287106D01*
X693526Y287118D01*
X693545Y287126D01*
X693676Y287231D01*
X701551Y295107D01*
X704007Y297562D01*
X721752Y297562D01*
X721842Y297576D01*
X721933Y297584D01*
X721963Y297596D01*
X721995Y297601D01*
X722076Y297644D01*
X722160Y297680D01*
X722192Y297706D01*
X722212Y297717D01*
X722235Y297740D01*
X722290Y297785D01*
X722730Y298225D01*
X722797Y298318D01*
X722868Y298413D01*
X722870Y298419D01*
X722874Y298424D01*
X722908Y298535D01*
X722944Y298647D01*
X722944Y298653D01*
X722946Y298659D01*
X722943Y298775D01*
X722942Y298893D01*
X722940Y298900D01*
X722940Y298905D01*
X722933Y298923D01*
X722895Y299054D01*
X721867Y301536D01*
X721867Y306286D01*
X723685Y310674D01*
X727043Y314032D01*
X731431Y315850D01*
X736181Y315850D01*
X740569Y314032D01*
X743927Y310674D01*
X745745Y306286D01*
X745745Y301536D01*
X743927Y297148D01*
X740569Y293790D01*
X736181Y291972D01*
X731431Y291972D01*
X728949Y293000D01*
X728836Y293027D01*
X728722Y293056D01*
X728716Y293055D01*
X728710Y293057D01*
X728593Y293046D01*
X728477Y293036D01*
X728471Y293034D01*
X728465Y293033D01*
X728357Y292986D01*
X728251Y292940D01*
X728245Y292936D01*
X728240Y292933D01*
X728226Y292921D01*
X728120Y292835D01*
X725224Y289940D01*
X707479Y289940D01*
X707389Y289926D01*
X707298Y289918D01*
X707268Y289906D01*
X707236Y289901D01*
X707155Y289858D01*
X707071Y289822D01*
X707039Y289796D01*
X707019Y289785D01*
X706996Y289762D01*
X706941Y289717D01*
X700844Y283621D01*
X700803Y283563D01*
X700753Y283511D01*
X700731Y283464D01*
X700701Y283422D01*
X700680Y283353D01*
X700650Y283288D01*
X700644Y283236D01*
X700629Y283186D01*
X700630Y283115D01*
X700623Y283044D01*
X700634Y282993D01*
X700635Y282941D01*
X700660Y282873D01*
X700675Y282803D01*
X700701Y282758D01*
X700719Y282710D01*
X700764Y282654D01*
X700801Y282592D01*
X700841Y282558D01*
X700873Y282518D01*
X700933Y282479D01*
X700988Y282432D01*
X701036Y282413D01*
X701080Y282385D01*
X701149Y282367D01*
X701216Y282340D01*
X701287Y282332D01*
X701319Y282324D01*
X701342Y282326D01*
X701383Y282322D01*
X721953Y282322D01*
X722068Y282341D01*
X722184Y282358D01*
X722190Y282360D01*
X722196Y282361D01*
X722299Y282416D01*
X722404Y282469D01*
X722408Y282474D01*
X722414Y282477D01*
X722493Y282561D01*
X722576Y282645D01*
X722579Y282651D01*
X722583Y282655D01*
X722591Y282672D01*
X722657Y282792D01*
X723685Y285274D01*
X727043Y288632D01*
X731431Y290450D01*
X736181Y290450D01*
X740569Y288632D01*
X743927Y285274D01*
X744955Y282792D01*
X745017Y282692D01*
X745077Y282592D01*
X745082Y282588D01*
X745085Y282583D01*
X745175Y282508D01*
X745264Y282432D01*
X745270Y282430D01*
X745274Y282426D01*
X745382Y282384D01*
X745492Y282340D01*
X745499Y282339D01*
X745504Y282338D01*
X745522Y282337D01*
X745659Y282322D01*
X747787Y282322D01*
X747877Y282336D01*
X747968Y282344D01*
X747998Y282356D01*
X748030Y282361D01*
X748111Y282404D01*
X748195Y282440D01*
X748227Y282466D01*
X748247Y282477D01*
X748270Y282500D01*
X748325Y282545D01*
X749076Y283296D01*
X749129Y283369D01*
X749189Y283439D01*
X749201Y283469D01*
X749220Y283495D01*
X749247Y283582D01*
X749281Y283667D01*
X749285Y283708D01*
X749292Y283730D01*
X749291Y283763D01*
X749299Y283834D01*
X749299Y354584D01*
X749296Y354604D01*
X749298Y354623D01*
X749276Y354725D01*
X749260Y354827D01*
X749250Y354844D01*
X749246Y354864D01*
X749193Y354953D01*
X749144Y355044D01*
X749130Y355058D01*
X749120Y355075D01*
X749041Y355142D01*
X748966Y355214D01*
X748948Y355222D01*
X748933Y355235D01*
X748837Y355274D01*
X748743Y355317D01*
X748723Y355319D01*
X748705Y355327D01*
X748538Y355345D01*
X746929Y355345D01*
X746814Y355326D01*
X746698Y355309D01*
X746692Y355307D01*
X746686Y355306D01*
X746583Y355251D01*
X746478Y355198D01*
X746474Y355193D01*
X746468Y355190D01*
X746389Y355106D01*
X746306Y355022D01*
X746303Y355016D01*
X746299Y355012D01*
X746291Y354995D01*
X746225Y354875D01*
X745197Y352393D01*
X741839Y349035D01*
X737451Y347217D01*
X732701Y347217D01*
X728313Y349035D01*
X724955Y352393D01*
X723137Y356781D01*
X723137Y361531D01*
X724955Y365919D01*
X728313Y369277D01*
X732701Y371095D01*
X737451Y371095D01*
X741839Y369277D01*
X745197Y365919D01*
X746225Y363437D01*
X746287Y363337D01*
X746347Y363237D01*
X746352Y363233D01*
X746355Y363228D01*
X746445Y363153D01*
X746534Y363077D01*
X746540Y363075D01*
X746544Y363071D01*
X746652Y363029D01*
X746762Y362985D01*
X746769Y362984D01*
X746774Y362983D01*
X746792Y362982D01*
X746929Y362967D01*
X753164Y362967D01*
X756921Y359210D01*
X756921Y280362D01*
X751259Y274700D01*
X745659Y274700D01*
X745544Y274681D01*
X745428Y274664D01*
X745422Y274662D01*
X745416Y274661D01*
X745313Y274606D01*
X745208Y274553D01*
X745204Y274548D01*
X745198Y274545D01*
X745118Y274461D01*
X745036Y274377D01*
X745033Y274371D01*
X745029Y274367D01*
X745021Y274350D01*
X744955Y274230D01*
X743927Y271748D01*
X740569Y268390D01*
X736181Y266572D01*
X731431Y266572D01*
X727043Y268390D01*
X723685Y271748D01*
X722657Y274230D01*
X722595Y274330D01*
X722535Y274430D01*
X722530Y274434D01*
X722527Y274439D01*
X722437Y274514D01*
X722348Y274590D01*
X722342Y274592D01*
X722338Y274596D01*
X722230Y274638D01*
X722120Y274682D01*
X722113Y274683D01*
X722108Y274684D01*
X722090Y274685D01*
X721953Y274700D01*
X698135Y274700D01*
X698045Y274686D01*
X697954Y274678D01*
X697924Y274666D01*
X697892Y274661D01*
X697811Y274618D01*
X697727Y274582D01*
X697695Y274556D01*
X697675Y274545D01*
X697652Y274522D01*
X697597Y274477D01*
X694939Y271820D01*
X694871Y271725D01*
X694801Y271631D01*
X694799Y271625D01*
X694795Y271620D01*
X694761Y271508D01*
X694725Y271397D01*
X694725Y271391D01*
X694723Y271385D01*
X694726Y271268D01*
X694727Y271151D01*
X694729Y271144D01*
X694729Y271139D01*
X694736Y271121D01*
X694774Y270990D01*
X694897Y270693D01*
X694897Y267479D01*
X693832Y264908D01*
X693805Y264794D01*
X693777Y264681D01*
X693777Y264675D01*
X693776Y264668D01*
X693787Y264552D01*
X693796Y264436D01*
X693798Y264430D01*
X693799Y264424D01*
X693846Y264317D01*
X693892Y264209D01*
X693897Y264203D01*
X693899Y264199D01*
X693911Y264185D01*
X693997Y264078D01*
X694897Y263178D01*
X694897Y249994D01*
X693408Y248505D01*
X680224Y248505D01*
G37*
%LPD*%
%LPC*%
G36*
X646044Y629189D02*
X646044Y629189D01*
X637256Y632829D01*
X630529Y639556D01*
X626889Y648344D01*
X626889Y657856D01*
X630529Y666644D01*
X637256Y673371D01*
X646044Y677011D01*
X655556Y677011D01*
X664344Y673371D01*
X671071Y666644D01*
X674711Y657856D01*
X674711Y648344D01*
X671071Y639556D01*
X664344Y632829D01*
X655556Y629189D01*
X646044Y629189D01*
G37*
%LPD*%
%LPC*%
G36*
X646044Y49189D02*
X646044Y49189D01*
X637256Y52829D01*
X630529Y59556D01*
X626889Y68344D01*
X626889Y77856D01*
X630529Y86644D01*
X637256Y93371D01*
X646044Y97011D01*
X655556Y97011D01*
X664344Y93371D01*
X671071Y86644D01*
X674711Y77856D01*
X674711Y68344D01*
X671071Y59556D01*
X664344Y52829D01*
X655556Y49189D01*
X646044Y49189D01*
G37*
%LPD*%
%LPC*%
G36*
X406057Y306831D02*
X406057Y306831D01*
X401669Y308649D01*
X398311Y312007D01*
X396493Y316395D01*
X396493Y321145D01*
X398311Y325533D01*
X401669Y328891D01*
X406057Y330709D01*
X410807Y330709D01*
X415195Y328891D01*
X418553Y325533D01*
X420371Y321145D01*
X420371Y316395D01*
X418553Y312007D01*
X415195Y308649D01*
X410807Y306831D01*
X406057Y306831D01*
G37*
%LPD*%
%LPC*%
G36*
X583857Y205231D02*
X583857Y205231D01*
X579469Y207049D01*
X576111Y210407D01*
X574293Y214795D01*
X574293Y219545D01*
X576111Y223933D01*
X579469Y227291D01*
X583857Y229109D01*
X588607Y229109D01*
X592995Y227291D01*
X596353Y223933D01*
X598171Y219545D01*
X598171Y214795D01*
X596353Y210407D01*
X592995Y207049D01*
X588607Y205231D01*
X583857Y205231D01*
G37*
%LPD*%
%LPC*%
G36*
X406057Y281431D02*
X406057Y281431D01*
X401669Y283249D01*
X398311Y286607D01*
X396493Y290995D01*
X396493Y295745D01*
X398311Y300133D01*
X401669Y303491D01*
X406057Y305309D01*
X410807Y305309D01*
X415195Y303491D01*
X418553Y300133D01*
X420371Y295745D01*
X420371Y290995D01*
X418553Y286607D01*
X415195Y283249D01*
X410807Y281431D01*
X406057Y281431D01*
G37*
%LPD*%
%LPC*%
G36*
X399072Y584834D02*
X399072Y584834D01*
X394684Y586652D01*
X391326Y590010D01*
X389508Y594398D01*
X389508Y599148D01*
X391326Y603536D01*
X394684Y606894D01*
X399072Y608712D01*
X403822Y608712D01*
X408210Y606894D01*
X411568Y603536D01*
X413386Y599148D01*
X413386Y594398D01*
X411568Y590010D01*
X408210Y586652D01*
X403822Y584834D01*
X399072Y584834D01*
G37*
%LPD*%
%LPC*%
G36*
X576872Y584834D02*
X576872Y584834D01*
X572484Y586652D01*
X569126Y590010D01*
X567308Y594398D01*
X567308Y599148D01*
X569126Y603536D01*
X572484Y606894D01*
X576872Y608712D01*
X581622Y608712D01*
X586010Y606894D01*
X589368Y603536D01*
X591186Y599148D01*
X591186Y594398D01*
X589368Y590010D01*
X586010Y586652D01*
X581622Y584834D01*
X576872Y584834D01*
G37*
%LPD*%
%LPC*%
G36*
X272072Y3301D02*
X272072Y3301D01*
X267684Y5119D01*
X264326Y8477D01*
X262508Y12865D01*
X262508Y17615D01*
X264326Y22003D01*
X267684Y25361D01*
X272072Y27179D01*
X276822Y27179D01*
X281210Y25361D01*
X284568Y22003D01*
X286386Y17615D01*
X286386Y12865D01*
X284568Y8477D01*
X281210Y5119D01*
X276822Y3301D01*
X272072Y3301D01*
G37*
%LPD*%
%LPC*%
G36*
X576872Y457834D02*
X576872Y457834D01*
X572484Y459652D01*
X569126Y463010D01*
X567308Y467398D01*
X567308Y472148D01*
X569126Y476536D01*
X572484Y479894D01*
X576872Y481712D01*
X581622Y481712D01*
X586010Y479894D01*
X589368Y476536D01*
X591186Y472148D01*
X591186Y467398D01*
X589368Y463010D01*
X586010Y459652D01*
X581622Y457834D01*
X576872Y457834D01*
G37*
%LPD*%
%LPC*%
G36*
X399072Y559434D02*
X399072Y559434D01*
X394684Y561252D01*
X391326Y564610D01*
X389508Y568998D01*
X389508Y573748D01*
X391326Y578136D01*
X394684Y581494D01*
X399072Y583312D01*
X403822Y583312D01*
X408210Y581494D01*
X411568Y578136D01*
X413386Y573748D01*
X413386Y568998D01*
X411568Y564610D01*
X408210Y561252D01*
X403822Y559434D01*
X399072Y559434D01*
G37*
%LPD*%
%LPC*%
G36*
X576872Y559434D02*
X576872Y559434D01*
X572484Y561252D01*
X569126Y564610D01*
X567308Y568998D01*
X567308Y573748D01*
X569126Y578136D01*
X572484Y581494D01*
X576872Y583312D01*
X581622Y583312D01*
X586010Y581494D01*
X589368Y578136D01*
X591186Y573748D01*
X591186Y568998D01*
X589368Y564610D01*
X586010Y561252D01*
X581622Y559434D01*
X576872Y559434D01*
G37*
%LPD*%
%LPC*%
G36*
X399072Y457834D02*
X399072Y457834D01*
X394684Y459652D01*
X391326Y463010D01*
X389508Y467398D01*
X389508Y472148D01*
X391326Y476536D01*
X394684Y479894D01*
X399072Y481712D01*
X403822Y481712D01*
X408210Y479894D01*
X411568Y476536D01*
X413386Y472148D01*
X413386Y467398D01*
X411568Y463010D01*
X408210Y459652D01*
X403822Y457834D01*
X399072Y457834D01*
G37*
%LPD*%
%LPC*%
G36*
X732701Y372617D02*
X732701Y372617D01*
X728313Y374435D01*
X724955Y377793D01*
X723137Y382181D01*
X723137Y386931D01*
X724955Y391319D01*
X728313Y394677D01*
X732701Y396495D01*
X737451Y396495D01*
X741839Y394677D01*
X745197Y391319D01*
X747015Y386931D01*
X747015Y382181D01*
X745197Y377793D01*
X741839Y374435D01*
X737451Y372617D01*
X732701Y372617D01*
G37*
%LPD*%
%LPC*%
G36*
X583857Y230631D02*
X583857Y230631D01*
X579469Y232449D01*
X576111Y235807D01*
X574293Y240195D01*
X574293Y244945D01*
X576111Y249333D01*
X579469Y252691D01*
X583857Y254509D01*
X588607Y254509D01*
X592995Y252691D01*
X596353Y249333D01*
X598171Y244945D01*
X598171Y240195D01*
X596353Y235807D01*
X592995Y232449D01*
X588607Y230631D01*
X583857Y230631D01*
G37*
%LPD*%
%LPC*%
G36*
X583857Y281431D02*
X583857Y281431D01*
X579469Y283249D01*
X576111Y286607D01*
X574293Y290995D01*
X574293Y295745D01*
X576111Y300133D01*
X579469Y303491D01*
X583857Y305309D01*
X588607Y305309D01*
X592995Y303491D01*
X596353Y300133D01*
X598171Y295745D01*
X598171Y290995D01*
X596353Y286607D01*
X592995Y283249D01*
X588607Y281431D01*
X583857Y281431D01*
G37*
%LPD*%
%LPC*%
G36*
X732701Y321817D02*
X732701Y321817D01*
X728313Y323635D01*
X724955Y326993D01*
X723137Y331381D01*
X723137Y336131D01*
X724955Y340519D01*
X728313Y343877D01*
X732701Y345695D01*
X737451Y345695D01*
X741839Y343877D01*
X745197Y340519D01*
X747015Y336131D01*
X747015Y331381D01*
X745197Y326993D01*
X741839Y323635D01*
X737451Y321817D01*
X732701Y321817D01*
G37*
%LPD*%
%LPC*%
G36*
X583857Y256031D02*
X583857Y256031D01*
X579469Y257849D01*
X576111Y261207D01*
X574293Y265595D01*
X574293Y270345D01*
X576111Y274733D01*
X579469Y278091D01*
X583857Y279909D01*
X588607Y279909D01*
X592995Y278091D01*
X596353Y274733D01*
X598171Y270345D01*
X598171Y265595D01*
X596353Y261207D01*
X592995Y257849D01*
X588607Y256031D01*
X583857Y256031D01*
G37*
%LPD*%
%LPC*%
G36*
X216192Y3809D02*
X216192Y3809D01*
X211804Y5627D01*
X208446Y8985D01*
X206628Y13373D01*
X206628Y18123D01*
X208446Y22511D01*
X211804Y25869D01*
X216192Y27687D01*
X220942Y27687D01*
X225330Y25869D01*
X228688Y22511D01*
X230506Y18123D01*
X230506Y13373D01*
X228688Y8985D01*
X225330Y5627D01*
X220942Y3809D01*
X216192Y3809D01*
G37*
%LPD*%
%LPC*%
G36*
X145935Y593470D02*
X145935Y593470D01*
X141967Y595114D01*
X138930Y598151D01*
X137286Y602119D01*
X137286Y606413D01*
X138930Y610381D01*
X141967Y613418D01*
X145935Y615062D01*
X150229Y615062D01*
X154197Y613418D01*
X157234Y610381D01*
X158878Y606413D01*
X158878Y602119D01*
X157234Y598151D01*
X154197Y595114D01*
X150229Y593470D01*
X145935Y593470D01*
G37*
%LPD*%
%LPC*%
G36*
X145935Y237870D02*
X145935Y237870D01*
X141967Y239514D01*
X138930Y242551D01*
X137286Y246519D01*
X137286Y250813D01*
X138930Y254781D01*
X141967Y257818D01*
X145935Y259462D01*
X150229Y259462D01*
X154197Y257818D01*
X157234Y254781D01*
X158878Y250813D01*
X158878Y246519D01*
X157234Y242551D01*
X154197Y239514D01*
X150229Y237870D01*
X145935Y237870D01*
G37*
%LPD*%
%LPC*%
G36*
X145935Y542670D02*
X145935Y542670D01*
X141967Y544314D01*
X138930Y547351D01*
X137286Y551319D01*
X137286Y555613D01*
X138930Y559581D01*
X141967Y562618D01*
X145935Y564262D01*
X150229Y564262D01*
X154197Y562618D01*
X157234Y559581D01*
X158878Y555613D01*
X158878Y551319D01*
X157234Y547351D01*
X154197Y544314D01*
X150229Y542670D01*
X145935Y542670D01*
G37*
%LPD*%
%LPC*%
G36*
X171335Y466470D02*
X171335Y466470D01*
X167367Y468114D01*
X164330Y471151D01*
X162686Y475119D01*
X162686Y479413D01*
X164330Y483381D01*
X167367Y486418D01*
X171335Y488062D01*
X175629Y488062D01*
X179597Y486418D01*
X182634Y483381D01*
X184278Y479413D01*
X184278Y475119D01*
X182634Y471151D01*
X179597Y468114D01*
X175629Y466470D01*
X171335Y466470D01*
G37*
%LPD*%
%LPC*%
G36*
X171335Y491870D02*
X171335Y491870D01*
X167367Y493514D01*
X164330Y496551D01*
X162686Y500519D01*
X162686Y504813D01*
X164330Y508781D01*
X167367Y511818D01*
X171335Y513462D01*
X175629Y513462D01*
X179597Y511818D01*
X182634Y508781D01*
X184278Y504813D01*
X184278Y500519D01*
X182634Y496551D01*
X179597Y493514D01*
X175629Y491870D01*
X171335Y491870D01*
G37*
%LPD*%
%LPC*%
G36*
X171335Y441070D02*
X171335Y441070D01*
X167367Y442714D01*
X164330Y445751D01*
X162686Y449719D01*
X162686Y454013D01*
X164330Y457981D01*
X167367Y461018D01*
X171335Y462662D01*
X175629Y462662D01*
X179597Y461018D01*
X182634Y457981D01*
X184278Y454013D01*
X184278Y449719D01*
X182634Y445751D01*
X179597Y442714D01*
X175629Y441070D01*
X171335Y441070D01*
G37*
%LPD*%
%LPC*%
G36*
X171335Y517270D02*
X171335Y517270D01*
X167367Y518914D01*
X164330Y521951D01*
X162686Y525919D01*
X162686Y530213D01*
X164330Y534181D01*
X167367Y537218D01*
X171335Y538862D01*
X175629Y538862D01*
X179597Y537218D01*
X182634Y534181D01*
X184278Y530213D01*
X184278Y525919D01*
X182634Y521951D01*
X179597Y518914D01*
X175629Y517270D01*
X171335Y517270D01*
G37*
%LPD*%
%LPC*%
G36*
X210324Y43969D02*
X210324Y43969D01*
X208000Y44932D01*
X206222Y46710D01*
X205259Y49034D01*
X205259Y51550D01*
X206222Y53874D01*
X208000Y55652D01*
X210324Y56615D01*
X212840Y56615D01*
X215164Y55652D01*
X215220Y55596D01*
X215294Y55543D01*
X215363Y55483D01*
X215394Y55471D01*
X215420Y55452D01*
X215507Y55425D01*
X215592Y55391D01*
X215633Y55387D01*
X215655Y55380D01*
X215687Y55381D01*
X215758Y55373D01*
X226075Y55373D01*
X226165Y55387D01*
X226256Y55395D01*
X226285Y55407D01*
X226317Y55412D01*
X226398Y55455D01*
X226482Y55491D01*
X226514Y55517D01*
X226535Y55528D01*
X226557Y55551D01*
X226613Y55596D01*
X226669Y55652D01*
X228993Y56615D01*
X231509Y56615D01*
X233833Y55652D01*
X235611Y53874D01*
X236574Y51550D01*
X236574Y49034D01*
X235611Y46710D01*
X233833Y44932D01*
X231509Y43969D01*
X228993Y43969D01*
X226669Y44932D01*
X226613Y44988D01*
X226539Y45041D01*
X226470Y45101D01*
X226439Y45113D01*
X226413Y45132D01*
X226326Y45159D01*
X226241Y45193D01*
X226200Y45197D01*
X226178Y45204D01*
X226146Y45203D01*
X226075Y45211D01*
X215758Y45211D01*
X215668Y45197D01*
X215577Y45189D01*
X215548Y45177D01*
X215516Y45172D01*
X215435Y45129D01*
X215351Y45093D01*
X215319Y45067D01*
X215298Y45056D01*
X215276Y45033D01*
X215220Y44988D01*
X215164Y44932D01*
X212840Y43969D01*
X210324Y43969D01*
G37*
%LPD*%
%LPC*%
G36*
X61479Y243839D02*
X61479Y243839D01*
X57744Y245386D01*
X54886Y248244D01*
X53339Y251979D01*
X53339Y256021D01*
X54886Y259756D01*
X57744Y262614D01*
X61479Y264161D01*
X65521Y264161D01*
X69256Y262614D01*
X72114Y259756D01*
X73661Y256021D01*
X73661Y251979D01*
X72114Y248244D01*
X69256Y245386D01*
X65521Y243839D01*
X61479Y243839D01*
G37*
%LPD*%
%LPC*%
G36*
X36079Y116839D02*
X36079Y116839D01*
X32344Y118386D01*
X29486Y121244D01*
X27939Y124979D01*
X27939Y129021D01*
X29486Y132756D01*
X32344Y135614D01*
X36079Y137161D01*
X40121Y137161D01*
X43856Y135614D01*
X46714Y132756D01*
X48261Y129021D01*
X48261Y124979D01*
X46714Y121244D01*
X43856Y118386D01*
X40121Y116839D01*
X36079Y116839D01*
G37*
%LPD*%
%LPC*%
G36*
X36079Y243839D02*
X36079Y243839D01*
X32344Y245386D01*
X29486Y248244D01*
X27939Y251979D01*
X27939Y256021D01*
X29486Y259756D01*
X32344Y262614D01*
X36079Y264161D01*
X40121Y264161D01*
X43856Y262614D01*
X46714Y259756D01*
X48261Y256021D01*
X48261Y251979D01*
X46714Y248244D01*
X43856Y245386D01*
X40121Y243839D01*
X36079Y243839D01*
G37*
%LPD*%
%LPC*%
G36*
X61479Y142239D02*
X61479Y142239D01*
X57744Y143786D01*
X54886Y146644D01*
X53339Y150379D01*
X53339Y154421D01*
X54886Y158156D01*
X57744Y161014D01*
X61479Y162561D01*
X65521Y162561D01*
X69256Y161014D01*
X72114Y158156D01*
X73661Y154421D01*
X73661Y150379D01*
X72114Y146644D01*
X69256Y143786D01*
X65521Y142239D01*
X61479Y142239D01*
G37*
%LPD*%
%LPC*%
G36*
X61479Y320039D02*
X61479Y320039D01*
X57744Y321586D01*
X54886Y324444D01*
X53339Y328179D01*
X53339Y332221D01*
X54886Y335956D01*
X57744Y338814D01*
X61479Y340361D01*
X65521Y340361D01*
X69256Y338814D01*
X72114Y335956D01*
X73661Y332221D01*
X73661Y328179D01*
X72114Y324444D01*
X69256Y321586D01*
X65521Y320039D01*
X61479Y320039D01*
G37*
%LPD*%
%LPC*%
G36*
X36079Y91439D02*
X36079Y91439D01*
X32344Y92986D01*
X29486Y95844D01*
X27939Y99579D01*
X27939Y103621D01*
X29486Y107356D01*
X32344Y110214D01*
X36079Y111761D01*
X40121Y111761D01*
X43856Y110214D01*
X46714Y107356D01*
X48261Y103621D01*
X48261Y99579D01*
X46714Y95844D01*
X43856Y92986D01*
X40121Y91439D01*
X36079Y91439D01*
G37*
%LPD*%
%LPC*%
G36*
X36079Y320039D02*
X36079Y320039D01*
X32344Y321586D01*
X29486Y324444D01*
X27939Y328179D01*
X27939Y332221D01*
X29486Y335956D01*
X32344Y338814D01*
X36079Y340361D01*
X40121Y340361D01*
X43856Y338814D01*
X46714Y335956D01*
X48261Y332221D01*
X48261Y328179D01*
X46714Y324444D01*
X43856Y321586D01*
X40121Y320039D01*
X36079Y320039D01*
G37*
%LPD*%
%LPC*%
G36*
X36079Y142239D02*
X36079Y142239D01*
X32344Y143786D01*
X29486Y146644D01*
X27939Y150379D01*
X27939Y154421D01*
X29486Y158156D01*
X32344Y161014D01*
X36079Y162561D01*
X40121Y162561D01*
X43856Y161014D01*
X46714Y158156D01*
X48261Y154421D01*
X48261Y150379D01*
X46714Y146644D01*
X43856Y143786D01*
X40121Y142239D01*
X36079Y142239D01*
G37*
%LPD*%
%LPC*%
G36*
X61479Y91439D02*
X61479Y91439D01*
X57744Y92986D01*
X54886Y95844D01*
X53339Y99579D01*
X53339Y103621D01*
X54886Y107356D01*
X57744Y110214D01*
X61479Y111761D01*
X65521Y111761D01*
X69256Y110214D01*
X72114Y107356D01*
X73661Y103621D01*
X73661Y99579D01*
X72114Y95844D01*
X69256Y92986D01*
X65521Y91439D01*
X61479Y91439D01*
G37*
%LPD*%
%LPC*%
G36*
X61479Y167639D02*
X61479Y167639D01*
X57744Y169186D01*
X54886Y172044D01*
X53339Y175779D01*
X53339Y179821D01*
X54886Y183556D01*
X57744Y186414D01*
X61479Y187961D01*
X65521Y187961D01*
X69256Y186414D01*
X72114Y183556D01*
X73661Y179821D01*
X73661Y175779D01*
X72114Y172044D01*
X69256Y169186D01*
X65521Y167639D01*
X61479Y167639D01*
G37*
%LPD*%
%LPC*%
G36*
X36079Y167639D02*
X36079Y167639D01*
X32344Y169186D01*
X29486Y172044D01*
X27939Y175779D01*
X27939Y179821D01*
X29486Y183556D01*
X32344Y186414D01*
X36079Y187961D01*
X40121Y187961D01*
X43856Y186414D01*
X46714Y183556D01*
X48261Y179821D01*
X48261Y175779D01*
X46714Y172044D01*
X43856Y169186D01*
X40121Y167639D01*
X36079Y167639D01*
G37*
%LPD*%
%LPC*%
G36*
X61479Y269239D02*
X61479Y269239D01*
X57744Y270786D01*
X54886Y273644D01*
X53339Y277379D01*
X53339Y281421D01*
X54886Y285156D01*
X57744Y288014D01*
X61479Y289561D01*
X65521Y289561D01*
X69256Y288014D01*
X72114Y285156D01*
X73661Y281421D01*
X73661Y277379D01*
X72114Y273644D01*
X69256Y270786D01*
X65521Y269239D01*
X61479Y269239D01*
G37*
%LPD*%
%LPC*%
G36*
X36079Y193039D02*
X36079Y193039D01*
X32344Y194586D01*
X29486Y197444D01*
X27939Y201179D01*
X27939Y205221D01*
X29486Y208956D01*
X32344Y211814D01*
X36079Y213361D01*
X40121Y213361D01*
X43856Y211814D01*
X46714Y208956D01*
X48261Y205221D01*
X48261Y201179D01*
X46714Y197444D01*
X43856Y194586D01*
X40121Y193039D01*
X36079Y193039D01*
G37*
%LPD*%
%LPC*%
G36*
X36079Y269239D02*
X36079Y269239D01*
X32344Y270786D01*
X29486Y273644D01*
X27939Y277379D01*
X27939Y281421D01*
X29486Y285156D01*
X32344Y288014D01*
X36079Y289561D01*
X40121Y289561D01*
X43856Y288014D01*
X46714Y285156D01*
X48261Y281421D01*
X48261Y277379D01*
X46714Y273644D01*
X43856Y270786D01*
X40121Y269239D01*
X36079Y269239D01*
G37*
%LPD*%
%LPC*%
G36*
X61479Y193039D02*
X61479Y193039D01*
X57744Y194586D01*
X54886Y197444D01*
X53339Y201179D01*
X53339Y205221D01*
X54886Y208956D01*
X57744Y211814D01*
X61479Y213361D01*
X65521Y213361D01*
X69256Y211814D01*
X72114Y208956D01*
X73661Y205221D01*
X73661Y201179D01*
X72114Y197444D01*
X69256Y194586D01*
X65521Y193039D01*
X61479Y193039D01*
G37*
%LPD*%
%LPC*%
G36*
X61479Y116839D02*
X61479Y116839D01*
X57744Y118386D01*
X54886Y121244D01*
X53339Y124979D01*
X53339Y129021D01*
X54886Y132756D01*
X57744Y135614D01*
X61479Y137161D01*
X65521Y137161D01*
X69256Y135614D01*
X72114Y132756D01*
X73661Y129021D01*
X73661Y124979D01*
X72114Y121244D01*
X69256Y118386D01*
X65521Y116839D01*
X61479Y116839D01*
G37*
%LPD*%
%LPC*%
G36*
X61479Y218439D02*
X61479Y218439D01*
X57744Y219986D01*
X54886Y222844D01*
X53339Y226579D01*
X53339Y230621D01*
X54886Y234356D01*
X57744Y237214D01*
X61479Y238761D01*
X65521Y238761D01*
X69256Y237214D01*
X72114Y234356D01*
X73661Y230621D01*
X73661Y226579D01*
X72114Y222844D01*
X69256Y219986D01*
X65521Y218439D01*
X61479Y218439D01*
G37*
%LPD*%
%LPC*%
G36*
X36079Y218439D02*
X36079Y218439D01*
X32344Y219986D01*
X29486Y222844D01*
X27939Y226579D01*
X27939Y230621D01*
X29486Y234356D01*
X32344Y237214D01*
X36079Y238761D01*
X40121Y238761D01*
X43856Y237214D01*
X46714Y234356D01*
X48261Y230621D01*
X48261Y226579D01*
X46714Y222844D01*
X43856Y219986D01*
X40121Y218439D01*
X36079Y218439D01*
G37*
%LPD*%
%LPC*%
G36*
X446290Y264822D02*
X446290Y264822D01*
X443966Y265785D01*
X442188Y267563D01*
X441225Y269887D01*
X441225Y272403D01*
X442188Y274727D01*
X442371Y274910D01*
X442424Y274984D01*
X442484Y275053D01*
X442496Y275084D01*
X442515Y275110D01*
X442542Y275197D01*
X442576Y275282D01*
X442580Y275323D01*
X442587Y275345D01*
X442586Y275377D01*
X442594Y275448D01*
X442594Y283225D01*
X442580Y283315D01*
X442572Y283406D01*
X442560Y283435D01*
X442555Y283467D01*
X442512Y283548D01*
X442476Y283632D01*
X442450Y283664D01*
X442439Y283685D01*
X442416Y283707D01*
X442371Y283763D01*
X442315Y283819D01*
X441352Y286143D01*
X441352Y288659D01*
X442315Y290983D01*
X444093Y292761D01*
X446417Y293724D01*
X448933Y293724D01*
X451257Y292761D01*
X453035Y290983D01*
X453998Y288659D01*
X453998Y286143D01*
X453035Y283819D01*
X452979Y283763D01*
X452926Y283689D01*
X452866Y283620D01*
X452854Y283589D01*
X452835Y283563D01*
X452808Y283476D01*
X452774Y283391D01*
X452770Y283350D01*
X452763Y283328D01*
X452764Y283296D01*
X452756Y283225D01*
X452756Y275194D01*
X452770Y275104D01*
X452778Y275013D01*
X452790Y274984D01*
X452795Y274952D01*
X452838Y274871D01*
X452874Y274787D01*
X452893Y274763D01*
X453871Y272403D01*
X453871Y269887D01*
X452908Y267563D01*
X451130Y265785D01*
X448806Y264822D01*
X446290Y264822D01*
G37*
%LPD*%
%LPC*%
G36*
X280149Y82917D02*
X280149Y82917D01*
X280149Y89935D01*
X289960Y89935D01*
X290607Y89762D01*
X291186Y89427D01*
X291659Y88954D01*
X291994Y88375D01*
X292167Y87728D01*
X292167Y82917D01*
X280149Y82917D01*
G37*
%LPD*%
%LPC*%
G36*
X265085Y82917D02*
X265085Y82917D01*
X265085Y87728D01*
X265258Y88375D01*
X265593Y88954D01*
X266066Y89427D01*
X266645Y89762D01*
X267292Y89935D01*
X277103Y89935D01*
X277103Y82917D01*
X265085Y82917D01*
G37*
%LPD*%
%LPC*%
G36*
X280149Y72853D02*
X280149Y72853D01*
X280149Y79871D01*
X292167Y79871D01*
X292167Y75060D01*
X291994Y74413D01*
X291659Y73834D01*
X291186Y73361D01*
X290607Y73026D01*
X289960Y72853D01*
X280149Y72853D01*
G37*
%LPD*%
%LPC*%
G36*
X267292Y72853D02*
X267292Y72853D01*
X266645Y73026D01*
X266066Y73361D01*
X265593Y73834D01*
X265258Y74413D01*
X265085Y75060D01*
X265085Y79871D01*
X277103Y79871D01*
X277103Y72853D01*
X267292Y72853D01*
G37*
%LPD*%
%LPC*%
G36*
X409955Y269493D02*
X409955Y269493D01*
X409955Y279816D01*
X411228Y279615D01*
X413015Y279034D01*
X414689Y278181D01*
X416210Y277076D01*
X417538Y275748D01*
X418643Y274227D01*
X419496Y272553D01*
X420077Y270766D01*
X420278Y269493D01*
X409955Y269493D01*
G37*
%LPD*%
%LPC*%
G36*
X245490Y17271D02*
X245490Y17271D01*
X245490Y27594D01*
X246763Y27393D01*
X248550Y26812D01*
X250224Y25959D01*
X251745Y24854D01*
X253073Y23526D01*
X254178Y22005D01*
X255031Y20331D01*
X255612Y18544D01*
X255813Y17271D01*
X245490Y17271D01*
G37*
%LPD*%
%LPC*%
G36*
X301370Y16763D02*
X301370Y16763D01*
X301370Y27086D01*
X302643Y26885D01*
X304430Y26304D01*
X306104Y25451D01*
X307625Y24346D01*
X308953Y23018D01*
X310058Y21497D01*
X310911Y19823D01*
X311492Y18036D01*
X311693Y16763D01*
X301370Y16763D01*
G37*
%LPD*%
%LPC*%
G36*
X402970Y547496D02*
X402970Y547496D01*
X402970Y557819D01*
X404243Y557618D01*
X406030Y557037D01*
X407704Y556184D01*
X409225Y555079D01*
X410553Y553751D01*
X411658Y552230D01*
X412511Y550556D01*
X413092Y548769D01*
X413293Y547496D01*
X402970Y547496D01*
G37*
%LPD*%
%LPC*%
G36*
X5968Y30606D02*
X5968Y30606D01*
X5968Y40929D01*
X7241Y40728D01*
X9028Y40147D01*
X10702Y39294D01*
X12223Y38189D01*
X13551Y36861D01*
X14656Y35340D01*
X15509Y33666D01*
X16090Y31879D01*
X16291Y30606D01*
X5968Y30606D01*
G37*
%LPD*%
%LPC*%
G36*
X41782Y374395D02*
X41782Y374395D01*
X41782Y384718D01*
X43055Y384517D01*
X44842Y383936D01*
X46516Y383083D01*
X48037Y381978D01*
X49365Y380650D01*
X50470Y379129D01*
X51323Y377455D01*
X51904Y375668D01*
X52105Y374395D01*
X41782Y374395D01*
G37*
%LPD*%
%LPC*%
G36*
X736599Y411479D02*
X736599Y411479D01*
X736599Y421802D01*
X737872Y421601D01*
X739659Y421020D01*
X741333Y420167D01*
X742854Y419062D01*
X744182Y417734D01*
X745287Y416213D01*
X746140Y414539D01*
X746721Y412752D01*
X746922Y411479D01*
X736599Y411479D01*
G37*
%LPD*%
%LPC*%
G36*
X735329Y254634D02*
X735329Y254634D01*
X735329Y264957D01*
X736602Y264756D01*
X738389Y264175D01*
X740063Y263322D01*
X741584Y262217D01*
X742912Y260889D01*
X744017Y259368D01*
X744870Y257694D01*
X745451Y255907D01*
X745652Y254634D01*
X735329Y254634D01*
G37*
%LPD*%
%LPC*%
G36*
X113376Y15112D02*
X113376Y15112D01*
X113577Y16385D01*
X114158Y18172D01*
X115011Y19846D01*
X116116Y21367D01*
X117444Y22695D01*
X118965Y23800D01*
X120639Y24653D01*
X122426Y25234D01*
X123699Y25435D01*
X123699Y15112D01*
X113376Y15112D01*
G37*
%LPD*%
%LPC*%
G36*
X245490Y14225D02*
X245490Y14225D01*
X255813Y14225D01*
X255612Y12952D01*
X255031Y11165D01*
X254178Y9491D01*
X253073Y7970D01*
X251745Y6642D01*
X250224Y5537D01*
X248550Y4684D01*
X246763Y4103D01*
X245490Y3902D01*
X245490Y14225D01*
G37*
%LPD*%
%LPC*%
G36*
X389601Y547496D02*
X389601Y547496D01*
X389802Y548769D01*
X390383Y550556D01*
X391236Y552230D01*
X392341Y553751D01*
X393669Y555079D01*
X395190Y556184D01*
X396864Y557037D01*
X398651Y557618D01*
X399924Y557819D01*
X399924Y547496D01*
X389601Y547496D01*
G37*
%LPD*%
%LPC*%
G36*
X402970Y544450D02*
X402970Y544450D01*
X413293Y544450D01*
X413092Y543177D01*
X412511Y541390D01*
X411658Y539716D01*
X410553Y538195D01*
X409225Y536867D01*
X407704Y535762D01*
X406030Y534909D01*
X404243Y534328D01*
X402970Y534127D01*
X402970Y544450D01*
G37*
%LPD*%
%LPC*%
G36*
X723230Y411479D02*
X723230Y411479D01*
X723431Y412752D01*
X724012Y414539D01*
X724865Y416213D01*
X725970Y417734D01*
X727298Y419062D01*
X728819Y420167D01*
X730493Y421020D01*
X732280Y421601D01*
X733553Y421802D01*
X733553Y411479D01*
X723230Y411479D01*
G37*
%LPD*%
%LPC*%
G36*
X736599Y408433D02*
X736599Y408433D01*
X746922Y408433D01*
X746721Y407160D01*
X746140Y405373D01*
X745287Y403699D01*
X744182Y402178D01*
X742854Y400850D01*
X741333Y399745D01*
X739659Y398892D01*
X737872Y398311D01*
X736599Y398110D01*
X736599Y408433D01*
G37*
%LPD*%
%LPC*%
G36*
X28413Y374395D02*
X28413Y374395D01*
X28614Y375668D01*
X29195Y377455D01*
X30048Y379129D01*
X31153Y380650D01*
X32481Y381978D01*
X34002Y383083D01*
X35676Y383936D01*
X37463Y384517D01*
X38736Y384718D01*
X38736Y374395D01*
X28413Y374395D01*
G37*
%LPD*%
%LPC*%
G36*
X41782Y371349D02*
X41782Y371349D01*
X52105Y371349D01*
X51904Y370076D01*
X51323Y368289D01*
X50470Y366615D01*
X49365Y365094D01*
X48037Y363766D01*
X46516Y362661D01*
X44842Y361808D01*
X43055Y361227D01*
X41782Y361026D01*
X41782Y371349D01*
G37*
%LPD*%
%LPC*%
G36*
X396586Y269493D02*
X396586Y269493D01*
X396787Y270766D01*
X397368Y272553D01*
X398221Y274227D01*
X399326Y275748D01*
X400654Y277076D01*
X402175Y278181D01*
X403849Y279034D01*
X405636Y279615D01*
X406909Y279816D01*
X406909Y269493D01*
X396586Y269493D01*
G37*
%LPD*%
%LPC*%
G36*
X409955Y266447D02*
X409955Y266447D01*
X420278Y266447D01*
X420077Y265174D01*
X419496Y263387D01*
X418643Y261713D01*
X417538Y260192D01*
X416210Y258864D01*
X414689Y257759D01*
X413015Y256906D01*
X411228Y256325D01*
X409955Y256124D01*
X409955Y266447D01*
G37*
%LPD*%
%LPC*%
G36*
X721960Y254634D02*
X721960Y254634D01*
X722161Y255907D01*
X722742Y257694D01*
X723595Y259368D01*
X724700Y260889D01*
X726028Y262217D01*
X727549Y263322D01*
X729223Y264175D01*
X731010Y264756D01*
X732283Y264957D01*
X732283Y254634D01*
X721960Y254634D01*
G37*
%LPD*%
%LPC*%
G36*
X735329Y251588D02*
X735329Y251588D01*
X745652Y251588D01*
X745451Y250315D01*
X744870Y248528D01*
X744017Y246854D01*
X742912Y245333D01*
X741584Y244005D01*
X740063Y242900D01*
X738389Y242047D01*
X736602Y241466D01*
X735329Y241265D01*
X735329Y251588D01*
G37*
%LPD*%
%LPC*%
G36*
X301370Y13717D02*
X301370Y13717D01*
X311693Y13717D01*
X311492Y12444D01*
X310911Y10657D01*
X310058Y8983D01*
X308953Y7462D01*
X307625Y6134D01*
X306104Y5029D01*
X304430Y4176D01*
X302643Y3595D01*
X301370Y3394D01*
X301370Y13717D01*
G37*
%LPD*%
%LPC*%
G36*
X232121Y17271D02*
X232121Y17271D01*
X232322Y18544D01*
X232903Y20331D01*
X233756Y22005D01*
X234861Y23526D01*
X236189Y24854D01*
X237710Y25959D01*
X239384Y26812D01*
X241171Y27393D01*
X242444Y27594D01*
X242444Y17271D01*
X232121Y17271D01*
G37*
%LPD*%
%LPC*%
G36*
X5968Y27560D02*
X5968Y27560D01*
X16291Y27560D01*
X16090Y26287D01*
X15509Y24500D01*
X14656Y22826D01*
X13551Y21305D01*
X12223Y19977D01*
X10702Y18872D01*
X9028Y18019D01*
X7241Y17438D01*
X5968Y17237D01*
X5968Y27560D01*
G37*
%LPD*%
%LPC*%
G36*
X288001Y16763D02*
X288001Y16763D01*
X288202Y18036D01*
X288783Y19823D01*
X289636Y21497D01*
X290741Y23018D01*
X292069Y24346D01*
X293590Y25451D01*
X295264Y26304D01*
X297051Y26885D01*
X298324Y27086D01*
X298324Y16763D01*
X288001Y16763D01*
G37*
%LPD*%
%LPC*%
G36*
X405636Y256325D02*
X405636Y256325D01*
X403849Y256906D01*
X402175Y257759D01*
X400654Y258864D01*
X399326Y260192D01*
X398221Y261713D01*
X397368Y263387D01*
X396787Y265174D01*
X396586Y266447D01*
X406909Y266447D01*
X406909Y256124D01*
X405636Y256325D01*
G37*
%LPD*%
%LPC*%
G36*
X297051Y3595D02*
X297051Y3595D01*
X295264Y4176D01*
X293590Y5029D01*
X292069Y6134D01*
X290741Y7462D01*
X289636Y8983D01*
X288783Y10657D01*
X288202Y12444D01*
X288001Y13717D01*
X298324Y13717D01*
X298324Y3394D01*
X297051Y3595D01*
G37*
%LPD*%
%LPC*%
G36*
X241171Y4103D02*
X241171Y4103D01*
X239384Y4684D01*
X237710Y5537D01*
X236189Y6642D01*
X234861Y7970D01*
X233756Y9491D01*
X232903Y11165D01*
X232322Y12952D01*
X232121Y14225D01*
X242444Y14225D01*
X242444Y3902D01*
X241171Y4103D01*
G37*
%LPD*%
%LPC*%
G36*
X37463Y361227D02*
X37463Y361227D01*
X35676Y361808D01*
X34002Y362661D01*
X32481Y363766D01*
X31153Y365094D01*
X30048Y366615D01*
X29195Y368289D01*
X28614Y370076D01*
X28413Y371349D01*
X38736Y371349D01*
X38736Y361026D01*
X37463Y361227D01*
G37*
%LPD*%
%LPC*%
G36*
X731010Y241466D02*
X731010Y241466D01*
X729223Y242047D01*
X727549Y242900D01*
X726028Y244005D01*
X724700Y245333D01*
X723595Y246854D01*
X722742Y248528D01*
X722161Y250315D01*
X721960Y251588D01*
X732283Y251588D01*
X732283Y241265D01*
X731010Y241466D01*
G37*
%LPD*%
%LPC*%
G36*
X398651Y534328D02*
X398651Y534328D01*
X396864Y534909D01*
X395190Y535762D01*
X393669Y536867D01*
X392341Y538195D01*
X391236Y539716D01*
X390383Y541390D01*
X389802Y543177D01*
X389601Y544450D01*
X399924Y544450D01*
X399924Y534127D01*
X398651Y534328D01*
G37*
%LPD*%
%LPC*%
G36*
X732280Y398311D02*
X732280Y398311D01*
X730493Y398892D01*
X728819Y399745D01*
X727298Y400850D01*
X725970Y402178D01*
X724865Y403699D01*
X724012Y405373D01*
X723431Y407160D01*
X723230Y408433D01*
X733553Y408433D01*
X733553Y398110D01*
X732280Y398311D01*
G37*
%LPD*%
%LPC*%
G36*
X175005Y605789D02*
X175005Y605789D01*
X175005Y614955D01*
X176010Y614796D01*
X177626Y614271D01*
X179140Y613499D01*
X180515Y612500D01*
X181716Y611299D01*
X182715Y609924D01*
X183487Y608410D01*
X184012Y606794D01*
X184171Y605789D01*
X175005Y605789D01*
G37*
%LPD*%
%LPC*%
G36*
X175005Y427989D02*
X175005Y427989D01*
X175005Y437155D01*
X176010Y436996D01*
X177626Y436471D01*
X179140Y435699D01*
X180515Y434700D01*
X181716Y433499D01*
X182715Y432124D01*
X183487Y430610D01*
X184012Y428994D01*
X184171Y427989D01*
X175005Y427989D01*
G37*
%LPD*%
%LPC*%
G36*
X149605Y275589D02*
X149605Y275589D01*
X149605Y284755D01*
X150610Y284596D01*
X152226Y284071D01*
X153740Y283299D01*
X155115Y282300D01*
X156316Y281099D01*
X157315Y279724D01*
X158087Y278210D01*
X158612Y276594D01*
X158771Y275589D01*
X149605Y275589D01*
G37*
%LPD*%
%LPC*%
G36*
X149605Y351789D02*
X149605Y351789D01*
X149605Y360955D01*
X150610Y360796D01*
X152226Y360271D01*
X153740Y359499D01*
X155115Y358500D01*
X156316Y357299D01*
X157315Y355924D01*
X158087Y354410D01*
X158612Y352794D01*
X158771Y351789D01*
X149605Y351789D01*
G37*
%LPD*%
%LPC*%
G36*
X149605Y529589D02*
X149605Y529589D01*
X149605Y538755D01*
X150610Y538596D01*
X152226Y538071D01*
X153740Y537299D01*
X155115Y536300D01*
X156316Y535099D01*
X157315Y533724D01*
X158087Y532210D01*
X158612Y530594D01*
X158771Y529589D01*
X149605Y529589D01*
G37*
%LPD*%
%LPC*%
G36*
X149605Y478789D02*
X149605Y478789D01*
X149605Y487955D01*
X150610Y487796D01*
X152226Y487271D01*
X153740Y486499D01*
X155115Y485500D01*
X156316Y484299D01*
X157315Y482924D01*
X158087Y481410D01*
X158612Y479794D01*
X158771Y478789D01*
X149605Y478789D01*
G37*
%LPD*%
%LPC*%
G36*
X162793Y605789D02*
X162793Y605789D01*
X162952Y606794D01*
X163477Y608410D01*
X164249Y609924D01*
X165248Y611299D01*
X166449Y612500D01*
X167824Y613499D01*
X169338Y614271D01*
X170954Y614796D01*
X171959Y614955D01*
X171959Y605789D01*
X162793Y605789D01*
G37*
%LPD*%
%LPC*%
G36*
X149605Y526543D02*
X149605Y526543D01*
X158771Y526543D01*
X158612Y525538D01*
X158087Y523922D01*
X157315Y522408D01*
X156316Y521033D01*
X155115Y519832D01*
X153740Y518833D01*
X152226Y518061D01*
X150610Y517536D01*
X149605Y517377D01*
X149605Y526543D01*
G37*
%LPD*%
%LPC*%
G36*
X162793Y427989D02*
X162793Y427989D01*
X162952Y428994D01*
X163477Y430610D01*
X164249Y432124D01*
X165248Y433499D01*
X166449Y434700D01*
X167824Y435699D01*
X169338Y436471D01*
X170954Y436996D01*
X171959Y437155D01*
X171959Y427989D01*
X162793Y427989D01*
G37*
%LPD*%
%LPC*%
G36*
X137393Y351789D02*
X137393Y351789D01*
X137552Y352794D01*
X138077Y354410D01*
X138849Y355924D01*
X139848Y357299D01*
X141049Y358500D01*
X142424Y359499D01*
X143938Y360271D01*
X145554Y360796D01*
X146559Y360955D01*
X146559Y351789D01*
X137393Y351789D01*
G37*
%LPD*%
%LPC*%
G36*
X149605Y272543D02*
X149605Y272543D01*
X158771Y272543D01*
X158612Y271538D01*
X158087Y269922D01*
X157315Y268408D01*
X156316Y267033D01*
X155115Y265832D01*
X153740Y264833D01*
X152226Y264061D01*
X150610Y263536D01*
X149605Y263377D01*
X149605Y272543D01*
G37*
%LPD*%
%LPC*%
G36*
X175005Y602743D02*
X175005Y602743D01*
X184171Y602743D01*
X184012Y601738D01*
X183487Y600122D01*
X182715Y598608D01*
X181716Y597233D01*
X180515Y596032D01*
X179140Y595033D01*
X177626Y594261D01*
X176010Y593736D01*
X175005Y593577D01*
X175005Y602743D01*
G37*
%LPD*%
%LPC*%
G36*
X137393Y529589D02*
X137393Y529589D01*
X137552Y530594D01*
X138077Y532210D01*
X138849Y533724D01*
X139848Y535099D01*
X141049Y536300D01*
X142424Y537299D01*
X143938Y538071D01*
X145554Y538596D01*
X146559Y538755D01*
X146559Y529589D01*
X137393Y529589D01*
G37*
%LPD*%
%LPC*%
G36*
X162793Y224789D02*
X162793Y224789D01*
X162952Y225794D01*
X163477Y227410D01*
X164249Y228924D01*
X165248Y230299D01*
X166449Y231500D01*
X167824Y232499D01*
X169338Y233271D01*
X170954Y233796D01*
X171959Y233955D01*
X171959Y224789D01*
X162793Y224789D01*
G37*
%LPD*%
%LPC*%
G36*
X137393Y275589D02*
X137393Y275589D01*
X137552Y276594D01*
X138077Y278210D01*
X138849Y279724D01*
X139848Y281099D01*
X141049Y282300D01*
X142424Y283299D01*
X143938Y284071D01*
X145554Y284596D01*
X146559Y284755D01*
X146559Y275589D01*
X137393Y275589D01*
G37*
%LPD*%
%LPC*%
G36*
X175005Y424943D02*
X175005Y424943D01*
X184171Y424943D01*
X184012Y423938D01*
X183487Y422322D01*
X182715Y420808D01*
X181716Y419433D01*
X180515Y418232D01*
X179140Y417233D01*
X177626Y416461D01*
X176010Y415936D01*
X175005Y415777D01*
X175005Y424943D01*
G37*
%LPD*%
%LPC*%
G36*
X149605Y475743D02*
X149605Y475743D01*
X158771Y475743D01*
X158612Y474738D01*
X158087Y473122D01*
X157315Y471608D01*
X156316Y470233D01*
X155115Y469032D01*
X153740Y468033D01*
X152226Y467261D01*
X150610Y466736D01*
X149605Y466577D01*
X149605Y475743D01*
G37*
%LPD*%
%LPC*%
G36*
X137393Y173989D02*
X137393Y173989D01*
X137552Y174994D01*
X138077Y176610D01*
X138849Y178124D01*
X139848Y179499D01*
X141049Y180700D01*
X142424Y181699D01*
X143938Y182471D01*
X145554Y182996D01*
X146559Y183155D01*
X146559Y173989D01*
X137393Y173989D01*
G37*
%LPD*%
%LPC*%
G36*
X145554Y263536D02*
X145554Y263536D01*
X143938Y264061D01*
X142424Y264833D01*
X141049Y265832D01*
X139848Y267033D01*
X138849Y268408D01*
X138077Y269922D01*
X137552Y271538D01*
X137393Y272543D01*
X146559Y272543D01*
X146559Y263377D01*
X145554Y263536D01*
G37*
%LPD*%
%LPC*%
G36*
X145554Y517536D02*
X145554Y517536D01*
X143938Y518061D01*
X142424Y518833D01*
X141049Y519832D01*
X139848Y521033D01*
X138849Y522408D01*
X138077Y523922D01*
X137552Y525538D01*
X137393Y526543D01*
X146559Y526543D01*
X146559Y517377D01*
X145554Y517536D01*
G37*
%LPD*%
%LPC*%
G36*
X170954Y593736D02*
X170954Y593736D01*
X169338Y594261D01*
X167824Y595033D01*
X166449Y596032D01*
X165248Y597233D01*
X164249Y598608D01*
X163477Y600122D01*
X162952Y601738D01*
X162793Y602743D01*
X171959Y602743D01*
X171959Y593577D01*
X170954Y593736D01*
G37*
%LPD*%
%LPC*%
G36*
X170954Y212736D02*
X170954Y212736D01*
X169338Y213261D01*
X167824Y214033D01*
X166449Y215032D01*
X165248Y216233D01*
X164249Y217608D01*
X163477Y219122D01*
X162952Y220738D01*
X162793Y221743D01*
X171959Y221743D01*
X171959Y212577D01*
X170954Y212736D01*
G37*
%LPD*%
%LPC*%
G36*
X170954Y415936D02*
X170954Y415936D01*
X169338Y416461D01*
X167824Y417233D01*
X166449Y418232D01*
X165248Y419433D01*
X164249Y420808D01*
X163477Y422322D01*
X162952Y423938D01*
X162793Y424943D01*
X171959Y424943D01*
X171959Y415777D01*
X170954Y415936D01*
G37*
%LPD*%
%LPC*%
G36*
X145554Y161936D02*
X145554Y161936D01*
X143938Y162461D01*
X142424Y163233D01*
X141049Y164232D01*
X139848Y165433D01*
X138849Y166808D01*
X138077Y168322D01*
X137552Y169938D01*
X137393Y170943D01*
X146559Y170943D01*
X146559Y161777D01*
X145554Y161936D01*
G37*
%LPD*%
%LPC*%
G36*
X3555Y522223D02*
X3555Y522223D01*
X3555Y530746D01*
X4411Y530611D01*
X5932Y530116D01*
X7357Y529390D01*
X8651Y528450D01*
X9782Y527319D01*
X10722Y526025D01*
X11448Y524600D01*
X11943Y523079D01*
X12078Y522223D01*
X3555Y522223D01*
G37*
%LPD*%
%LPC*%
G36*
X39623Y306323D02*
X39623Y306323D01*
X39623Y314846D01*
X40479Y314711D01*
X42000Y314216D01*
X43425Y313490D01*
X44719Y312550D01*
X45850Y311419D01*
X46790Y310125D01*
X47516Y308700D01*
X48011Y307179D01*
X48146Y306323D01*
X39623Y306323D01*
G37*
%LPD*%
%LPC*%
G36*
X3555Y519177D02*
X3555Y519177D01*
X12078Y519177D01*
X11943Y518321D01*
X11448Y516800D01*
X10722Y515375D01*
X9782Y514081D01*
X8651Y512950D01*
X7357Y512010D01*
X5932Y511284D01*
X4411Y510789D01*
X3555Y510654D01*
X3555Y519177D01*
G37*
%LPD*%
%LPC*%
G36*
X39623Y303277D02*
X39623Y303277D01*
X48146Y303277D01*
X48011Y302421D01*
X47516Y300900D01*
X46790Y299475D01*
X45850Y298181D01*
X44719Y297050D01*
X43425Y296110D01*
X42000Y295384D01*
X40479Y294889D01*
X39623Y294754D01*
X39623Y303277D01*
G37*
%LPD*%
%LPC*%
G36*
X28054Y306323D02*
X28054Y306323D01*
X28189Y307179D01*
X28684Y308700D01*
X29410Y310125D01*
X30350Y311419D01*
X31481Y312550D01*
X32775Y313490D01*
X34200Y314216D01*
X35721Y314711D01*
X36577Y314846D01*
X36577Y306323D01*
X28054Y306323D01*
G37*
%LPD*%
%LPC*%
G36*
X35721Y294889D02*
X35721Y294889D01*
X34200Y295384D01*
X32775Y296110D01*
X31481Y297050D01*
X30350Y298181D01*
X29410Y299475D01*
X28684Y300900D01*
X28189Y302421D01*
X28054Y303277D01*
X36577Y303277D01*
X36577Y294754D01*
X35721Y294889D01*
G37*
%LPD*%
%LPC*%
G36*
X97759Y123697D02*
X97759Y123697D01*
X97759Y127508D01*
X97932Y128155D01*
X98267Y128734D01*
X98740Y129207D01*
X99319Y129542D01*
X99966Y129715D01*
X104277Y129715D01*
X104277Y123697D01*
X97759Y123697D01*
G37*
%LPD*%
%LPC*%
G36*
X97759Y148970D02*
X97759Y148970D01*
X97759Y152781D01*
X97932Y153428D01*
X98267Y154007D01*
X98740Y154480D01*
X99319Y154815D01*
X99966Y154988D01*
X104277Y154988D01*
X104277Y148970D01*
X97759Y148970D01*
G37*
%LPD*%
%LPC*%
G36*
X222854Y128650D02*
X222854Y128650D01*
X222854Y132461D01*
X223027Y133108D01*
X223362Y133687D01*
X223835Y134160D01*
X224414Y134495D01*
X225061Y134668D01*
X229372Y134668D01*
X229372Y128650D01*
X222854Y128650D01*
G37*
%LPD*%
%LPC*%
G36*
X99966Y114633D02*
X99966Y114633D01*
X99319Y114806D01*
X98740Y115141D01*
X98267Y115614D01*
X97932Y116193D01*
X97759Y116840D01*
X97759Y120651D01*
X104277Y120651D01*
X104277Y114633D01*
X99966Y114633D01*
G37*
%LPD*%
%LPC*%
G36*
X99966Y139906D02*
X99966Y139906D01*
X99319Y140079D01*
X98740Y140414D01*
X98267Y140887D01*
X97932Y141466D01*
X97759Y142113D01*
X97759Y145924D01*
X104277Y145924D01*
X104277Y139906D01*
X99966Y139906D01*
G37*
%LPD*%
%LPC*%
G36*
X223791Y96980D02*
X223791Y96980D01*
X223144Y97153D01*
X222565Y97488D01*
X222092Y97961D01*
X221757Y98540D01*
X221584Y99187D01*
X221584Y102998D01*
X228102Y102998D01*
X228102Y96980D01*
X223791Y96980D01*
G37*
%LPD*%
%LPC*%
G36*
X687553Y389819D02*
X687553Y389819D01*
X687553Y396261D01*
X688411Y396090D01*
X689882Y395481D01*
X691205Y394597D01*
X692331Y393471D01*
X693215Y392148D01*
X693824Y390677D01*
X693995Y389819D01*
X687553Y389819D01*
G37*
%LPD*%
%LPC*%
G36*
X688315Y295585D02*
X688315Y295585D01*
X688315Y302027D01*
X689173Y301856D01*
X690644Y301247D01*
X691967Y300363D01*
X693093Y299237D01*
X693977Y297914D01*
X694586Y296443D01*
X694757Y295585D01*
X688315Y295585D01*
G37*
%LPD*%
%LPC*%
G36*
X678113Y389819D02*
X678113Y389819D01*
X678284Y390677D01*
X678893Y392148D01*
X679777Y393471D01*
X680903Y394597D01*
X682226Y395481D01*
X683697Y396090D01*
X684555Y396261D01*
X684555Y389819D01*
X678113Y389819D01*
G37*
%LPD*%
%LPC*%
G36*
X678875Y295585D02*
X678875Y295585D01*
X679046Y296443D01*
X679655Y297914D01*
X680539Y299237D01*
X681665Y300363D01*
X682988Y301247D01*
X684459Y301856D01*
X685317Y302027D01*
X685317Y295585D01*
X678875Y295585D01*
G37*
%LPD*%
%LPC*%
G36*
X408431Y267969D02*
X408431Y267969D01*
X408431Y267971D01*
X408433Y267971D01*
X408433Y267969D01*
X408431Y267969D01*
G37*
%LPD*%
%LPC*%
G36*
X401446Y545972D02*
X401446Y545972D01*
X401446Y545974D01*
X401448Y545974D01*
X401448Y545972D01*
X401446Y545972D01*
G37*
%LPD*%
%LPC*%
G36*
X173481Y426465D02*
X173481Y426465D01*
X173481Y426467D01*
X173483Y426467D01*
X173483Y426465D01*
X173481Y426465D01*
G37*
%LPD*%
%LPC*%
G36*
X148081Y528065D02*
X148081Y528065D01*
X148081Y528067D01*
X148083Y528067D01*
X148083Y528065D01*
X148081Y528065D01*
G37*
%LPD*%
%LPC*%
G36*
X735075Y409955D02*
X735075Y409955D01*
X735075Y409957D01*
X735077Y409957D01*
X735077Y409955D01*
X735075Y409955D01*
G37*
%LPD*%
%LPC*%
G36*
X40258Y372871D02*
X40258Y372871D01*
X40258Y372873D01*
X40260Y372873D01*
X40260Y372871D01*
X40258Y372871D01*
G37*
%LPD*%
%LPC*%
G36*
X38099Y304799D02*
X38099Y304799D01*
X38099Y304801D01*
X38101Y304801D01*
X38101Y304799D01*
X38099Y304799D01*
G37*
%LPD*%
%LPC*%
G36*
X173481Y604265D02*
X173481Y604265D01*
X173481Y604267D01*
X173483Y604267D01*
X173483Y604265D01*
X173481Y604265D01*
G37*
%LPD*%
%LPC*%
G36*
X148081Y274065D02*
X148081Y274065D01*
X148081Y274067D01*
X148083Y274067D01*
X148083Y274065D01*
X148081Y274065D01*
G37*
%LPD*%
%LPC*%
G36*
X243966Y15747D02*
X243966Y15747D01*
X243966Y15749D01*
X243968Y15749D01*
X243968Y15747D01*
X243966Y15747D01*
G37*
%LPD*%
%LPC*%
G36*
X299846Y15239D02*
X299846Y15239D01*
X299846Y15241D01*
X299848Y15241D01*
X299848Y15239D01*
X299846Y15239D01*
G37*
%LPD*%
%LPC*%
G36*
X733805Y253110D02*
X733805Y253110D01*
X733805Y253112D01*
X733807Y253112D01*
X733807Y253110D01*
X733805Y253110D01*
G37*
%LPD*%
%LPC*%
G36*
X278625Y81393D02*
X278625Y81393D01*
X278625Y81395D01*
X278627Y81395D01*
X278627Y81393D01*
X278625Y81393D01*
G37*
%LPD*%
D10*
X105800Y122174D03*
X122800Y122174D03*
X105800Y147447D03*
X122800Y147447D03*
X230895Y127127D03*
X247895Y127127D03*
X229625Y104521D03*
X246625Y104521D03*
D11*
X686816Y256586D03*
D12*
X686816Y269086D03*
X686816Y281586D03*
X686816Y294086D03*
D13*
X735076Y409956D03*
X735076Y384556D03*
X735076Y359156D03*
X735076Y333756D03*
X40259Y372872D03*
X40259Y398272D03*
X40259Y423672D03*
X40259Y449072D03*
X40259Y474472D03*
X299847Y15240D03*
X274447Y15240D03*
X243967Y15748D03*
X218567Y15748D03*
X4445Y29083D03*
X4445Y54483D03*
D11*
X686054Y350820D03*
D12*
X686054Y363320D03*
X686054Y375820D03*
X686054Y388320D03*
D14*
X63500Y330200D03*
X38100Y330200D03*
X63500Y304800D03*
X38100Y304800D03*
X63500Y279400D03*
X38100Y279400D03*
X63500Y254000D03*
X38100Y254000D03*
X63500Y228600D03*
X38100Y228600D03*
X63500Y203200D03*
X38100Y203200D03*
X63500Y177800D03*
X38100Y177800D03*
X63500Y152400D03*
X38100Y152400D03*
X63500Y127000D03*
X38100Y127000D03*
X63500Y101600D03*
X38100Y101600D03*
D13*
X733806Y253111D03*
X733806Y278511D03*
X733806Y303911D03*
X125222Y13589D03*
X150622Y13589D03*
X176022Y13589D03*
D10*
X193430Y147066D03*
X210430Y147066D03*
X193176Y172085D03*
X210176Y172085D03*
D15*
X173500Y121800D03*
D16*
X148082Y121666D03*
X173482Y147066D03*
X148082Y147066D03*
X173482Y172466D03*
X148082Y172466D03*
X173482Y197866D03*
X148082Y197866D03*
X173482Y223266D03*
X148082Y223266D03*
X173482Y248666D03*
X148082Y248666D03*
X173482Y274066D03*
X148082Y274066D03*
X173482Y299466D03*
X148082Y299466D03*
X173482Y324866D03*
X148082Y324866D03*
X173482Y350266D03*
X148082Y350266D03*
X173482Y375666D03*
X148082Y375666D03*
X173482Y401066D03*
X148082Y401066D03*
X173482Y426466D03*
X148082Y426466D03*
X173482Y451866D03*
X148082Y451866D03*
X173482Y477266D03*
X148082Y477266D03*
X173482Y502666D03*
X148082Y502666D03*
X173482Y528066D03*
X148082Y528066D03*
X173482Y553466D03*
X148082Y553466D03*
X173482Y578866D03*
X148082Y578866D03*
X173482Y604266D03*
X148082Y604266D03*
D13*
X408432Y191770D03*
X408432Y217170D03*
X408432Y242570D03*
X408432Y267970D03*
X408432Y293370D03*
X408432Y318770D03*
X586232Y217170D03*
X586232Y242570D03*
X586232Y267970D03*
X586232Y293370D03*
X401447Y469773D03*
X401447Y495173D03*
X401447Y520573D03*
X401447Y545973D03*
X401447Y571373D03*
X401447Y596773D03*
X579247Y469773D03*
X579247Y495173D03*
X579247Y520573D03*
X579247Y545973D03*
X579247Y571373D03*
X579247Y596773D03*
D17*
X278626Y81394D03*
X278626Y104394D03*
X278626Y127394D03*
D18*
X340626Y104394D03*
D14*
X2032Y571500D03*
X2032Y546100D03*
X2032Y520700D03*
D10*
X83702Y304800D03*
X100702Y304800D03*
D19*
X317500Y520700D03*
X355600Y520700D03*
X355600Y482600D03*
X317500Y482600D03*
X241300Y444500D03*
X317500Y368300D03*
X355600Y368300D03*
X241300Y368300D03*
X241300Y317500D03*
X317500Y317500D03*
X355600Y317500D03*
X431800Y482600D03*
X469900Y482600D03*
X508000Y482600D03*
X546100Y482600D03*
X546100Y444500D03*
X508000Y444500D03*
X469900Y444500D03*
X431800Y444500D03*
X431800Y406400D03*
X469900Y406400D03*
X508000Y406400D03*
X546100Y406400D03*
X546100Y368300D03*
X508000Y368300D03*
X469900Y368300D03*
X431800Y368300D03*
X508000Y330200D03*
X546100Y330200D03*
X584200Y444500D03*
X622300Y444500D03*
X622300Y406400D03*
X584200Y406400D03*
X584200Y368300D03*
X622300Y368300D03*
X622300Y330200D03*
X584200Y330200D03*
X660400Y330200D03*
X698500Y330200D03*
X622300Y292100D03*
X660400Y292100D03*
X622300Y254000D03*
X622300Y215900D03*
X584200Y190500D03*
X546100Y292100D03*
X508000Y292100D03*
X469900Y292100D03*
X508000Y254000D03*
X546100Y254000D03*
X469900Y254000D03*
X469900Y203200D03*
X508000Y203200D03*
X469900Y165100D03*
X508000Y165100D03*
X469900Y127000D03*
X508000Y127000D03*
X546100Y127000D03*
X546100Y165100D03*
X584200Y127000D03*
X622300Y127000D03*
X660400Y127000D03*
X762000Y127000D03*
X762000Y165100D03*
X762000Y203200D03*
X762000Y469900D03*
X762000Y508000D03*
X762000Y546100D03*
X762000Y584200D03*
X762000Y622300D03*
X762000Y660400D03*
X762000Y698500D03*
X762000Y88900D03*
X762000Y50800D03*
X762000Y12700D03*
X723900Y12700D03*
X685800Y12700D03*
X685800Y50800D03*
X685800Y88900D03*
X723900Y88900D03*
X723900Y50800D03*
X647700Y12700D03*
X546100Y50800D03*
X546100Y12700D03*
X431800Y50800D03*
X431800Y12700D03*
X431800Y127000D03*
X431800Y165100D03*
X393700Y165100D03*
X393700Y127000D03*
X355600Y254000D03*
X317500Y254000D03*
X260350Y260350D03*
X241300Y228600D03*
X235966Y161798D03*
X293370Y175260D03*
X241300Y63500D03*
X101600Y12700D03*
X63500Y12700D03*
X63500Y50800D03*
X25400Y88900D03*
X12700Y254000D03*
X12700Y292100D03*
X12700Y330200D03*
X76200Y533400D03*
X76200Y571500D03*
X304800Y76200D03*
X342900Y76200D03*
X330200Y12700D03*
X368300Y12700D03*
X622300Y190500D03*
X723900Y431800D03*
X685800Y431800D03*
X685800Y406400D03*
X723900Y508000D03*
X685800Y508000D03*
X723900Y584200D03*
X685800Y584200D03*
X723900Y622300D03*
X685800Y622300D03*
X723900Y660400D03*
X685800Y660400D03*
X685800Y698500D03*
X723900Y698500D03*
X571500Y660400D03*
X533400Y660400D03*
X495300Y660400D03*
X457200Y660400D03*
X419100Y660400D03*
X495300Y609600D03*
X533400Y609600D03*
X533400Y558800D03*
X495300Y558800D03*
X457200Y558800D03*
X419100Y558800D03*
X647700Y584200D03*
X647700Y622300D03*
X355600Y596900D03*
X317500Y596900D03*
X355600Y565150D03*
X317500Y566420D03*
X381000Y660400D03*
X342900Y660400D03*
X304800Y660400D03*
X266700Y660400D03*
X228600Y660400D03*
X127000Y660400D03*
X88900Y660400D03*
X50800Y660400D03*
X12700Y660400D03*
X12700Y622300D03*
X45720Y596900D03*
D20*
X154305Y197866D02*
X160528Y191643D01*
X154305Y197866D02*
X148082Y197866D01*
X187452Y25019D02*
X176022Y13589D01*
X187452Y108839D02*
X185540Y110751D01*
X164088Y110751D01*
X160528Y114311D01*
X187452Y108839D02*
X187452Y25019D01*
X160528Y114311D02*
X160528Y191643D01*
X150622Y13589D02*
X144242Y13589D01*
X114173Y43658D02*
X114173Y195072D01*
X142367Y223266D01*
X148082Y223266D01*
X114173Y43658D02*
X144242Y13589D01*
X130048Y449072D02*
X40259Y449072D01*
X132969Y446151D02*
X132969Y410432D01*
X135350Y408051D01*
X141097Y408051D01*
X148082Y401066D01*
X132969Y446151D02*
X130048Y449072D01*
X134239Y474472D02*
X40259Y474472D01*
X163708Y401066D02*
X173482Y401066D01*
X163708Y401066D02*
X152659Y412115D01*
X137033Y471678D02*
X134239Y474472D01*
X137033Y471678D02*
X137033Y418846D01*
X143764Y412115D01*
X152659Y412115D01*
X54102Y409829D02*
X40259Y423672D01*
X54102Y409829D02*
X119380Y409829D01*
X122047Y407162D01*
X122047Y395732D01*
X129794Y387985D02*
X166624Y387985D01*
X173482Y381127D01*
X173482Y375666D01*
X129794Y387985D02*
X122047Y395732D01*
X50546Y387985D02*
X40259Y398272D01*
X117348Y387985D02*
X119761Y385572D01*
X119761Y361061D01*
X117348Y387985D02*
X50546Y387985D01*
D19*
X133350Y332232D03*
D20*
X133350Y347472D01*
X119761Y361061D01*
X141986Y336042D02*
X138176Y332232D01*
X133350Y332232D01*
X159258Y336042D02*
X173482Y350266D01*
X159258Y336042D02*
X141986Y336042D01*
D19*
X301117Y242824D03*
D20*
X301117Y219329D02*
X303530Y216916D01*
X301117Y219329D02*
X301117Y242824D01*
X389890Y191770D02*
X408432Y191770D01*
X364744Y216916D02*
X303530Y216916D01*
X364744Y216916D02*
X389890Y191770D01*
X193430Y147066D02*
X173482Y147066D01*
X686816Y281586D02*
X693420Y281586D01*
X705585Y293751D01*
X723646Y293751D01*
X733806Y303911D01*
D19*
X632587Y388493D03*
D20*
X632587Y514350D01*
X638683Y520446D01*
D19*
X638683Y520446D03*
D20*
X584835Y507365D02*
X571657Y507365D01*
X584835Y507365D02*
X597916Y520446D01*
X571657Y507365D02*
X559465Y495173D01*
X597916Y520446D02*
X638683Y520446D01*
X376047Y490347D02*
X376047Y251841D01*
X385318Y242570D02*
X408432Y242570D01*
X385318Y242570D02*
X376047Y251841D01*
X376047Y490347D02*
X380873Y495173D01*
X193430Y156210D02*
X193430Y147066D01*
X193430Y156210D02*
X190763Y158877D01*
D19*
X190763Y158877D03*
X241554Y186309D03*
D20*
X242189Y185674D02*
X295148Y185674D01*
X242189Y185674D02*
X241554Y186309D01*
X298450Y199991D02*
X298577Y200118D01*
X298450Y199991D02*
X298450Y188976D01*
D19*
X298577Y200118D03*
D20*
X298450Y188976D02*
X295148Y185674D01*
X380873Y495173D02*
X401447Y495173D01*
X559465Y495173D01*
D21*
X210176Y172085D02*
X210176Y147320D01*
X210430Y147066D01*
X210430Y125975D01*
X206255Y121800D02*
X173500Y121800D01*
X206255Y121800D02*
X210430Y125975D01*
D19*
X653034Y501777D03*
D21*
X653796Y371729D02*
X654050Y371475D01*
D19*
X654050Y371475D03*
D21*
X653796Y501015D02*
X653034Y501777D01*
X653796Y501015D02*
X653796Y371729D01*
D19*
X447675Y287401D03*
D21*
X447675Y271272D01*
X447548Y271145D01*
D19*
X447548Y271145D03*
D21*
X206620Y207527D02*
X206620Y175641D01*
X210176Y172085D01*
X189611Y224536D02*
X189611Y319786D01*
X184531Y324866D01*
X173482Y324866D01*
X189611Y224536D02*
X206620Y207527D01*
D22*
X127626Y304800D02*
X134992Y312166D01*
X127626Y304800D02*
X100702Y304800D01*
X160782Y312166D02*
X173482Y324866D01*
X160782Y312166D02*
X134992Y312166D01*
D20*
X173482Y172466D02*
X192795Y172466D01*
X193176Y172085D01*
D19*
X190754Y183896D03*
D20*
X190754Y174507D01*
X193176Y172085D01*
X686816Y269086D02*
X696241Y278511D01*
X733806Y278511D01*
D19*
X660146Y265557D03*
D20*
X663675Y269086D01*
X686816Y269086D01*
X651637Y513897D02*
X648716Y513897D01*
X643001Y508182D01*
D19*
X651637Y513897D03*
D20*
X643001Y508182D02*
X643001Y369189D01*
X648870Y363320D02*
X686054Y363320D01*
X648870Y363320D02*
X643001Y369189D01*
X735076Y359156D02*
X751586Y359156D01*
X753110Y357632D01*
X753110Y281940D01*
X749681Y278511D01*
X733806Y278511D01*
X651637Y513897D02*
X651637Y530352D01*
X648843Y533146D01*
X574294Y533146D01*
X561340Y520192D01*
X401828Y520192D01*
X401447Y520573D01*
X408432Y217170D02*
X372745Y217170D01*
X369824Y220091D01*
X369824Y510667D01*
X379349Y520192D02*
X401828Y520192D01*
X379349Y520192D02*
X369824Y510667D01*
D19*
X274447Y224028D03*
D20*
X292354Y224028D01*
D19*
X292354Y224028D03*
X308001Y224028D03*
D20*
X360807Y224028D01*
D19*
X360807Y224028D03*
D21*
X148082Y121666D02*
X123308Y121666D01*
X122800Y122174D01*
X122800Y147447D01*
X123181Y147066D01*
X148082Y147066D01*
D19*
X230251Y50292D03*
D21*
X211582Y50292D01*
D19*
X211582Y50292D03*
D22*
X83702Y304800D02*
X63500Y304800D01*
D19*
X283083Y242090D03*
D20*
X277114Y248059D02*
X277114Y374650D01*
X277114Y248059D02*
X283083Y242090D01*
X277114Y374650D02*
X191008Y460756D01*
X191008Y561594D01*
X185293Y567309D01*
X158872Y567309D01*
X148082Y578099D01*
X148082Y578866D01*
D21*
X247895Y127127D02*
X278359Y127127D01*
X278626Y127394D01*
D19*
X299339Y127127D03*
D21*
X278893Y127127D01*
X278626Y127394D01*
D19*
X279400Y143891D03*
D21*
X279400Y127634D01*
X278893Y127127D01*
X199263Y115062D02*
X194564Y110363D01*
X194564Y1143D01*
X192532Y-889D01*
X97028Y-889D01*
D19*
X97028Y-889D03*
D21*
X199263Y115062D02*
X243205Y115062D01*
X247895Y119752D01*
X247895Y127127D01*
X246625Y104521D02*
X278499Y104521D01*
X278626Y104394D01*
X340626Y104394D01*
D19*
X273050Y193675D03*
D21*
X338963Y202565D02*
X339090Y202438D01*
X338963Y202565D02*
X338963Y207518D01*
X335788Y210693D01*
X278638Y210693D01*
X273050Y205105D01*
X273050Y193675D01*
D19*
X339090Y202438D03*
X340741Y136017D03*
D21*
X340741Y104509D01*
X340626Y104394D01*
D20*
X49022Y502666D02*
X41021Y510667D01*
X49022Y502666D02*
X148082Y502666D01*
X38354Y571500D02*
X2032Y571500D01*
X38354Y571500D02*
X41021Y568833D01*
X41021Y510667D01*
M02*
