G04 EAGLE Gerber RS-274X export*
G75*
%MOMM*%
%FSLAX34Y34*%
%LPD*%
%INBoard Outline*%
%IPPOS*%
%AMOC8*
5,1,8,0,0,1.08239X$1,22.5*%
G01*
%ADD10C,0.152400*%
%ADD11C,0.000000*%
%ADD12C,0.254000*%


D10*
X-16764Y3048D02*
X-16764Y679958D01*
X-16761Y680173D01*
X-16754Y680388D01*
X-16741Y680602D01*
X-16722Y680816D01*
X-16699Y681030D01*
X-16671Y681243D01*
X-16637Y681455D01*
X-16598Y681666D01*
X-16555Y681876D01*
X-16506Y682086D01*
X-16452Y682293D01*
X-16393Y682500D01*
X-16329Y682705D01*
X-16260Y682909D01*
X-16186Y683110D01*
X-16108Y683310D01*
X-16024Y683508D01*
X-15936Y683704D01*
X-15843Y683898D01*
X-15746Y684089D01*
X-15644Y684278D01*
X-15537Y684465D01*
X-15426Y684649D01*
X-15310Y684830D01*
X-15190Y685008D01*
X-15066Y685183D01*
X-14938Y685356D01*
X-14805Y685525D01*
X-14669Y685691D01*
X-14528Y685853D01*
X-14384Y686012D01*
X-14236Y686168D01*
X-14084Y686320D01*
X-13928Y686468D01*
X-13769Y686612D01*
X-13607Y686753D01*
X-13441Y686889D01*
X-13272Y687022D01*
X-13099Y687150D01*
X-12924Y687274D01*
X-12746Y687394D01*
X-12565Y687510D01*
X-12381Y687621D01*
X-12194Y687728D01*
X-12005Y687830D01*
X-11814Y687927D01*
X-11620Y688020D01*
X-11424Y688108D01*
X-11226Y688192D01*
X-11026Y688270D01*
X-10825Y688344D01*
X-10621Y688413D01*
X-10416Y688477D01*
X-10209Y688536D01*
X-10002Y688590D01*
X-9792Y688639D01*
X-9582Y688682D01*
X-9371Y688721D01*
X-9159Y688755D01*
X-8946Y688783D01*
X-8732Y688806D01*
X-8518Y688825D01*
X-8304Y688838D01*
X-8089Y688845D01*
X-7874Y688848D01*
X385826Y688848D01*
X386041Y688851D01*
X386256Y688858D01*
X386470Y688871D01*
X386684Y688890D01*
X386898Y688913D01*
X387111Y688941D01*
X387323Y688975D01*
X387534Y689014D01*
X387744Y689057D01*
X387954Y689106D01*
X388161Y689160D01*
X388368Y689219D01*
X388573Y689283D01*
X388777Y689352D01*
X388978Y689426D01*
X389178Y689504D01*
X389376Y689588D01*
X389572Y689676D01*
X389766Y689769D01*
X389957Y689866D01*
X390146Y689968D01*
X390333Y690075D01*
X390517Y690186D01*
X390698Y690302D01*
X390876Y690422D01*
X391051Y690546D01*
X391224Y690674D01*
X391393Y690807D01*
X391559Y690943D01*
X391721Y691084D01*
X391880Y691228D01*
X392036Y691376D01*
X392188Y691528D01*
X392336Y691684D01*
X392480Y691843D01*
X392621Y692005D01*
X392757Y692171D01*
X392890Y692340D01*
X393018Y692513D01*
X393142Y692688D01*
X393262Y692866D01*
X393378Y693047D01*
X393489Y693231D01*
X393596Y693418D01*
X393698Y693607D01*
X393795Y693798D01*
X393888Y693992D01*
X393976Y694188D01*
X394060Y694386D01*
X394138Y694586D01*
X394212Y694787D01*
X394281Y694991D01*
X394345Y695196D01*
X394404Y695403D01*
X394458Y695610D01*
X394507Y695820D01*
X394550Y696030D01*
X394589Y696241D01*
X394623Y696453D01*
X394651Y696666D01*
X394674Y696880D01*
X394693Y697094D01*
X394706Y697308D01*
X394713Y697523D01*
X394716Y697738D01*
X394716Y718058D01*
X394719Y718273D01*
X394726Y718488D01*
X394739Y718702D01*
X394758Y718916D01*
X394781Y719130D01*
X394809Y719343D01*
X394843Y719555D01*
X394882Y719766D01*
X394925Y719976D01*
X394974Y720186D01*
X395028Y720393D01*
X395087Y720600D01*
X395151Y720805D01*
X395220Y721009D01*
X395294Y721210D01*
X395372Y721410D01*
X395456Y721608D01*
X395544Y721804D01*
X395637Y721998D01*
X395734Y722189D01*
X395836Y722378D01*
X395943Y722565D01*
X396054Y722749D01*
X396170Y722930D01*
X396290Y723108D01*
X396414Y723283D01*
X396542Y723456D01*
X396675Y723625D01*
X396811Y723791D01*
X396952Y723953D01*
X397096Y724112D01*
X397244Y724268D01*
X397396Y724420D01*
X397552Y724568D01*
X397711Y724712D01*
X397873Y724853D01*
X398039Y724989D01*
X398208Y725122D01*
X398381Y725250D01*
X398556Y725374D01*
X398734Y725494D01*
X398915Y725610D01*
X399099Y725721D01*
X399286Y725828D01*
X399475Y725930D01*
X399666Y726027D01*
X399860Y726120D01*
X400056Y726208D01*
X400254Y726292D01*
X400454Y726370D01*
X400655Y726444D01*
X400859Y726513D01*
X401064Y726577D01*
X401271Y726636D01*
X401478Y726690D01*
X401688Y726739D01*
X401898Y726782D01*
X402109Y726821D01*
X402321Y726855D01*
X402534Y726883D01*
X402748Y726906D01*
X402962Y726925D01*
X403176Y726938D01*
X403391Y726945D01*
X403606Y726948D01*
X764286Y726948D01*
X764746Y726942D01*
X765206Y726926D01*
X765666Y726898D01*
X766125Y726859D01*
X766582Y726809D01*
X767039Y726748D01*
X767493Y726676D01*
X767946Y726593D01*
X768397Y726499D01*
X768845Y726394D01*
X769291Y726279D01*
X769733Y726153D01*
X770173Y726016D01*
X770609Y725868D01*
X771041Y725710D01*
X771470Y725542D01*
X771894Y725363D01*
X772314Y725174D01*
X772729Y724975D01*
X773139Y724766D01*
X773544Y724547D01*
X773944Y724319D01*
X774338Y724080D01*
X774726Y723833D01*
X775108Y723576D01*
X775483Y723310D01*
X775852Y723035D01*
X776215Y722751D01*
X776570Y722458D01*
X776918Y722157D01*
X777259Y721848D01*
X777593Y721530D01*
X777918Y721205D01*
X778236Y720871D01*
X778545Y720530D01*
X778846Y720182D01*
X779139Y719827D01*
X779423Y719464D01*
X779698Y719095D01*
X779964Y718720D01*
X780221Y718338D01*
X780468Y717950D01*
X780707Y717556D01*
X780935Y717156D01*
X781154Y716751D01*
X781363Y716341D01*
X781562Y715926D01*
X781751Y715506D01*
X781930Y715082D01*
X782098Y714653D01*
X782256Y714221D01*
X782404Y713785D01*
X782541Y713345D01*
X782667Y712903D01*
X782782Y712457D01*
X782887Y712009D01*
X782981Y711558D01*
X783064Y711105D01*
X783136Y710651D01*
X783197Y710194D01*
X783247Y709737D01*
X783286Y709278D01*
X783314Y708818D01*
X783330Y708358D01*
X783336Y707898D01*
X783336Y3048D01*
X783330Y2588D01*
X783314Y2128D01*
X783286Y1668D01*
X783247Y1209D01*
X783197Y752D01*
X783136Y295D01*
X783064Y-159D01*
X782981Y-612D01*
X782887Y-1063D01*
X782782Y-1511D01*
X782667Y-1957D01*
X782541Y-2399D01*
X782404Y-2839D01*
X782256Y-3275D01*
X782098Y-3707D01*
X781930Y-4136D01*
X781751Y-4560D01*
X781562Y-4980D01*
X781363Y-5395D01*
X781154Y-5805D01*
X780935Y-6210D01*
X780707Y-6610D01*
X780468Y-7004D01*
X780221Y-7392D01*
X779964Y-7774D01*
X779698Y-8149D01*
X779423Y-8518D01*
X779139Y-8881D01*
X778846Y-9236D01*
X778545Y-9584D01*
X778236Y-9925D01*
X777918Y-10259D01*
X777593Y-10584D01*
X777259Y-10902D01*
X776918Y-11211D01*
X776570Y-11512D01*
X776215Y-11805D01*
X775852Y-12089D01*
X775483Y-12364D01*
X775108Y-12630D01*
X774726Y-12887D01*
X774338Y-13134D01*
X773944Y-13373D01*
X773544Y-13601D01*
X773139Y-13820D01*
X772729Y-14029D01*
X772314Y-14228D01*
X771894Y-14417D01*
X771470Y-14596D01*
X771041Y-14764D01*
X770609Y-14922D01*
X770173Y-15070D01*
X769733Y-15207D01*
X769291Y-15333D01*
X768845Y-15448D01*
X768397Y-15553D01*
X767946Y-15647D01*
X767493Y-15730D01*
X767039Y-15802D01*
X766582Y-15863D01*
X766125Y-15913D01*
X765666Y-15952D01*
X765206Y-15980D01*
X764746Y-15996D01*
X764286Y-16002D01*
X2286Y-16002D01*
X1826Y-15996D01*
X1366Y-15980D01*
X906Y-15952D01*
X447Y-15913D01*
X-10Y-15863D01*
X-467Y-15802D01*
X-921Y-15730D01*
X-1374Y-15647D01*
X-1825Y-15553D01*
X-2273Y-15448D01*
X-2719Y-15333D01*
X-3161Y-15207D01*
X-3601Y-15070D01*
X-4037Y-14922D01*
X-4469Y-14764D01*
X-4898Y-14596D01*
X-5322Y-14417D01*
X-5742Y-14228D01*
X-6157Y-14029D01*
X-6567Y-13820D01*
X-6972Y-13601D01*
X-7372Y-13373D01*
X-7766Y-13134D01*
X-8154Y-12887D01*
X-8536Y-12630D01*
X-8911Y-12364D01*
X-9280Y-12089D01*
X-9643Y-11805D01*
X-9998Y-11512D01*
X-10346Y-11211D01*
X-10687Y-10902D01*
X-11021Y-10584D01*
X-11346Y-10259D01*
X-11664Y-9925D01*
X-11973Y-9584D01*
X-12274Y-9236D01*
X-12567Y-8881D01*
X-12851Y-8518D01*
X-13126Y-8149D01*
X-13392Y-7774D01*
X-13649Y-7392D01*
X-13896Y-7004D01*
X-14135Y-6610D01*
X-14363Y-6210D01*
X-14582Y-5805D01*
X-14791Y-5395D01*
X-14990Y-4980D01*
X-15179Y-4560D01*
X-15358Y-4136D01*
X-15526Y-3707D01*
X-15684Y-3275D01*
X-15832Y-2839D01*
X-15969Y-2399D01*
X-16095Y-1957D01*
X-16210Y-1511D01*
X-16315Y-1063D01*
X-16409Y-612D01*
X-16492Y-159D01*
X-16564Y295D01*
X-16625Y752D01*
X-16675Y1209D01*
X-16714Y1668D01*
X-16742Y2128D01*
X-16758Y2588D01*
X-16764Y3048D01*
D11*
X637050Y73100D02*
X637054Y73437D01*
X637067Y73775D01*
X637087Y74112D01*
X637116Y74448D01*
X637153Y74783D01*
X637199Y75118D01*
X637252Y75451D01*
X637314Y75782D01*
X637384Y76113D01*
X637462Y76441D01*
X637548Y76767D01*
X637642Y77091D01*
X637744Y77413D01*
X637854Y77732D01*
X637971Y78049D01*
X638097Y78362D01*
X638230Y78672D01*
X638370Y78979D01*
X638518Y79282D01*
X638674Y79582D01*
X638836Y79877D01*
X639006Y80169D01*
X639183Y80456D01*
X639367Y80739D01*
X639558Y81017D01*
X639756Y81291D01*
X639960Y81559D01*
X640171Y81823D01*
X640388Y82081D01*
X640612Y82334D01*
X640842Y82581D01*
X641077Y82823D01*
X641319Y83058D01*
X641566Y83288D01*
X641819Y83512D01*
X642077Y83729D01*
X642341Y83940D01*
X642609Y84144D01*
X642883Y84342D01*
X643161Y84533D01*
X643444Y84717D01*
X643731Y84894D01*
X644023Y85064D01*
X644318Y85226D01*
X644618Y85382D01*
X644921Y85530D01*
X645228Y85670D01*
X645538Y85803D01*
X645851Y85929D01*
X646168Y86046D01*
X646487Y86156D01*
X646809Y86258D01*
X647133Y86352D01*
X647459Y86438D01*
X647787Y86516D01*
X648118Y86586D01*
X648449Y86648D01*
X648782Y86701D01*
X649117Y86747D01*
X649452Y86784D01*
X649788Y86813D01*
X650125Y86833D01*
X650463Y86846D01*
X650800Y86850D01*
X651137Y86846D01*
X651475Y86833D01*
X651812Y86813D01*
X652148Y86784D01*
X652483Y86747D01*
X652818Y86701D01*
X653151Y86648D01*
X653482Y86586D01*
X653813Y86516D01*
X654141Y86438D01*
X654467Y86352D01*
X654791Y86258D01*
X655113Y86156D01*
X655432Y86046D01*
X655749Y85929D01*
X656062Y85803D01*
X656372Y85670D01*
X656679Y85530D01*
X656982Y85382D01*
X657282Y85226D01*
X657577Y85064D01*
X657869Y84894D01*
X658156Y84717D01*
X658439Y84533D01*
X658717Y84342D01*
X658991Y84144D01*
X659259Y83940D01*
X659523Y83729D01*
X659781Y83512D01*
X660034Y83288D01*
X660281Y83058D01*
X660523Y82823D01*
X660758Y82581D01*
X660988Y82334D01*
X661212Y82081D01*
X661429Y81823D01*
X661640Y81559D01*
X661844Y81291D01*
X662042Y81017D01*
X662233Y80739D01*
X662417Y80456D01*
X662594Y80169D01*
X662764Y79877D01*
X662926Y79582D01*
X663082Y79282D01*
X663230Y78979D01*
X663370Y78672D01*
X663503Y78362D01*
X663629Y78049D01*
X663746Y77732D01*
X663856Y77413D01*
X663958Y77091D01*
X664052Y76767D01*
X664138Y76441D01*
X664216Y76113D01*
X664286Y75782D01*
X664348Y75451D01*
X664401Y75118D01*
X664447Y74783D01*
X664484Y74448D01*
X664513Y74112D01*
X664533Y73775D01*
X664546Y73437D01*
X664550Y73100D01*
X664546Y72763D01*
X664533Y72425D01*
X664513Y72088D01*
X664484Y71752D01*
X664447Y71417D01*
X664401Y71082D01*
X664348Y70749D01*
X664286Y70418D01*
X664216Y70087D01*
X664138Y69759D01*
X664052Y69433D01*
X663958Y69109D01*
X663856Y68787D01*
X663746Y68468D01*
X663629Y68151D01*
X663503Y67838D01*
X663370Y67528D01*
X663230Y67221D01*
X663082Y66918D01*
X662926Y66618D01*
X662764Y66323D01*
X662594Y66031D01*
X662417Y65744D01*
X662233Y65461D01*
X662042Y65183D01*
X661844Y64909D01*
X661640Y64641D01*
X661429Y64377D01*
X661212Y64119D01*
X660988Y63866D01*
X660758Y63619D01*
X660523Y63377D01*
X660281Y63142D01*
X660034Y62912D01*
X659781Y62688D01*
X659523Y62471D01*
X659259Y62260D01*
X658991Y62056D01*
X658717Y61858D01*
X658439Y61667D01*
X658156Y61483D01*
X657869Y61306D01*
X657577Y61136D01*
X657282Y60974D01*
X656982Y60818D01*
X656679Y60670D01*
X656372Y60530D01*
X656062Y60397D01*
X655749Y60271D01*
X655432Y60154D01*
X655113Y60044D01*
X654791Y59942D01*
X654467Y59848D01*
X654141Y59762D01*
X653813Y59684D01*
X653482Y59614D01*
X653151Y59552D01*
X652818Y59499D01*
X652483Y59453D01*
X652148Y59416D01*
X651812Y59387D01*
X651475Y59367D01*
X651137Y59354D01*
X650800Y59350D01*
X650463Y59354D01*
X650125Y59367D01*
X649788Y59387D01*
X649452Y59416D01*
X649117Y59453D01*
X648782Y59499D01*
X648449Y59552D01*
X648118Y59614D01*
X647787Y59684D01*
X647459Y59762D01*
X647133Y59848D01*
X646809Y59942D01*
X646487Y60044D01*
X646168Y60154D01*
X645851Y60271D01*
X645538Y60397D01*
X645228Y60530D01*
X644921Y60670D01*
X644618Y60818D01*
X644318Y60974D01*
X644023Y61136D01*
X643731Y61306D01*
X643444Y61483D01*
X643161Y61667D01*
X642883Y61858D01*
X642609Y62056D01*
X642341Y62260D01*
X642077Y62471D01*
X641819Y62688D01*
X641566Y62912D01*
X641319Y63142D01*
X641077Y63377D01*
X640842Y63619D01*
X640612Y63866D01*
X640388Y64119D01*
X640171Y64377D01*
X639960Y64641D01*
X639756Y64909D01*
X639558Y65183D01*
X639367Y65461D01*
X639183Y65744D01*
X639006Y66031D01*
X638836Y66323D01*
X638674Y66618D01*
X638518Y66918D01*
X638370Y67221D01*
X638230Y67528D01*
X638097Y67838D01*
X637971Y68151D01*
X637854Y68468D01*
X637744Y68787D01*
X637642Y69109D01*
X637548Y69433D01*
X637462Y69759D01*
X637384Y70087D01*
X637314Y70418D01*
X637252Y70749D01*
X637199Y71082D01*
X637153Y71417D01*
X637116Y71752D01*
X637087Y72088D01*
X637067Y72425D01*
X637054Y72763D01*
X637050Y73100D01*
X637050Y653100D02*
X637054Y653437D01*
X637067Y653775D01*
X637087Y654112D01*
X637116Y654448D01*
X637153Y654783D01*
X637199Y655118D01*
X637252Y655451D01*
X637314Y655782D01*
X637384Y656113D01*
X637462Y656441D01*
X637548Y656767D01*
X637642Y657091D01*
X637744Y657413D01*
X637854Y657732D01*
X637971Y658049D01*
X638097Y658362D01*
X638230Y658672D01*
X638370Y658979D01*
X638518Y659282D01*
X638674Y659582D01*
X638836Y659877D01*
X639006Y660169D01*
X639183Y660456D01*
X639367Y660739D01*
X639558Y661017D01*
X639756Y661291D01*
X639960Y661559D01*
X640171Y661823D01*
X640388Y662081D01*
X640612Y662334D01*
X640842Y662581D01*
X641077Y662823D01*
X641319Y663058D01*
X641566Y663288D01*
X641819Y663512D01*
X642077Y663729D01*
X642341Y663940D01*
X642609Y664144D01*
X642883Y664342D01*
X643161Y664533D01*
X643444Y664717D01*
X643731Y664894D01*
X644023Y665064D01*
X644318Y665226D01*
X644618Y665382D01*
X644921Y665530D01*
X645228Y665670D01*
X645538Y665803D01*
X645851Y665929D01*
X646168Y666046D01*
X646487Y666156D01*
X646809Y666258D01*
X647133Y666352D01*
X647459Y666438D01*
X647787Y666516D01*
X648118Y666586D01*
X648449Y666648D01*
X648782Y666701D01*
X649117Y666747D01*
X649452Y666784D01*
X649788Y666813D01*
X650125Y666833D01*
X650463Y666846D01*
X650800Y666850D01*
X651137Y666846D01*
X651475Y666833D01*
X651812Y666813D01*
X652148Y666784D01*
X652483Y666747D01*
X652818Y666701D01*
X653151Y666648D01*
X653482Y666586D01*
X653813Y666516D01*
X654141Y666438D01*
X654467Y666352D01*
X654791Y666258D01*
X655113Y666156D01*
X655432Y666046D01*
X655749Y665929D01*
X656062Y665803D01*
X656372Y665670D01*
X656679Y665530D01*
X656982Y665382D01*
X657282Y665226D01*
X657577Y665064D01*
X657869Y664894D01*
X658156Y664717D01*
X658439Y664533D01*
X658717Y664342D01*
X658991Y664144D01*
X659259Y663940D01*
X659523Y663729D01*
X659781Y663512D01*
X660034Y663288D01*
X660281Y663058D01*
X660523Y662823D01*
X660758Y662581D01*
X660988Y662334D01*
X661212Y662081D01*
X661429Y661823D01*
X661640Y661559D01*
X661844Y661291D01*
X662042Y661017D01*
X662233Y660739D01*
X662417Y660456D01*
X662594Y660169D01*
X662764Y659877D01*
X662926Y659582D01*
X663082Y659282D01*
X663230Y658979D01*
X663370Y658672D01*
X663503Y658362D01*
X663629Y658049D01*
X663746Y657732D01*
X663856Y657413D01*
X663958Y657091D01*
X664052Y656767D01*
X664138Y656441D01*
X664216Y656113D01*
X664286Y655782D01*
X664348Y655451D01*
X664401Y655118D01*
X664447Y654783D01*
X664484Y654448D01*
X664513Y654112D01*
X664533Y653775D01*
X664546Y653437D01*
X664550Y653100D01*
X664546Y652763D01*
X664533Y652425D01*
X664513Y652088D01*
X664484Y651752D01*
X664447Y651417D01*
X664401Y651082D01*
X664348Y650749D01*
X664286Y650418D01*
X664216Y650087D01*
X664138Y649759D01*
X664052Y649433D01*
X663958Y649109D01*
X663856Y648787D01*
X663746Y648468D01*
X663629Y648151D01*
X663503Y647838D01*
X663370Y647528D01*
X663230Y647221D01*
X663082Y646918D01*
X662926Y646618D01*
X662764Y646323D01*
X662594Y646031D01*
X662417Y645744D01*
X662233Y645461D01*
X662042Y645183D01*
X661844Y644909D01*
X661640Y644641D01*
X661429Y644377D01*
X661212Y644119D01*
X660988Y643866D01*
X660758Y643619D01*
X660523Y643377D01*
X660281Y643142D01*
X660034Y642912D01*
X659781Y642688D01*
X659523Y642471D01*
X659259Y642260D01*
X658991Y642056D01*
X658717Y641858D01*
X658439Y641667D01*
X658156Y641483D01*
X657869Y641306D01*
X657577Y641136D01*
X657282Y640974D01*
X656982Y640818D01*
X656679Y640670D01*
X656372Y640530D01*
X656062Y640397D01*
X655749Y640271D01*
X655432Y640154D01*
X655113Y640044D01*
X654791Y639942D01*
X654467Y639848D01*
X654141Y639762D01*
X653813Y639684D01*
X653482Y639614D01*
X653151Y639552D01*
X652818Y639499D01*
X652483Y639453D01*
X652148Y639416D01*
X651812Y639387D01*
X651475Y639367D01*
X651137Y639354D01*
X650800Y639350D01*
X650463Y639354D01*
X650125Y639367D01*
X649788Y639387D01*
X649452Y639416D01*
X649117Y639453D01*
X648782Y639499D01*
X648449Y639552D01*
X648118Y639614D01*
X647787Y639684D01*
X647459Y639762D01*
X647133Y639848D01*
X646809Y639942D01*
X646487Y640044D01*
X646168Y640154D01*
X645851Y640271D01*
X645538Y640397D01*
X645228Y640530D01*
X644921Y640670D01*
X644618Y640818D01*
X644318Y640974D01*
X644023Y641136D01*
X643731Y641306D01*
X643444Y641483D01*
X643161Y641667D01*
X642883Y641858D01*
X642609Y642056D01*
X642341Y642260D01*
X642077Y642471D01*
X641819Y642688D01*
X641566Y642912D01*
X641319Y643142D01*
X641077Y643377D01*
X640842Y643619D01*
X640612Y643866D01*
X640388Y644119D01*
X640171Y644377D01*
X639960Y644641D01*
X639756Y644909D01*
X639558Y645183D01*
X639367Y645461D01*
X639183Y645744D01*
X639006Y646031D01*
X638836Y646323D01*
X638674Y646618D01*
X638518Y646918D01*
X638370Y647221D01*
X638230Y647528D01*
X638097Y647838D01*
X637971Y648151D01*
X637854Y648468D01*
X637744Y648787D01*
X637642Y649109D01*
X637548Y649433D01*
X637462Y649759D01*
X637384Y650087D01*
X637314Y650418D01*
X637252Y650749D01*
X637199Y651082D01*
X637153Y651417D01*
X637116Y651752D01*
X637087Y652088D01*
X637067Y652425D01*
X637054Y652763D01*
X637050Y653100D01*
X147050Y73100D02*
X147054Y73437D01*
X147067Y73775D01*
X147087Y74112D01*
X147116Y74448D01*
X147153Y74783D01*
X147199Y75118D01*
X147252Y75451D01*
X147314Y75782D01*
X147384Y76113D01*
X147462Y76441D01*
X147548Y76767D01*
X147642Y77091D01*
X147744Y77413D01*
X147854Y77732D01*
X147971Y78049D01*
X148097Y78362D01*
X148230Y78672D01*
X148370Y78979D01*
X148518Y79282D01*
X148674Y79582D01*
X148836Y79877D01*
X149006Y80169D01*
X149183Y80456D01*
X149367Y80739D01*
X149558Y81017D01*
X149756Y81291D01*
X149960Y81559D01*
X150171Y81823D01*
X150388Y82081D01*
X150612Y82334D01*
X150842Y82581D01*
X151077Y82823D01*
X151319Y83058D01*
X151566Y83288D01*
X151819Y83512D01*
X152077Y83729D01*
X152341Y83940D01*
X152609Y84144D01*
X152883Y84342D01*
X153161Y84533D01*
X153444Y84717D01*
X153731Y84894D01*
X154023Y85064D01*
X154318Y85226D01*
X154618Y85382D01*
X154921Y85530D01*
X155228Y85670D01*
X155538Y85803D01*
X155851Y85929D01*
X156168Y86046D01*
X156487Y86156D01*
X156809Y86258D01*
X157133Y86352D01*
X157459Y86438D01*
X157787Y86516D01*
X158118Y86586D01*
X158449Y86648D01*
X158782Y86701D01*
X159117Y86747D01*
X159452Y86784D01*
X159788Y86813D01*
X160125Y86833D01*
X160463Y86846D01*
X160800Y86850D01*
X161137Y86846D01*
X161475Y86833D01*
X161812Y86813D01*
X162148Y86784D01*
X162483Y86747D01*
X162818Y86701D01*
X163151Y86648D01*
X163482Y86586D01*
X163813Y86516D01*
X164141Y86438D01*
X164467Y86352D01*
X164791Y86258D01*
X165113Y86156D01*
X165432Y86046D01*
X165749Y85929D01*
X166062Y85803D01*
X166372Y85670D01*
X166679Y85530D01*
X166982Y85382D01*
X167282Y85226D01*
X167577Y85064D01*
X167869Y84894D01*
X168156Y84717D01*
X168439Y84533D01*
X168717Y84342D01*
X168991Y84144D01*
X169259Y83940D01*
X169523Y83729D01*
X169781Y83512D01*
X170034Y83288D01*
X170281Y83058D01*
X170523Y82823D01*
X170758Y82581D01*
X170988Y82334D01*
X171212Y82081D01*
X171429Y81823D01*
X171640Y81559D01*
X171844Y81291D01*
X172042Y81017D01*
X172233Y80739D01*
X172417Y80456D01*
X172594Y80169D01*
X172764Y79877D01*
X172926Y79582D01*
X173082Y79282D01*
X173230Y78979D01*
X173370Y78672D01*
X173503Y78362D01*
X173629Y78049D01*
X173746Y77732D01*
X173856Y77413D01*
X173958Y77091D01*
X174052Y76767D01*
X174138Y76441D01*
X174216Y76113D01*
X174286Y75782D01*
X174348Y75451D01*
X174401Y75118D01*
X174447Y74783D01*
X174484Y74448D01*
X174513Y74112D01*
X174533Y73775D01*
X174546Y73437D01*
X174550Y73100D01*
X174546Y72763D01*
X174533Y72425D01*
X174513Y72088D01*
X174484Y71752D01*
X174447Y71417D01*
X174401Y71082D01*
X174348Y70749D01*
X174286Y70418D01*
X174216Y70087D01*
X174138Y69759D01*
X174052Y69433D01*
X173958Y69109D01*
X173856Y68787D01*
X173746Y68468D01*
X173629Y68151D01*
X173503Y67838D01*
X173370Y67528D01*
X173230Y67221D01*
X173082Y66918D01*
X172926Y66618D01*
X172764Y66323D01*
X172594Y66031D01*
X172417Y65744D01*
X172233Y65461D01*
X172042Y65183D01*
X171844Y64909D01*
X171640Y64641D01*
X171429Y64377D01*
X171212Y64119D01*
X170988Y63866D01*
X170758Y63619D01*
X170523Y63377D01*
X170281Y63142D01*
X170034Y62912D01*
X169781Y62688D01*
X169523Y62471D01*
X169259Y62260D01*
X168991Y62056D01*
X168717Y61858D01*
X168439Y61667D01*
X168156Y61483D01*
X167869Y61306D01*
X167577Y61136D01*
X167282Y60974D01*
X166982Y60818D01*
X166679Y60670D01*
X166372Y60530D01*
X166062Y60397D01*
X165749Y60271D01*
X165432Y60154D01*
X165113Y60044D01*
X164791Y59942D01*
X164467Y59848D01*
X164141Y59762D01*
X163813Y59684D01*
X163482Y59614D01*
X163151Y59552D01*
X162818Y59499D01*
X162483Y59453D01*
X162148Y59416D01*
X161812Y59387D01*
X161475Y59367D01*
X161137Y59354D01*
X160800Y59350D01*
X160463Y59354D01*
X160125Y59367D01*
X159788Y59387D01*
X159452Y59416D01*
X159117Y59453D01*
X158782Y59499D01*
X158449Y59552D01*
X158118Y59614D01*
X157787Y59684D01*
X157459Y59762D01*
X157133Y59848D01*
X156809Y59942D01*
X156487Y60044D01*
X156168Y60154D01*
X155851Y60271D01*
X155538Y60397D01*
X155228Y60530D01*
X154921Y60670D01*
X154618Y60818D01*
X154318Y60974D01*
X154023Y61136D01*
X153731Y61306D01*
X153444Y61483D01*
X153161Y61667D01*
X152883Y61858D01*
X152609Y62056D01*
X152341Y62260D01*
X152077Y62471D01*
X151819Y62688D01*
X151566Y62912D01*
X151319Y63142D01*
X151077Y63377D01*
X150842Y63619D01*
X150612Y63866D01*
X150388Y64119D01*
X150171Y64377D01*
X149960Y64641D01*
X149756Y64909D01*
X149558Y65183D01*
X149367Y65461D01*
X149183Y65744D01*
X149006Y66031D01*
X148836Y66323D01*
X148674Y66618D01*
X148518Y66918D01*
X148370Y67221D01*
X148230Y67528D01*
X148097Y67838D01*
X147971Y68151D01*
X147854Y68468D01*
X147744Y68787D01*
X147642Y69109D01*
X147548Y69433D01*
X147462Y69759D01*
X147384Y70087D01*
X147314Y70418D01*
X147252Y70749D01*
X147199Y71082D01*
X147153Y71417D01*
X147116Y71752D01*
X147087Y72088D01*
X147067Y72425D01*
X147054Y72763D01*
X147050Y73100D01*
X147050Y653100D02*
X147054Y653437D01*
X147067Y653775D01*
X147087Y654112D01*
X147116Y654448D01*
X147153Y654783D01*
X147199Y655118D01*
X147252Y655451D01*
X147314Y655782D01*
X147384Y656113D01*
X147462Y656441D01*
X147548Y656767D01*
X147642Y657091D01*
X147744Y657413D01*
X147854Y657732D01*
X147971Y658049D01*
X148097Y658362D01*
X148230Y658672D01*
X148370Y658979D01*
X148518Y659282D01*
X148674Y659582D01*
X148836Y659877D01*
X149006Y660169D01*
X149183Y660456D01*
X149367Y660739D01*
X149558Y661017D01*
X149756Y661291D01*
X149960Y661559D01*
X150171Y661823D01*
X150388Y662081D01*
X150612Y662334D01*
X150842Y662581D01*
X151077Y662823D01*
X151319Y663058D01*
X151566Y663288D01*
X151819Y663512D01*
X152077Y663729D01*
X152341Y663940D01*
X152609Y664144D01*
X152883Y664342D01*
X153161Y664533D01*
X153444Y664717D01*
X153731Y664894D01*
X154023Y665064D01*
X154318Y665226D01*
X154618Y665382D01*
X154921Y665530D01*
X155228Y665670D01*
X155538Y665803D01*
X155851Y665929D01*
X156168Y666046D01*
X156487Y666156D01*
X156809Y666258D01*
X157133Y666352D01*
X157459Y666438D01*
X157787Y666516D01*
X158118Y666586D01*
X158449Y666648D01*
X158782Y666701D01*
X159117Y666747D01*
X159452Y666784D01*
X159788Y666813D01*
X160125Y666833D01*
X160463Y666846D01*
X160800Y666850D01*
X161137Y666846D01*
X161475Y666833D01*
X161812Y666813D01*
X162148Y666784D01*
X162483Y666747D01*
X162818Y666701D01*
X163151Y666648D01*
X163482Y666586D01*
X163813Y666516D01*
X164141Y666438D01*
X164467Y666352D01*
X164791Y666258D01*
X165113Y666156D01*
X165432Y666046D01*
X165749Y665929D01*
X166062Y665803D01*
X166372Y665670D01*
X166679Y665530D01*
X166982Y665382D01*
X167282Y665226D01*
X167577Y665064D01*
X167869Y664894D01*
X168156Y664717D01*
X168439Y664533D01*
X168717Y664342D01*
X168991Y664144D01*
X169259Y663940D01*
X169523Y663729D01*
X169781Y663512D01*
X170034Y663288D01*
X170281Y663058D01*
X170523Y662823D01*
X170758Y662581D01*
X170988Y662334D01*
X171212Y662081D01*
X171429Y661823D01*
X171640Y661559D01*
X171844Y661291D01*
X172042Y661017D01*
X172233Y660739D01*
X172417Y660456D01*
X172594Y660169D01*
X172764Y659877D01*
X172926Y659582D01*
X173082Y659282D01*
X173230Y658979D01*
X173370Y658672D01*
X173503Y658362D01*
X173629Y658049D01*
X173746Y657732D01*
X173856Y657413D01*
X173958Y657091D01*
X174052Y656767D01*
X174138Y656441D01*
X174216Y656113D01*
X174286Y655782D01*
X174348Y655451D01*
X174401Y655118D01*
X174447Y654783D01*
X174484Y654448D01*
X174513Y654112D01*
X174533Y653775D01*
X174546Y653437D01*
X174550Y653100D01*
X174546Y652763D01*
X174533Y652425D01*
X174513Y652088D01*
X174484Y651752D01*
X174447Y651417D01*
X174401Y651082D01*
X174348Y650749D01*
X174286Y650418D01*
X174216Y650087D01*
X174138Y649759D01*
X174052Y649433D01*
X173958Y649109D01*
X173856Y648787D01*
X173746Y648468D01*
X173629Y648151D01*
X173503Y647838D01*
X173370Y647528D01*
X173230Y647221D01*
X173082Y646918D01*
X172926Y646618D01*
X172764Y646323D01*
X172594Y646031D01*
X172417Y645744D01*
X172233Y645461D01*
X172042Y645183D01*
X171844Y644909D01*
X171640Y644641D01*
X171429Y644377D01*
X171212Y644119D01*
X170988Y643866D01*
X170758Y643619D01*
X170523Y643377D01*
X170281Y643142D01*
X170034Y642912D01*
X169781Y642688D01*
X169523Y642471D01*
X169259Y642260D01*
X168991Y642056D01*
X168717Y641858D01*
X168439Y641667D01*
X168156Y641483D01*
X167869Y641306D01*
X167577Y641136D01*
X167282Y640974D01*
X166982Y640818D01*
X166679Y640670D01*
X166372Y640530D01*
X166062Y640397D01*
X165749Y640271D01*
X165432Y640154D01*
X165113Y640044D01*
X164791Y639942D01*
X164467Y639848D01*
X164141Y639762D01*
X163813Y639684D01*
X163482Y639614D01*
X163151Y639552D01*
X162818Y639499D01*
X162483Y639453D01*
X162148Y639416D01*
X161812Y639387D01*
X161475Y639367D01*
X161137Y639354D01*
X160800Y639350D01*
X160463Y639354D01*
X160125Y639367D01*
X159788Y639387D01*
X159452Y639416D01*
X159117Y639453D01*
X158782Y639499D01*
X158449Y639552D01*
X158118Y639614D01*
X157787Y639684D01*
X157459Y639762D01*
X157133Y639848D01*
X156809Y639942D01*
X156487Y640044D01*
X156168Y640154D01*
X155851Y640271D01*
X155538Y640397D01*
X155228Y640530D01*
X154921Y640670D01*
X154618Y640818D01*
X154318Y640974D01*
X154023Y641136D01*
X153731Y641306D01*
X153444Y641483D01*
X153161Y641667D01*
X152883Y641858D01*
X152609Y642056D01*
X152341Y642260D01*
X152077Y642471D01*
X151819Y642688D01*
X151566Y642912D01*
X151319Y643142D01*
X151077Y643377D01*
X150842Y643619D01*
X150612Y643866D01*
X150388Y644119D01*
X150171Y644377D01*
X149960Y644641D01*
X149756Y644909D01*
X149558Y645183D01*
X149367Y645461D01*
X149183Y645744D01*
X149006Y646031D01*
X148836Y646323D01*
X148674Y646618D01*
X148518Y646918D01*
X148370Y647221D01*
X148230Y647528D01*
X148097Y647838D01*
X147971Y648151D01*
X147854Y648468D01*
X147744Y648787D01*
X147642Y649109D01*
X147548Y649433D01*
X147462Y649759D01*
X147384Y650087D01*
X147314Y650418D01*
X147252Y650749D01*
X147199Y651082D01*
X147153Y651417D01*
X147116Y651752D01*
X147087Y652088D01*
X147067Y652425D01*
X147054Y652763D01*
X147050Y653100D01*
D12*
X-16764Y3048D02*
X-16692Y1388D01*
X-16475Y-260D01*
X-16115Y-1883D01*
X-15615Y-3468D01*
X-14979Y-5003D01*
X-14212Y-6477D01*
X-13319Y-7879D01*
X-12307Y-9197D01*
X-11184Y-10422D01*
X-9959Y-11545D01*
X-8641Y-12557D01*
X-7239Y-13450D01*
X-5765Y-14217D01*
X-4229Y-14853D01*
X-2645Y-15353D01*
X-1022Y-15713D01*
X626Y-15930D01*
X2286Y-16002D01*
X764286Y-16002D01*
X765946Y-15930D01*
X767594Y-15713D01*
X769217Y-15353D01*
X770802Y-14853D01*
X772337Y-14217D01*
X773811Y-13450D01*
X775213Y-12557D01*
X776531Y-11545D01*
X777756Y-10422D01*
X778879Y-9197D01*
X779891Y-7879D01*
X780784Y-6477D01*
X781551Y-5003D01*
X782187Y-3468D01*
X782687Y-1883D01*
X783047Y-260D01*
X783264Y1388D01*
X783336Y3048D01*
X783336Y707898D01*
X783264Y709558D01*
X783047Y711206D01*
X782687Y712829D01*
X782187Y714413D01*
X781551Y715949D01*
X780784Y717423D01*
X779891Y718825D01*
X778879Y720143D01*
X777756Y721368D01*
X776531Y722491D01*
X775213Y723503D01*
X773811Y724396D01*
X772337Y725163D01*
X770801Y725799D01*
X769217Y726299D01*
X767594Y726659D01*
X765946Y726876D01*
X764286Y726948D01*
X403606Y726948D01*
X402831Y726914D01*
X402062Y726813D01*
X401305Y726645D01*
X400565Y726412D01*
X399849Y726115D01*
X399161Y725757D01*
X398507Y725340D01*
X397892Y724868D01*
X397320Y724344D01*
X396796Y723772D01*
X396324Y723157D01*
X395907Y722503D01*
X395549Y721815D01*
X395252Y721099D01*
X395019Y720359D01*
X394851Y719602D01*
X394750Y718833D01*
X394716Y718058D01*
X394716Y697738D01*
X394682Y696963D01*
X394581Y696194D01*
X394413Y695437D01*
X394180Y694697D01*
X393883Y693981D01*
X393525Y693293D01*
X393108Y692639D01*
X392636Y692024D01*
X392112Y691452D01*
X391540Y690928D01*
X390925Y690456D01*
X390271Y690039D01*
X389583Y689681D01*
X388867Y689384D01*
X388127Y689151D01*
X387370Y688983D01*
X386601Y688882D01*
X385826Y688848D01*
X-7874Y688848D01*
X-8649Y688814D01*
X-9418Y688713D01*
X-10175Y688545D01*
X-10915Y688312D01*
X-11631Y688015D01*
X-12319Y687657D01*
X-12973Y687240D01*
X-13588Y686768D01*
X-14160Y686244D01*
X-14684Y685672D01*
X-15156Y685057D01*
X-15573Y684403D01*
X-15931Y683715D01*
X-16228Y682999D01*
X-16461Y682259D01*
X-16629Y681502D01*
X-16730Y680733D01*
X-16764Y679958D01*
X-16764Y3048D01*
X651291Y86850D02*
X652271Y86780D01*
X653243Y86640D01*
X654203Y86431D01*
X655145Y86155D01*
X656065Y85811D01*
X656959Y85403D01*
X657821Y84933D01*
X658647Y84402D01*
X659433Y83813D01*
X660175Y83170D01*
X660870Y82475D01*
X661513Y81733D01*
X662102Y80947D01*
X662633Y80121D01*
X663103Y79259D01*
X663511Y78365D01*
X663855Y77445D01*
X664131Y76503D01*
X664340Y75543D01*
X664480Y74571D01*
X664550Y73591D01*
X664550Y72609D01*
X664480Y71629D01*
X664340Y70657D01*
X664131Y69697D01*
X663855Y68755D01*
X663511Y67835D01*
X663103Y66941D01*
X662633Y66079D01*
X662102Y65253D01*
X661513Y64467D01*
X660870Y63725D01*
X660175Y63030D01*
X659433Y62387D01*
X658647Y61798D01*
X657821Y61267D01*
X656959Y60797D01*
X656065Y60389D01*
X655145Y60045D01*
X654203Y59769D01*
X653243Y59560D01*
X652271Y59420D01*
X651291Y59350D01*
X650309Y59350D01*
X649329Y59420D01*
X648357Y59560D01*
X647397Y59769D01*
X646455Y60045D01*
X645535Y60389D01*
X644641Y60797D01*
X643779Y61267D01*
X642953Y61798D01*
X642167Y62387D01*
X641425Y63030D01*
X640730Y63725D01*
X640087Y64467D01*
X639498Y65253D01*
X638967Y66079D01*
X638497Y66941D01*
X638089Y67835D01*
X637745Y68755D01*
X637469Y69697D01*
X637260Y70657D01*
X637120Y71629D01*
X637050Y72609D01*
X637050Y73591D01*
X637120Y74571D01*
X637260Y75543D01*
X637469Y76503D01*
X637745Y77445D01*
X638089Y78365D01*
X638497Y79259D01*
X638967Y80121D01*
X639498Y80947D01*
X640087Y81733D01*
X640730Y82475D01*
X641425Y83170D01*
X642167Y83813D01*
X642953Y84402D01*
X643779Y84933D01*
X644641Y85403D01*
X645535Y85811D01*
X646455Y86155D01*
X647397Y86431D01*
X648357Y86640D01*
X649329Y86780D01*
X650309Y86850D01*
X651291Y86850D01*
X651291Y666850D02*
X652271Y666780D01*
X653243Y666640D01*
X654203Y666431D01*
X655145Y666155D01*
X656065Y665811D01*
X656959Y665403D01*
X657821Y664933D01*
X658647Y664402D01*
X659433Y663813D01*
X660175Y663170D01*
X660870Y662475D01*
X661513Y661733D01*
X662102Y660947D01*
X662633Y660121D01*
X663103Y659259D01*
X663511Y658365D01*
X663855Y657445D01*
X664131Y656503D01*
X664340Y655543D01*
X664480Y654571D01*
X664550Y653591D01*
X664550Y652609D01*
X664480Y651629D01*
X664340Y650657D01*
X664131Y649697D01*
X663855Y648755D01*
X663511Y647835D01*
X663103Y646941D01*
X662633Y646079D01*
X662102Y645253D01*
X661513Y644467D01*
X660870Y643725D01*
X660175Y643030D01*
X659433Y642387D01*
X658647Y641798D01*
X657821Y641267D01*
X656959Y640797D01*
X656065Y640389D01*
X655145Y640045D01*
X654203Y639769D01*
X653243Y639560D01*
X652271Y639420D01*
X651291Y639350D01*
X650309Y639350D01*
X649329Y639420D01*
X648357Y639560D01*
X647397Y639769D01*
X646455Y640045D01*
X645535Y640389D01*
X644641Y640797D01*
X643779Y641267D01*
X642953Y641798D01*
X642167Y642387D01*
X641425Y643030D01*
X640730Y643725D01*
X640087Y644467D01*
X639498Y645253D01*
X638967Y646079D01*
X638497Y646941D01*
X638089Y647835D01*
X637745Y648755D01*
X637469Y649697D01*
X637260Y650657D01*
X637120Y651629D01*
X637050Y652609D01*
X637050Y653591D01*
X637120Y654571D01*
X637260Y655543D01*
X637469Y656503D01*
X637745Y657445D01*
X638089Y658365D01*
X638497Y659259D01*
X638967Y660121D01*
X639498Y660947D01*
X640087Y661733D01*
X640730Y662475D01*
X641425Y663170D01*
X642167Y663813D01*
X642953Y664402D01*
X643779Y664933D01*
X644641Y665403D01*
X645535Y665811D01*
X646455Y666155D01*
X647397Y666431D01*
X648357Y666640D01*
X649329Y666780D01*
X650309Y666850D01*
X651291Y666850D01*
X161291Y86850D02*
X162271Y86780D01*
X163243Y86640D01*
X164203Y86431D01*
X165145Y86155D01*
X166065Y85811D01*
X166959Y85403D01*
X167821Y84933D01*
X168647Y84402D01*
X169433Y83813D01*
X170175Y83170D01*
X170870Y82475D01*
X171513Y81733D01*
X172102Y80947D01*
X172633Y80121D01*
X173103Y79259D01*
X173511Y78365D01*
X173855Y77445D01*
X174131Y76503D01*
X174340Y75543D01*
X174480Y74571D01*
X174550Y73591D01*
X174550Y72609D01*
X174480Y71629D01*
X174340Y70657D01*
X174131Y69697D01*
X173855Y68755D01*
X173511Y67835D01*
X173103Y66941D01*
X172633Y66079D01*
X172102Y65253D01*
X171513Y64467D01*
X170870Y63725D01*
X170175Y63030D01*
X169433Y62387D01*
X168647Y61798D01*
X167821Y61267D01*
X166959Y60797D01*
X166065Y60389D01*
X165145Y60045D01*
X164203Y59769D01*
X163243Y59560D01*
X162271Y59420D01*
X161291Y59350D01*
X160309Y59350D01*
X159329Y59420D01*
X158357Y59560D01*
X157397Y59769D01*
X156455Y60045D01*
X155535Y60389D01*
X154641Y60797D01*
X153779Y61267D01*
X152953Y61798D01*
X152167Y62387D01*
X151425Y63030D01*
X150730Y63725D01*
X150087Y64467D01*
X149498Y65253D01*
X148967Y66079D01*
X148497Y66941D01*
X148089Y67835D01*
X147745Y68755D01*
X147469Y69697D01*
X147260Y70657D01*
X147120Y71629D01*
X147050Y72609D01*
X147050Y73591D01*
X147120Y74571D01*
X147260Y75543D01*
X147469Y76503D01*
X147745Y77445D01*
X148089Y78365D01*
X148497Y79259D01*
X148967Y80121D01*
X149498Y80947D01*
X150087Y81733D01*
X150730Y82475D01*
X151425Y83170D01*
X152167Y83813D01*
X152953Y84402D01*
X153779Y84933D01*
X154641Y85403D01*
X155535Y85811D01*
X156455Y86155D01*
X157397Y86431D01*
X158357Y86640D01*
X159329Y86780D01*
X160309Y86850D01*
X161291Y86850D01*
X161291Y666850D02*
X162271Y666780D01*
X163243Y666640D01*
X164203Y666431D01*
X165145Y666155D01*
X166065Y665811D01*
X166959Y665403D01*
X167821Y664933D01*
X168647Y664402D01*
X169433Y663813D01*
X170175Y663170D01*
X170870Y662475D01*
X171513Y661733D01*
X172102Y660947D01*
X172633Y660121D01*
X173103Y659259D01*
X173511Y658365D01*
X173855Y657445D01*
X174131Y656503D01*
X174340Y655543D01*
X174480Y654571D01*
X174550Y653591D01*
X174550Y652609D01*
X174480Y651629D01*
X174340Y650657D01*
X174131Y649697D01*
X173855Y648755D01*
X173511Y647835D01*
X173103Y646941D01*
X172633Y646079D01*
X172102Y645253D01*
X171513Y644467D01*
X170870Y643725D01*
X170175Y643030D01*
X169433Y642387D01*
X168647Y641798D01*
X167821Y641267D01*
X166959Y640797D01*
X166065Y640389D01*
X165145Y640045D01*
X164203Y639769D01*
X163243Y639560D01*
X162271Y639420D01*
X161291Y639350D01*
X160309Y639350D01*
X159329Y639420D01*
X158357Y639560D01*
X157397Y639769D01*
X156455Y640045D01*
X155535Y640389D01*
X154641Y640797D01*
X153779Y641267D01*
X152953Y641798D01*
X152167Y642387D01*
X151425Y643030D01*
X150730Y643725D01*
X150087Y644467D01*
X149498Y645253D01*
X148967Y646079D01*
X148497Y646941D01*
X148089Y647835D01*
X147745Y648755D01*
X147469Y649697D01*
X147260Y650657D01*
X147120Y651629D01*
X147050Y652609D01*
X147050Y653591D01*
X147120Y654571D01*
X147260Y655543D01*
X147469Y656503D01*
X147745Y657445D01*
X148089Y658365D01*
X148497Y659259D01*
X148967Y660121D01*
X149498Y660947D01*
X150087Y661733D01*
X150730Y662475D01*
X151425Y663170D01*
X152167Y663813D01*
X152953Y664402D01*
X153779Y664933D01*
X154641Y665403D01*
X155535Y665811D01*
X156455Y666155D01*
X157397Y666431D01*
X158357Y666640D01*
X159329Y666780D01*
X160309Y666850D01*
X161291Y666850D01*
M02*
