G04 EAGLE Gerber RS-274X export*
G75*
%MOMM*%
%FSLAX34Y34*%
%LPD*%
%INSilkscreen Bottom*%
%IPPOS*%
%AMOC8*
5,1,8,0,0,1.08239X$1,22.5*%
G01*
%ADD10C,0.127000*%
%ADD11C,0.152400*%
%ADD12C,0.508000*%
%ADD13C,0.200000*%


D10*
X130810Y117094D02*
X130810Y127254D01*
D11*
X94479Y117856D02*
X92560Y117856D01*
X94479Y117856D02*
X94565Y117858D01*
X94651Y117864D01*
X94737Y117873D01*
X94822Y117887D01*
X94906Y117904D01*
X94990Y117925D01*
X95072Y117950D01*
X95153Y117978D01*
X95233Y118010D01*
X95312Y118046D01*
X95388Y118085D01*
X95463Y118128D01*
X95536Y118173D01*
X95607Y118223D01*
X95675Y118275D01*
X95742Y118330D01*
X95805Y118388D01*
X95866Y118449D01*
X95924Y118512D01*
X95979Y118579D01*
X96032Y118647D01*
X96081Y118718D01*
X96126Y118791D01*
X96169Y118866D01*
X96208Y118942D01*
X96244Y119021D01*
X96276Y119101D01*
X96304Y119182D01*
X96329Y119265D01*
X96350Y119348D01*
X96367Y119432D01*
X96381Y119517D01*
X96390Y119603D01*
X96396Y119689D01*
X96398Y119775D01*
X96398Y124573D01*
X96396Y124659D01*
X96390Y124745D01*
X96381Y124831D01*
X96367Y124916D01*
X96350Y125000D01*
X96329Y125084D01*
X96304Y125166D01*
X96276Y125247D01*
X96244Y125327D01*
X96208Y125406D01*
X96169Y125482D01*
X96126Y125557D01*
X96081Y125630D01*
X96032Y125701D01*
X95979Y125769D01*
X95924Y125836D01*
X95866Y125899D01*
X95805Y125960D01*
X95742Y126018D01*
X95676Y126073D01*
X95607Y126125D01*
X95536Y126175D01*
X95463Y126220D01*
X95388Y126263D01*
X95312Y126302D01*
X95233Y126338D01*
X95153Y126370D01*
X95072Y126398D01*
X94990Y126423D01*
X94906Y126444D01*
X94822Y126461D01*
X94737Y126475D01*
X94651Y126484D01*
X94565Y126490D01*
X94479Y126492D01*
X92560Y126492D01*
X88740Y124573D02*
X86341Y126492D01*
X86341Y117856D01*
X88740Y117856D02*
X83942Y117856D01*
D10*
X130810Y142367D02*
X130810Y152527D01*
D11*
X94479Y143129D02*
X92560Y143129D01*
X94479Y143129D02*
X94565Y143131D01*
X94651Y143137D01*
X94737Y143146D01*
X94822Y143160D01*
X94906Y143177D01*
X94990Y143198D01*
X95072Y143223D01*
X95153Y143251D01*
X95233Y143283D01*
X95312Y143319D01*
X95388Y143358D01*
X95463Y143401D01*
X95536Y143446D01*
X95607Y143496D01*
X95675Y143548D01*
X95742Y143603D01*
X95805Y143661D01*
X95866Y143722D01*
X95924Y143785D01*
X95979Y143852D01*
X96032Y143920D01*
X96081Y143991D01*
X96126Y144064D01*
X96169Y144139D01*
X96208Y144215D01*
X96244Y144294D01*
X96276Y144374D01*
X96304Y144455D01*
X96329Y144538D01*
X96350Y144621D01*
X96367Y144705D01*
X96381Y144790D01*
X96390Y144876D01*
X96396Y144962D01*
X96398Y145048D01*
X96398Y149846D01*
X96396Y149932D01*
X96390Y150018D01*
X96381Y150104D01*
X96367Y150189D01*
X96350Y150273D01*
X96329Y150357D01*
X96304Y150439D01*
X96276Y150520D01*
X96244Y150600D01*
X96208Y150679D01*
X96169Y150755D01*
X96126Y150830D01*
X96081Y150903D01*
X96032Y150974D01*
X95979Y151042D01*
X95924Y151109D01*
X95866Y151172D01*
X95805Y151233D01*
X95742Y151291D01*
X95676Y151346D01*
X95607Y151398D01*
X95536Y151448D01*
X95463Y151493D01*
X95388Y151536D01*
X95312Y151575D01*
X95233Y151611D01*
X95153Y151643D01*
X95072Y151671D01*
X94990Y151696D01*
X94906Y151717D01*
X94822Y151734D01*
X94737Y151748D01*
X94651Y151757D01*
X94565Y151763D01*
X94479Y151765D01*
X92560Y151765D01*
X86101Y151765D02*
X86009Y151763D01*
X85918Y151757D01*
X85827Y151748D01*
X85736Y151734D01*
X85646Y151717D01*
X85557Y151695D01*
X85469Y151670D01*
X85382Y151642D01*
X85296Y151609D01*
X85212Y151573D01*
X85129Y151534D01*
X85048Y151491D01*
X84969Y151444D01*
X84892Y151395D01*
X84817Y151342D01*
X84745Y151286D01*
X84675Y151227D01*
X84607Y151165D01*
X84542Y151100D01*
X84480Y151032D01*
X84421Y150962D01*
X84365Y150890D01*
X84312Y150815D01*
X84263Y150738D01*
X84216Y150659D01*
X84173Y150578D01*
X84134Y150495D01*
X84098Y150411D01*
X84065Y150325D01*
X84037Y150238D01*
X84012Y150150D01*
X83990Y150061D01*
X83973Y149971D01*
X83959Y149880D01*
X83950Y149789D01*
X83944Y149698D01*
X83942Y149606D01*
X86101Y151765D02*
X86204Y151763D01*
X86306Y151757D01*
X86408Y151748D01*
X86510Y151735D01*
X86611Y151718D01*
X86712Y151697D01*
X86811Y151673D01*
X86910Y151644D01*
X87007Y151613D01*
X87104Y151577D01*
X87199Y151539D01*
X87292Y151496D01*
X87384Y151450D01*
X87474Y151401D01*
X87562Y151349D01*
X87649Y151293D01*
X87733Y151234D01*
X87814Y151173D01*
X87894Y151108D01*
X87971Y151040D01*
X88046Y150969D01*
X88117Y150896D01*
X88186Y150820D01*
X88253Y150742D01*
X88316Y150661D01*
X88376Y150578D01*
X88433Y150493D01*
X88487Y150406D01*
X88538Y150316D01*
X88585Y150225D01*
X88629Y150133D01*
X88670Y150038D01*
X88707Y149943D01*
X88740Y149846D01*
X84662Y147927D02*
X84595Y147993D01*
X84531Y148062D01*
X84470Y148133D01*
X84412Y148207D01*
X84357Y148283D01*
X84305Y148361D01*
X84256Y148441D01*
X84210Y148523D01*
X84168Y148607D01*
X84129Y148693D01*
X84094Y148780D01*
X84063Y148868D01*
X84035Y148958D01*
X84010Y149048D01*
X83989Y149140D01*
X83972Y149232D01*
X83959Y149325D01*
X83950Y149418D01*
X83944Y149512D01*
X83942Y149606D01*
X84662Y147927D02*
X88740Y143129D01*
X83942Y143129D01*
X253215Y136525D02*
X255134Y136525D01*
X255220Y136527D01*
X255306Y136533D01*
X255392Y136542D01*
X255477Y136556D01*
X255561Y136573D01*
X255645Y136594D01*
X255727Y136619D01*
X255808Y136647D01*
X255888Y136679D01*
X255967Y136715D01*
X256043Y136754D01*
X256118Y136797D01*
X256191Y136842D01*
X256262Y136892D01*
X256330Y136944D01*
X256397Y136999D01*
X256460Y137057D01*
X256521Y137118D01*
X256579Y137181D01*
X256634Y137248D01*
X256687Y137316D01*
X256736Y137387D01*
X256781Y137460D01*
X256824Y137535D01*
X256863Y137611D01*
X256899Y137690D01*
X256931Y137770D01*
X256959Y137851D01*
X256984Y137934D01*
X257005Y138017D01*
X257022Y138101D01*
X257036Y138186D01*
X257045Y138272D01*
X257051Y138358D01*
X257053Y138444D01*
X257053Y143242D01*
X257051Y143328D01*
X257045Y143414D01*
X257036Y143500D01*
X257022Y143585D01*
X257005Y143669D01*
X256984Y143753D01*
X256959Y143835D01*
X256931Y143916D01*
X256899Y143996D01*
X256863Y144075D01*
X256824Y144151D01*
X256781Y144226D01*
X256736Y144299D01*
X256687Y144370D01*
X256634Y144438D01*
X256579Y144505D01*
X256521Y144568D01*
X256460Y144629D01*
X256397Y144687D01*
X256331Y144742D01*
X256262Y144794D01*
X256191Y144844D01*
X256118Y144889D01*
X256043Y144932D01*
X255967Y144971D01*
X255888Y145007D01*
X255808Y145039D01*
X255727Y145067D01*
X255645Y145092D01*
X255561Y145113D01*
X255477Y145130D01*
X255392Y145144D01*
X255306Y145153D01*
X255220Y145159D01*
X255134Y145161D01*
X253215Y145161D01*
X247476Y145161D02*
X249395Y138444D01*
X244597Y138444D01*
X246036Y140363D02*
X246036Y136525D01*
X248135Y85471D02*
X250054Y85471D01*
X250140Y85473D01*
X250226Y85479D01*
X250312Y85488D01*
X250397Y85502D01*
X250481Y85519D01*
X250565Y85540D01*
X250647Y85565D01*
X250728Y85593D01*
X250808Y85625D01*
X250887Y85661D01*
X250963Y85700D01*
X251038Y85743D01*
X251111Y85788D01*
X251182Y85838D01*
X251250Y85890D01*
X251317Y85945D01*
X251380Y86003D01*
X251441Y86064D01*
X251499Y86127D01*
X251554Y86194D01*
X251607Y86262D01*
X251656Y86333D01*
X251701Y86406D01*
X251744Y86481D01*
X251783Y86557D01*
X251819Y86636D01*
X251851Y86716D01*
X251879Y86797D01*
X251904Y86880D01*
X251925Y86963D01*
X251942Y87047D01*
X251956Y87132D01*
X251965Y87218D01*
X251971Y87304D01*
X251973Y87390D01*
X251973Y92188D01*
X251971Y92274D01*
X251965Y92360D01*
X251956Y92446D01*
X251942Y92531D01*
X251925Y92615D01*
X251904Y92699D01*
X251879Y92781D01*
X251851Y92862D01*
X251819Y92942D01*
X251783Y93021D01*
X251744Y93097D01*
X251701Y93172D01*
X251656Y93245D01*
X251607Y93316D01*
X251554Y93384D01*
X251499Y93451D01*
X251441Y93514D01*
X251380Y93575D01*
X251317Y93633D01*
X251251Y93688D01*
X251182Y93740D01*
X251111Y93790D01*
X251038Y93835D01*
X250963Y93878D01*
X250887Y93917D01*
X250808Y93953D01*
X250728Y93985D01*
X250647Y94013D01*
X250565Y94038D01*
X250481Y94059D01*
X250397Y94076D01*
X250312Y94090D01*
X250226Y94099D01*
X250140Y94105D01*
X250054Y94107D01*
X248135Y94107D01*
X244315Y85471D02*
X241436Y85471D01*
X241350Y85473D01*
X241264Y85479D01*
X241178Y85488D01*
X241093Y85502D01*
X241009Y85519D01*
X240925Y85540D01*
X240843Y85565D01*
X240762Y85593D01*
X240682Y85625D01*
X240603Y85661D01*
X240527Y85700D01*
X240452Y85743D01*
X240379Y85788D01*
X240308Y85837D01*
X240240Y85890D01*
X240173Y85945D01*
X240110Y86003D01*
X240049Y86064D01*
X239991Y86127D01*
X239936Y86194D01*
X239883Y86262D01*
X239834Y86333D01*
X239789Y86406D01*
X239746Y86481D01*
X239707Y86557D01*
X239671Y86636D01*
X239639Y86716D01*
X239611Y86797D01*
X239586Y86879D01*
X239565Y86963D01*
X239548Y87047D01*
X239534Y87132D01*
X239525Y87218D01*
X239519Y87304D01*
X239517Y87390D01*
X239517Y88350D01*
X239519Y88436D01*
X239525Y88522D01*
X239534Y88608D01*
X239548Y88693D01*
X239565Y88777D01*
X239586Y88861D01*
X239611Y88943D01*
X239639Y89024D01*
X239671Y89104D01*
X239707Y89183D01*
X239746Y89259D01*
X239789Y89334D01*
X239834Y89407D01*
X239884Y89478D01*
X239936Y89546D01*
X239991Y89613D01*
X240049Y89676D01*
X240110Y89737D01*
X240173Y89795D01*
X240240Y89850D01*
X240308Y89903D01*
X240379Y89952D01*
X240452Y89997D01*
X240527Y90040D01*
X240603Y90079D01*
X240682Y90115D01*
X240762Y90147D01*
X240843Y90175D01*
X240926Y90200D01*
X241009Y90221D01*
X241093Y90238D01*
X241178Y90252D01*
X241264Y90261D01*
X241350Y90267D01*
X241436Y90269D01*
X244315Y90269D01*
X244315Y94107D01*
X239517Y94107D01*
X-64770Y49530D02*
X-64770Y382270D01*
X30480Y382270D01*
X30480Y338074D01*
X30480Y49530D02*
X-64770Y49530D01*
X30480Y312674D02*
X30480Y322326D01*
X30480Y296926D02*
X30480Y287274D01*
X30480Y271526D02*
X30480Y261874D01*
X30480Y246126D02*
X30480Y236474D01*
X30480Y220726D02*
X30480Y211074D01*
X30480Y195326D02*
X30480Y185674D01*
X30480Y169926D02*
X30480Y160274D01*
X30480Y144526D02*
X30480Y134874D01*
X30480Y119126D02*
X30480Y109474D01*
X30480Y93726D02*
X30480Y49530D01*
D12*
X63500Y384810D02*
X63378Y384812D01*
X63256Y384818D01*
X63134Y384828D01*
X63013Y384841D01*
X62892Y384859D01*
X62772Y384880D01*
X62652Y384906D01*
X62534Y384935D01*
X62416Y384967D01*
X62299Y385004D01*
X62184Y385044D01*
X62070Y385088D01*
X61958Y385136D01*
X61847Y385187D01*
X61738Y385242D01*
X61630Y385300D01*
X61525Y385362D01*
X61422Y385427D01*
X61320Y385495D01*
X61221Y385567D01*
X61125Y385641D01*
X61030Y385719D01*
X60939Y385800D01*
X60849Y385883D01*
X60763Y385969D01*
X60680Y386059D01*
X60599Y386150D01*
X60521Y386245D01*
X60447Y386341D01*
X60375Y386440D01*
X60307Y386542D01*
X60242Y386645D01*
X60180Y386750D01*
X60122Y386858D01*
X60067Y386967D01*
X60016Y387078D01*
X59968Y387190D01*
X59924Y387304D01*
X59884Y387419D01*
X59847Y387536D01*
X59815Y387654D01*
X59786Y387772D01*
X59760Y387892D01*
X59739Y388012D01*
X59721Y388133D01*
X59708Y388254D01*
X59698Y388376D01*
X59692Y388498D01*
X59690Y388620D01*
X59692Y388742D01*
X59698Y388864D01*
X59708Y388986D01*
X59721Y389107D01*
X59739Y389228D01*
X59760Y389348D01*
X59786Y389468D01*
X59815Y389586D01*
X59847Y389704D01*
X59884Y389821D01*
X59924Y389936D01*
X59968Y390050D01*
X60016Y390162D01*
X60067Y390273D01*
X60122Y390382D01*
X60180Y390490D01*
X60242Y390595D01*
X60307Y390698D01*
X60375Y390800D01*
X60447Y390899D01*
X60521Y390995D01*
X60599Y391090D01*
X60680Y391181D01*
X60763Y391271D01*
X60849Y391357D01*
X60939Y391440D01*
X61030Y391521D01*
X61125Y391599D01*
X61221Y391673D01*
X61320Y391745D01*
X61422Y391813D01*
X61525Y391878D01*
X61630Y391940D01*
X61738Y391998D01*
X61847Y392053D01*
X61958Y392104D01*
X62070Y392152D01*
X62184Y392196D01*
X62299Y392236D01*
X62416Y392273D01*
X62534Y392305D01*
X62652Y392334D01*
X62772Y392360D01*
X62892Y392381D01*
X63013Y392399D01*
X63134Y392412D01*
X63256Y392422D01*
X63378Y392428D01*
X63500Y392430D01*
X63622Y392428D01*
X63744Y392422D01*
X63866Y392412D01*
X63987Y392399D01*
X64108Y392381D01*
X64228Y392360D01*
X64348Y392334D01*
X64466Y392305D01*
X64584Y392273D01*
X64701Y392236D01*
X64816Y392196D01*
X64930Y392152D01*
X65042Y392104D01*
X65153Y392053D01*
X65262Y391998D01*
X65370Y391940D01*
X65475Y391878D01*
X65578Y391813D01*
X65680Y391745D01*
X65779Y391673D01*
X65875Y391599D01*
X65970Y391521D01*
X66061Y391440D01*
X66151Y391357D01*
X66237Y391271D01*
X66320Y391181D01*
X66401Y391090D01*
X66479Y390995D01*
X66553Y390899D01*
X66625Y390800D01*
X66693Y390698D01*
X66758Y390595D01*
X66820Y390490D01*
X66878Y390382D01*
X66933Y390273D01*
X66984Y390162D01*
X67032Y390050D01*
X67076Y389936D01*
X67116Y389821D01*
X67153Y389704D01*
X67185Y389586D01*
X67214Y389468D01*
X67240Y389348D01*
X67261Y389228D01*
X67279Y389107D01*
X67292Y388986D01*
X67302Y388864D01*
X67308Y388742D01*
X67310Y388620D01*
X67308Y388498D01*
X67302Y388376D01*
X67292Y388254D01*
X67279Y388133D01*
X67261Y388012D01*
X67240Y387892D01*
X67214Y387772D01*
X67185Y387654D01*
X67153Y387536D01*
X67116Y387419D01*
X67076Y387304D01*
X67032Y387190D01*
X66984Y387078D01*
X66933Y386967D01*
X66878Y386858D01*
X66820Y386750D01*
X66758Y386645D01*
X66693Y386542D01*
X66625Y386440D01*
X66553Y386341D01*
X66479Y386245D01*
X66401Y386150D01*
X66320Y386059D01*
X66237Y385969D01*
X66151Y385883D01*
X66061Y385800D01*
X65970Y385719D01*
X65875Y385641D01*
X65779Y385567D01*
X65680Y385495D01*
X65578Y385427D01*
X65475Y385362D01*
X65370Y385300D01*
X65262Y385242D01*
X65153Y385187D01*
X65042Y385136D01*
X64930Y385088D01*
X64816Y385044D01*
X64701Y385004D01*
X64584Y384967D01*
X64466Y384935D01*
X64348Y384906D01*
X64228Y384880D01*
X64108Y384859D01*
X63987Y384841D01*
X63866Y384828D01*
X63744Y384818D01*
X63622Y384812D01*
X63500Y384810D01*
X666877Y444119D02*
X666999Y444121D01*
X667121Y444127D01*
X667243Y444137D01*
X667364Y444150D01*
X667485Y444168D01*
X667605Y444189D01*
X667725Y444215D01*
X667843Y444244D01*
X667961Y444276D01*
X668078Y444313D01*
X668193Y444353D01*
X668307Y444397D01*
X668419Y444445D01*
X668530Y444496D01*
X668639Y444551D01*
X668747Y444609D01*
X668852Y444671D01*
X668955Y444736D01*
X669057Y444804D01*
X669156Y444876D01*
X669252Y444950D01*
X669347Y445028D01*
X669438Y445109D01*
X669528Y445192D01*
X669614Y445278D01*
X669697Y445368D01*
X669778Y445459D01*
X669856Y445554D01*
X669930Y445650D01*
X670002Y445749D01*
X670070Y445851D01*
X670135Y445954D01*
X670197Y446059D01*
X670255Y446167D01*
X670310Y446276D01*
X670361Y446387D01*
X670409Y446499D01*
X670453Y446613D01*
X670493Y446728D01*
X670530Y446845D01*
X670562Y446963D01*
X670591Y447081D01*
X670617Y447201D01*
X670638Y447321D01*
X670656Y447442D01*
X670669Y447563D01*
X670679Y447685D01*
X670685Y447807D01*
X670687Y447929D01*
X670685Y448051D01*
X670679Y448173D01*
X670669Y448295D01*
X670656Y448416D01*
X670638Y448537D01*
X670617Y448657D01*
X670591Y448777D01*
X670562Y448895D01*
X670530Y449013D01*
X670493Y449130D01*
X670453Y449245D01*
X670409Y449359D01*
X670361Y449471D01*
X670310Y449582D01*
X670255Y449691D01*
X670197Y449799D01*
X670135Y449904D01*
X670070Y450007D01*
X670002Y450109D01*
X669930Y450208D01*
X669856Y450304D01*
X669778Y450399D01*
X669697Y450490D01*
X669614Y450580D01*
X669528Y450666D01*
X669438Y450749D01*
X669347Y450830D01*
X669252Y450908D01*
X669156Y450982D01*
X669057Y451054D01*
X668955Y451122D01*
X668852Y451187D01*
X668747Y451249D01*
X668639Y451307D01*
X668530Y451362D01*
X668419Y451413D01*
X668307Y451461D01*
X668193Y451505D01*
X668078Y451545D01*
X667961Y451582D01*
X667843Y451614D01*
X667725Y451643D01*
X667605Y451669D01*
X667485Y451690D01*
X667364Y451708D01*
X667243Y451721D01*
X667121Y451731D01*
X666999Y451737D01*
X666877Y451739D01*
X666755Y451737D01*
X666633Y451731D01*
X666511Y451721D01*
X666390Y451708D01*
X666269Y451690D01*
X666149Y451669D01*
X666029Y451643D01*
X665911Y451614D01*
X665793Y451582D01*
X665676Y451545D01*
X665561Y451505D01*
X665447Y451461D01*
X665335Y451413D01*
X665224Y451362D01*
X665115Y451307D01*
X665007Y451249D01*
X664902Y451187D01*
X664799Y451122D01*
X664697Y451054D01*
X664598Y450982D01*
X664502Y450908D01*
X664407Y450830D01*
X664316Y450749D01*
X664226Y450666D01*
X664140Y450580D01*
X664057Y450490D01*
X663976Y450399D01*
X663898Y450304D01*
X663824Y450208D01*
X663752Y450109D01*
X663684Y450007D01*
X663619Y449904D01*
X663557Y449799D01*
X663499Y449691D01*
X663444Y449582D01*
X663393Y449471D01*
X663345Y449359D01*
X663301Y449245D01*
X663261Y449130D01*
X663224Y449013D01*
X663192Y448895D01*
X663163Y448777D01*
X663137Y448657D01*
X663116Y448537D01*
X663098Y448416D01*
X663085Y448295D01*
X663075Y448173D01*
X663069Y448051D01*
X663067Y447929D01*
X663069Y447807D01*
X663075Y447685D01*
X663085Y447563D01*
X663098Y447442D01*
X663116Y447321D01*
X663137Y447201D01*
X663163Y447081D01*
X663192Y446963D01*
X663224Y446845D01*
X663261Y446728D01*
X663301Y446613D01*
X663345Y446499D01*
X663393Y446387D01*
X663444Y446276D01*
X663499Y446167D01*
X663557Y446059D01*
X663619Y445954D01*
X663684Y445851D01*
X663752Y445749D01*
X663824Y445650D01*
X663898Y445554D01*
X663976Y445459D01*
X664057Y445368D01*
X664140Y445278D01*
X664226Y445192D01*
X664316Y445109D01*
X664407Y445028D01*
X664502Y444950D01*
X664598Y444876D01*
X664697Y444804D01*
X664799Y444736D01*
X664902Y444671D01*
X665007Y444609D01*
X665115Y444551D01*
X665224Y444496D01*
X665335Y444445D01*
X665447Y444397D01*
X665561Y444353D01*
X665676Y444313D01*
X665793Y444276D01*
X665911Y444244D01*
X666029Y444215D01*
X666149Y444189D01*
X666269Y444168D01*
X666390Y444150D01*
X666511Y444137D01*
X666633Y444127D01*
X666755Y444121D01*
X666877Y444119D01*
X673227Y124714D02*
X673349Y124712D01*
X673471Y124706D01*
X673593Y124696D01*
X673714Y124683D01*
X673835Y124665D01*
X673955Y124644D01*
X674075Y124618D01*
X674193Y124589D01*
X674311Y124557D01*
X674428Y124520D01*
X674543Y124480D01*
X674657Y124436D01*
X674769Y124388D01*
X674880Y124337D01*
X674989Y124282D01*
X675097Y124224D01*
X675202Y124162D01*
X675305Y124097D01*
X675407Y124029D01*
X675506Y123957D01*
X675602Y123883D01*
X675697Y123805D01*
X675788Y123724D01*
X675878Y123641D01*
X675964Y123555D01*
X676047Y123465D01*
X676128Y123374D01*
X676206Y123279D01*
X676280Y123183D01*
X676352Y123084D01*
X676420Y122982D01*
X676485Y122879D01*
X676547Y122774D01*
X676605Y122666D01*
X676660Y122557D01*
X676711Y122446D01*
X676759Y122334D01*
X676803Y122220D01*
X676843Y122105D01*
X676880Y121988D01*
X676912Y121870D01*
X676941Y121752D01*
X676967Y121632D01*
X676988Y121512D01*
X677006Y121391D01*
X677019Y121270D01*
X677029Y121148D01*
X677035Y121026D01*
X677037Y120904D01*
X677035Y120782D01*
X677029Y120660D01*
X677019Y120538D01*
X677006Y120417D01*
X676988Y120296D01*
X676967Y120176D01*
X676941Y120056D01*
X676912Y119938D01*
X676880Y119820D01*
X676843Y119703D01*
X676803Y119588D01*
X676759Y119474D01*
X676711Y119362D01*
X676660Y119251D01*
X676605Y119142D01*
X676547Y119034D01*
X676485Y118929D01*
X676420Y118826D01*
X676352Y118724D01*
X676280Y118625D01*
X676206Y118529D01*
X676128Y118434D01*
X676047Y118343D01*
X675964Y118253D01*
X675878Y118167D01*
X675788Y118084D01*
X675697Y118003D01*
X675602Y117925D01*
X675506Y117851D01*
X675407Y117779D01*
X675305Y117711D01*
X675202Y117646D01*
X675097Y117584D01*
X674989Y117526D01*
X674880Y117471D01*
X674769Y117420D01*
X674657Y117372D01*
X674543Y117328D01*
X674428Y117288D01*
X674311Y117251D01*
X674193Y117219D01*
X674075Y117190D01*
X673955Y117164D01*
X673835Y117143D01*
X673714Y117125D01*
X673593Y117112D01*
X673471Y117102D01*
X673349Y117096D01*
X673227Y117094D01*
X673105Y117096D01*
X672983Y117102D01*
X672861Y117112D01*
X672740Y117125D01*
X672619Y117143D01*
X672499Y117164D01*
X672379Y117190D01*
X672261Y117219D01*
X672143Y117251D01*
X672026Y117288D01*
X671911Y117328D01*
X671797Y117372D01*
X671685Y117420D01*
X671574Y117471D01*
X671465Y117526D01*
X671357Y117584D01*
X671252Y117646D01*
X671149Y117711D01*
X671047Y117779D01*
X670948Y117851D01*
X670852Y117925D01*
X670757Y118003D01*
X670666Y118084D01*
X670576Y118167D01*
X670490Y118253D01*
X670407Y118343D01*
X670326Y118434D01*
X670248Y118529D01*
X670174Y118625D01*
X670102Y118724D01*
X670034Y118826D01*
X669969Y118929D01*
X669907Y119034D01*
X669849Y119142D01*
X669794Y119251D01*
X669743Y119362D01*
X669695Y119474D01*
X669651Y119588D01*
X669611Y119703D01*
X669574Y119820D01*
X669542Y119938D01*
X669513Y120056D01*
X669487Y120176D01*
X669466Y120296D01*
X669448Y120417D01*
X669435Y120538D01*
X669425Y120660D01*
X669419Y120782D01*
X669417Y120904D01*
X669419Y121026D01*
X669425Y121148D01*
X669435Y121270D01*
X669448Y121391D01*
X669466Y121512D01*
X669487Y121632D01*
X669513Y121752D01*
X669542Y121870D01*
X669574Y121988D01*
X669611Y122105D01*
X669651Y122220D01*
X669695Y122334D01*
X669743Y122446D01*
X669794Y122557D01*
X669849Y122666D01*
X669907Y122774D01*
X669969Y122879D01*
X670034Y122982D01*
X670102Y123084D01*
X670174Y123183D01*
X670248Y123279D01*
X670326Y123374D01*
X670407Y123465D01*
X670490Y123555D01*
X670576Y123641D01*
X670666Y123724D01*
X670757Y123805D01*
X670852Y123883D01*
X670948Y123957D01*
X671047Y124029D01*
X671149Y124097D01*
X671252Y124162D01*
X671357Y124224D01*
X671465Y124282D01*
X671574Y124337D01*
X671685Y124388D01*
X671797Y124436D01*
X671911Y124480D01*
X672026Y124520D01*
X672143Y124557D01*
X672261Y124589D01*
X672379Y124618D01*
X672499Y124644D01*
X672619Y124665D01*
X672740Y124683D01*
X672861Y124696D01*
X672983Y124706D01*
X673105Y124712D01*
X673227Y124714D01*
D11*
X241371Y148336D02*
X241371Y156972D01*
X238972Y156972D01*
X238875Y156970D01*
X238779Y156964D01*
X238683Y156955D01*
X238587Y156941D01*
X238492Y156924D01*
X238398Y156902D01*
X238305Y156877D01*
X238212Y156849D01*
X238121Y156816D01*
X238032Y156780D01*
X237944Y156740D01*
X237857Y156697D01*
X237773Y156651D01*
X237690Y156601D01*
X237609Y156547D01*
X237531Y156491D01*
X237455Y156431D01*
X237381Y156369D01*
X237310Y156303D01*
X237242Y156235D01*
X237176Y156164D01*
X237114Y156090D01*
X237054Y156014D01*
X236998Y155936D01*
X236944Y155855D01*
X236894Y155773D01*
X236848Y155688D01*
X236805Y155601D01*
X236765Y155513D01*
X236729Y155424D01*
X236696Y155333D01*
X236668Y155240D01*
X236643Y155147D01*
X236621Y155053D01*
X236604Y154958D01*
X236590Y154862D01*
X236581Y154766D01*
X236575Y154670D01*
X236573Y154573D01*
X236575Y154476D01*
X236581Y154380D01*
X236590Y154284D01*
X236604Y154188D01*
X236621Y154093D01*
X236643Y153999D01*
X236668Y153906D01*
X236696Y153813D01*
X236729Y153722D01*
X236765Y153633D01*
X236805Y153545D01*
X236848Y153458D01*
X236894Y153374D01*
X236944Y153291D01*
X236998Y153210D01*
X237054Y153132D01*
X237114Y153056D01*
X237176Y152982D01*
X237242Y152911D01*
X237310Y152843D01*
X237381Y152777D01*
X237455Y152715D01*
X237531Y152655D01*
X237609Y152599D01*
X237690Y152545D01*
X237772Y152495D01*
X237857Y152449D01*
X237944Y152406D01*
X238032Y152366D01*
X238121Y152330D01*
X238212Y152297D01*
X238305Y152269D01*
X238398Y152244D01*
X238492Y152222D01*
X238587Y152205D01*
X238683Y152191D01*
X238779Y152182D01*
X238875Y152176D01*
X238972Y152174D01*
X241371Y152174D01*
X238492Y152174D02*
X236573Y148336D01*
X232311Y155053D02*
X229912Y156972D01*
X229912Y148336D01*
X232311Y148336D02*
X227513Y148336D01*
X223167Y155053D02*
X220768Y156972D01*
X220768Y148336D01*
X223167Y148336D02*
X218369Y148336D01*
X242895Y167767D02*
X242895Y176403D01*
X240496Y176403D01*
X240399Y176401D01*
X240303Y176395D01*
X240207Y176386D01*
X240111Y176372D01*
X240016Y176355D01*
X239922Y176333D01*
X239829Y176308D01*
X239736Y176280D01*
X239645Y176247D01*
X239556Y176211D01*
X239468Y176171D01*
X239381Y176128D01*
X239297Y176082D01*
X239214Y176032D01*
X239133Y175978D01*
X239055Y175922D01*
X238979Y175862D01*
X238905Y175800D01*
X238834Y175734D01*
X238766Y175666D01*
X238700Y175595D01*
X238638Y175521D01*
X238578Y175445D01*
X238522Y175367D01*
X238468Y175286D01*
X238418Y175204D01*
X238372Y175119D01*
X238329Y175032D01*
X238289Y174944D01*
X238253Y174855D01*
X238220Y174764D01*
X238192Y174671D01*
X238167Y174578D01*
X238145Y174484D01*
X238128Y174389D01*
X238114Y174293D01*
X238105Y174197D01*
X238099Y174101D01*
X238097Y174004D01*
X238099Y173907D01*
X238105Y173811D01*
X238114Y173715D01*
X238128Y173619D01*
X238145Y173524D01*
X238167Y173430D01*
X238192Y173337D01*
X238220Y173244D01*
X238253Y173153D01*
X238289Y173064D01*
X238329Y172976D01*
X238372Y172889D01*
X238418Y172805D01*
X238468Y172722D01*
X238522Y172641D01*
X238578Y172563D01*
X238638Y172487D01*
X238700Y172413D01*
X238766Y172342D01*
X238834Y172274D01*
X238905Y172208D01*
X238979Y172146D01*
X239055Y172086D01*
X239133Y172030D01*
X239214Y171976D01*
X239296Y171926D01*
X239381Y171880D01*
X239468Y171837D01*
X239556Y171797D01*
X239645Y171761D01*
X239736Y171728D01*
X239829Y171700D01*
X239922Y171675D01*
X240016Y171653D01*
X240111Y171636D01*
X240207Y171622D01*
X240303Y171613D01*
X240399Y171607D01*
X240496Y171605D01*
X242895Y171605D01*
X240016Y171605D02*
X238097Y167767D01*
X233835Y174484D02*
X231436Y176403D01*
X231436Y167767D01*
X233835Y167767D02*
X229037Y167767D01*
X222052Y176403D02*
X221960Y176401D01*
X221869Y176395D01*
X221778Y176386D01*
X221687Y176372D01*
X221597Y176355D01*
X221508Y176333D01*
X221420Y176308D01*
X221333Y176280D01*
X221247Y176247D01*
X221163Y176211D01*
X221080Y176172D01*
X220999Y176129D01*
X220920Y176082D01*
X220843Y176033D01*
X220768Y175980D01*
X220696Y175924D01*
X220626Y175865D01*
X220558Y175803D01*
X220493Y175738D01*
X220431Y175670D01*
X220372Y175600D01*
X220316Y175528D01*
X220263Y175453D01*
X220214Y175376D01*
X220167Y175297D01*
X220124Y175216D01*
X220085Y175133D01*
X220049Y175049D01*
X220016Y174963D01*
X219988Y174876D01*
X219963Y174788D01*
X219941Y174699D01*
X219924Y174609D01*
X219910Y174518D01*
X219901Y174427D01*
X219895Y174336D01*
X219893Y174244D01*
X222052Y176403D02*
X222155Y176401D01*
X222257Y176395D01*
X222359Y176386D01*
X222461Y176373D01*
X222562Y176356D01*
X222663Y176335D01*
X222762Y176311D01*
X222861Y176282D01*
X222958Y176251D01*
X223055Y176215D01*
X223150Y176177D01*
X223243Y176134D01*
X223335Y176088D01*
X223425Y176039D01*
X223513Y175987D01*
X223600Y175931D01*
X223684Y175872D01*
X223765Y175811D01*
X223845Y175746D01*
X223922Y175678D01*
X223997Y175607D01*
X224068Y175534D01*
X224137Y175458D01*
X224204Y175380D01*
X224267Y175299D01*
X224327Y175216D01*
X224384Y175131D01*
X224438Y175044D01*
X224489Y174954D01*
X224536Y174863D01*
X224580Y174771D01*
X224621Y174676D01*
X224658Y174581D01*
X224691Y174484D01*
X220613Y172565D02*
X220546Y172631D01*
X220482Y172700D01*
X220421Y172771D01*
X220363Y172845D01*
X220308Y172921D01*
X220256Y172999D01*
X220207Y173079D01*
X220161Y173161D01*
X220119Y173245D01*
X220080Y173331D01*
X220045Y173418D01*
X220014Y173506D01*
X219986Y173596D01*
X219961Y173686D01*
X219940Y173778D01*
X219923Y173870D01*
X219910Y173963D01*
X219901Y174056D01*
X219895Y174150D01*
X219893Y174244D01*
X220613Y172565D02*
X224691Y167767D01*
X219893Y167767D01*
D13*
X327126Y83394D02*
X327126Y71894D01*
X327126Y125394D02*
X327126Y136894D01*
X327126Y71894D02*
X292126Y71894D01*
X292126Y136894D02*
X327126Y136894D01*
X257626Y81394D02*
X257628Y81457D01*
X257634Y81519D01*
X257644Y81581D01*
X257657Y81643D01*
X257675Y81703D01*
X257696Y81762D01*
X257721Y81820D01*
X257750Y81876D01*
X257782Y81930D01*
X257817Y81982D01*
X257855Y82031D01*
X257897Y82079D01*
X257941Y82123D01*
X257989Y82165D01*
X258038Y82203D01*
X258090Y82238D01*
X258144Y82270D01*
X258200Y82299D01*
X258258Y82324D01*
X258317Y82345D01*
X258377Y82363D01*
X258439Y82376D01*
X258501Y82386D01*
X258563Y82392D01*
X258626Y82394D01*
X258689Y82392D01*
X258751Y82386D01*
X258813Y82376D01*
X258875Y82363D01*
X258935Y82345D01*
X258994Y82324D01*
X259052Y82299D01*
X259108Y82270D01*
X259162Y82238D01*
X259214Y82203D01*
X259263Y82165D01*
X259311Y82123D01*
X259355Y82079D01*
X259397Y82031D01*
X259435Y81982D01*
X259470Y81930D01*
X259502Y81876D01*
X259531Y81820D01*
X259556Y81762D01*
X259577Y81703D01*
X259595Y81643D01*
X259608Y81581D01*
X259618Y81519D01*
X259624Y81457D01*
X259626Y81394D01*
X259624Y81331D01*
X259618Y81269D01*
X259608Y81207D01*
X259595Y81145D01*
X259577Y81085D01*
X259556Y81026D01*
X259531Y80968D01*
X259502Y80912D01*
X259470Y80858D01*
X259435Y80806D01*
X259397Y80757D01*
X259355Y80709D01*
X259311Y80665D01*
X259263Y80623D01*
X259214Y80585D01*
X259162Y80550D01*
X259108Y80518D01*
X259052Y80489D01*
X258994Y80464D01*
X258935Y80443D01*
X258875Y80425D01*
X258813Y80412D01*
X258751Y80402D01*
X258689Y80396D01*
X258626Y80394D01*
X258563Y80396D01*
X258501Y80402D01*
X258439Y80412D01*
X258377Y80425D01*
X258317Y80443D01*
X258258Y80464D01*
X258200Y80489D01*
X258144Y80518D01*
X258090Y80550D01*
X258038Y80585D01*
X257989Y80623D01*
X257941Y80665D01*
X257897Y80709D01*
X257855Y80757D01*
X257817Y80806D01*
X257782Y80858D01*
X257750Y80912D01*
X257721Y80968D01*
X257696Y81026D01*
X257675Y81085D01*
X257657Y81145D01*
X257644Y81207D01*
X257634Y81269D01*
X257628Y81331D01*
X257626Y81394D01*
D11*
X304215Y144277D02*
X304215Y150514D01*
X304215Y144277D02*
X304213Y144180D01*
X304207Y144084D01*
X304198Y143988D01*
X304184Y143892D01*
X304167Y143797D01*
X304145Y143703D01*
X304120Y143610D01*
X304092Y143517D01*
X304059Y143426D01*
X304023Y143337D01*
X303983Y143249D01*
X303940Y143162D01*
X303894Y143077D01*
X303844Y142995D01*
X303790Y142914D01*
X303734Y142836D01*
X303674Y142760D01*
X303612Y142686D01*
X303546Y142615D01*
X303478Y142547D01*
X303407Y142481D01*
X303333Y142419D01*
X303257Y142359D01*
X303179Y142303D01*
X303098Y142249D01*
X303016Y142199D01*
X302931Y142153D01*
X302844Y142110D01*
X302756Y142070D01*
X302667Y142034D01*
X302576Y142001D01*
X302483Y141973D01*
X302390Y141948D01*
X302296Y141926D01*
X302201Y141909D01*
X302105Y141895D01*
X302009Y141886D01*
X301913Y141880D01*
X301816Y141878D01*
X301719Y141880D01*
X301623Y141886D01*
X301527Y141895D01*
X301431Y141909D01*
X301336Y141926D01*
X301242Y141948D01*
X301149Y141973D01*
X301056Y142001D01*
X300965Y142034D01*
X300876Y142070D01*
X300788Y142110D01*
X300701Y142153D01*
X300617Y142199D01*
X300534Y142249D01*
X300453Y142303D01*
X300375Y142359D01*
X300299Y142419D01*
X300225Y142481D01*
X300154Y142547D01*
X300086Y142615D01*
X300020Y142686D01*
X299958Y142760D01*
X299898Y142836D01*
X299842Y142914D01*
X299788Y142995D01*
X299738Y143078D01*
X299692Y143162D01*
X299649Y143249D01*
X299609Y143337D01*
X299573Y143426D01*
X299540Y143517D01*
X299512Y143610D01*
X299487Y143703D01*
X299465Y143797D01*
X299448Y143892D01*
X299434Y143988D01*
X299425Y144084D01*
X299419Y144180D01*
X299417Y144277D01*
X299417Y150514D01*
X292127Y150514D02*
X292035Y150512D01*
X291944Y150506D01*
X291853Y150497D01*
X291762Y150483D01*
X291672Y150466D01*
X291583Y150444D01*
X291495Y150419D01*
X291408Y150391D01*
X291322Y150358D01*
X291238Y150322D01*
X291155Y150283D01*
X291074Y150240D01*
X290995Y150193D01*
X290918Y150144D01*
X290843Y150091D01*
X290771Y150035D01*
X290701Y149976D01*
X290633Y149914D01*
X290568Y149849D01*
X290506Y149781D01*
X290447Y149711D01*
X290391Y149639D01*
X290338Y149564D01*
X290289Y149487D01*
X290242Y149408D01*
X290199Y149327D01*
X290160Y149244D01*
X290124Y149160D01*
X290091Y149074D01*
X290063Y148987D01*
X290038Y148899D01*
X290016Y148810D01*
X289999Y148720D01*
X289985Y148629D01*
X289976Y148538D01*
X289970Y148447D01*
X289968Y148355D01*
X292127Y150514D02*
X292230Y150512D01*
X292332Y150506D01*
X292434Y150497D01*
X292536Y150484D01*
X292637Y150467D01*
X292738Y150446D01*
X292837Y150422D01*
X292936Y150393D01*
X293033Y150362D01*
X293130Y150326D01*
X293225Y150288D01*
X293318Y150245D01*
X293410Y150199D01*
X293500Y150150D01*
X293588Y150098D01*
X293675Y150042D01*
X293759Y149983D01*
X293840Y149922D01*
X293920Y149857D01*
X293997Y149789D01*
X294072Y149718D01*
X294143Y149645D01*
X294212Y149569D01*
X294279Y149491D01*
X294342Y149410D01*
X294402Y149327D01*
X294459Y149242D01*
X294513Y149155D01*
X294564Y149065D01*
X294611Y148974D01*
X294655Y148882D01*
X294696Y148787D01*
X294733Y148692D01*
X294766Y148595D01*
X290688Y146676D02*
X290621Y146742D01*
X290557Y146811D01*
X290496Y146882D01*
X290438Y146956D01*
X290383Y147032D01*
X290331Y147110D01*
X290282Y147190D01*
X290236Y147272D01*
X290194Y147356D01*
X290155Y147442D01*
X290120Y147529D01*
X290089Y147617D01*
X290061Y147707D01*
X290036Y147797D01*
X290015Y147889D01*
X289998Y147981D01*
X289985Y148074D01*
X289976Y148167D01*
X289970Y148261D01*
X289968Y148355D01*
X290688Y146676D02*
X294766Y141878D01*
X289968Y141878D01*
X99131Y287782D02*
X99131Y296418D01*
X96732Y296418D01*
X96635Y296416D01*
X96539Y296410D01*
X96443Y296401D01*
X96347Y296387D01*
X96252Y296370D01*
X96158Y296348D01*
X96065Y296323D01*
X95972Y296295D01*
X95881Y296262D01*
X95792Y296226D01*
X95704Y296186D01*
X95617Y296143D01*
X95533Y296097D01*
X95450Y296047D01*
X95369Y295993D01*
X95291Y295937D01*
X95215Y295877D01*
X95141Y295815D01*
X95070Y295749D01*
X95002Y295681D01*
X94936Y295610D01*
X94874Y295536D01*
X94814Y295460D01*
X94758Y295382D01*
X94704Y295301D01*
X94654Y295219D01*
X94608Y295134D01*
X94565Y295047D01*
X94525Y294959D01*
X94489Y294870D01*
X94456Y294779D01*
X94428Y294686D01*
X94403Y294593D01*
X94381Y294499D01*
X94364Y294404D01*
X94350Y294308D01*
X94341Y294212D01*
X94335Y294116D01*
X94333Y294019D01*
X94335Y293922D01*
X94341Y293826D01*
X94350Y293730D01*
X94364Y293634D01*
X94381Y293539D01*
X94403Y293445D01*
X94428Y293352D01*
X94456Y293259D01*
X94489Y293168D01*
X94525Y293079D01*
X94565Y292991D01*
X94608Y292904D01*
X94654Y292820D01*
X94704Y292737D01*
X94758Y292656D01*
X94814Y292578D01*
X94874Y292502D01*
X94936Y292428D01*
X95002Y292357D01*
X95070Y292289D01*
X95141Y292223D01*
X95215Y292161D01*
X95291Y292101D01*
X95369Y292045D01*
X95450Y291991D01*
X95532Y291941D01*
X95617Y291895D01*
X95704Y291852D01*
X95792Y291812D01*
X95881Y291776D01*
X95972Y291743D01*
X96065Y291715D01*
X96158Y291690D01*
X96252Y291668D01*
X96347Y291651D01*
X96443Y291637D01*
X96539Y291628D01*
X96635Y291622D01*
X96732Y291620D01*
X99131Y291620D01*
X96252Y291620D02*
X94333Y287782D01*
X87432Y296418D02*
X87340Y296416D01*
X87249Y296410D01*
X87158Y296401D01*
X87067Y296387D01*
X86977Y296370D01*
X86888Y296348D01*
X86800Y296323D01*
X86713Y296295D01*
X86627Y296262D01*
X86543Y296226D01*
X86460Y296187D01*
X86379Y296144D01*
X86300Y296097D01*
X86223Y296048D01*
X86148Y295995D01*
X86076Y295939D01*
X86006Y295880D01*
X85938Y295818D01*
X85873Y295753D01*
X85811Y295685D01*
X85752Y295615D01*
X85696Y295543D01*
X85643Y295468D01*
X85594Y295391D01*
X85547Y295312D01*
X85504Y295231D01*
X85465Y295148D01*
X85429Y295064D01*
X85396Y294978D01*
X85368Y294891D01*
X85343Y294803D01*
X85321Y294714D01*
X85304Y294624D01*
X85290Y294533D01*
X85281Y294442D01*
X85275Y294351D01*
X85273Y294259D01*
X87432Y296418D02*
X87535Y296416D01*
X87637Y296410D01*
X87739Y296401D01*
X87841Y296388D01*
X87942Y296371D01*
X88043Y296350D01*
X88142Y296326D01*
X88241Y296297D01*
X88338Y296266D01*
X88435Y296230D01*
X88530Y296192D01*
X88623Y296149D01*
X88715Y296103D01*
X88805Y296054D01*
X88893Y296002D01*
X88980Y295946D01*
X89064Y295887D01*
X89145Y295826D01*
X89225Y295761D01*
X89302Y295693D01*
X89377Y295622D01*
X89448Y295549D01*
X89517Y295473D01*
X89584Y295395D01*
X89647Y295314D01*
X89707Y295231D01*
X89764Y295146D01*
X89818Y295059D01*
X89869Y294969D01*
X89916Y294878D01*
X89960Y294786D01*
X90001Y294691D01*
X90038Y294596D01*
X90071Y294499D01*
X85993Y292580D02*
X85926Y292646D01*
X85862Y292715D01*
X85801Y292786D01*
X85743Y292860D01*
X85688Y292936D01*
X85636Y293014D01*
X85587Y293094D01*
X85541Y293176D01*
X85499Y293260D01*
X85460Y293346D01*
X85425Y293433D01*
X85394Y293521D01*
X85366Y293611D01*
X85341Y293701D01*
X85320Y293793D01*
X85303Y293885D01*
X85290Y293978D01*
X85281Y294071D01*
X85275Y294165D01*
X85273Y294259D01*
X85993Y292580D02*
X90071Y287782D01*
X85273Y287782D01*
M02*
